<?xml version="1.0" encoding="UTF-8"?>
<svg width="24px" height="24px" viewBox="0 0 24 24" version="1.1" xmlns="http://www.w3.org/2000/svg" xmlns:xlink="http://www.w3.org/1999/xlink">
    <!-- Generator: Sketch 52.4 (67378) - http://www.bohemiancoding.com/sketch -->
    <title>announce</title>
    <desc>Created with Sketch.</desc>
    <g id="announce" stroke="none" stroke-width="1" fill="none" fill-rule="evenodd">
        <path d="M11,15 C14,15 19,19 19,19 L19,3 C19,3 14,7 11,7 C11,7 11,15 11,15 Z M5,15 L8,23 L12,23 L9,15 M19,14 C20.657,14 22,12.657 22,11 C22,9.343 20.657,8 19,8 M11,19 C11.9999997,18.9999994 14,18 14,16 M2,11 C2,7.88888889 3.7912,7 6,7 L11,7 L11,15 L6,15 C3.7912,15 2,14.1111111 2,11 Z" id="Megaphone" stroke="#000000" stroke-width="2"></path>
    </g>
</svg>