<?xml version="1.0" encoding="UTF-8"?>
<svg width="24px" height="24px" viewBox="0 0 24 24" version="1.1" xmlns="http://www.w3.org/2000/svg" xmlns:xlink="http://www.w3.org/1999/xlink">
    <!-- Generator: Sketch 52.4 (67378) - http://www.bohemiancoding.com/sketch -->
    <title>assist-listening</title>
    <desc>Created with Sketch.</desc>
    <g id="assist-listening" stroke="none" stroke-width="1" fill="none" fill-rule="evenodd" stroke-linecap="round" stroke-linejoin="round">
        <path d="M12,20 C12.7572165,20.6666667 13.4238831,21 14,21 C16,21 17,20 17,18 C17,16.6666667 17.6666667,15.3333333 19,14 C20.2667508,12.7332492 21,10.9329966 21,9 C21,5.13400675 17.8659932,2 14,2 C10.1340067,2 7,5.13400675 7,9 M18,9 C18,6.790861 16.209139,5 14,5 C11.790861,5 10,6.790861 10,9 M4,19 L9,13 L10,17 L15,11" id="Shape" stroke="#000000" stroke-width="2"></path>
    </g>
</svg>