<?xml version="1.0" encoding="utf-8"?>
<!-- Generator: Adobe Illustrator 22.1.0, SVG Export Plug-In . SVG Version: 6.00 Build 0)  -->
<svg version="1.1" id="Layer_1" xmlns="http://www.w3.org/2000/svg" xmlns:xlink="http://www.w3.org/1999/xlink" x="0px" y="0px"
	 viewBox="0 0 24 24" style="enable-background:new 0 0 24 24;" xml:space="preserve">
<title>connect</title>
<desc>Created with Sketch.</desc>
<g id="connect">
	<g id="plug">
		<path d="M1.7,23.7l-1.4-1.4L2.6,20c-4.1-4.9-0.5-8.5,0.7-9.7L5,8.6L15.4,19l-1.7,1.7c-1.1,1.1-2.9,2.6-5.2,2.6c0,0,0,0,0,0
			c-1.5,0-3-0.7-4.5-2L1.7,23.7z M5,11.4l-0.3,0.3c-2.3,2.3-3.1,4.4,0,7.6c1.3,1.4,2.6,2,3.8,2c0,0,0,0,0,0c1.5,0,2.8-1.1,3.8-2.1
			l0.3-0.3L5,11.4z M13.7,15.7l-1.4-1.4l2.8-2.8l-2.6-2.6l-2.8,2.8l-1.4-1.4l2.8-2.8L8.6,5l1.7-1.7c1.2-1.2,4.8-4.8,9.7-0.7l2.3-2.3
			l1.4,1.4L21.4,4c1.3,1.5,1.9,3,1.9,4.5c0,2.3-1.5,4.1-2.6,5.2L19,15.4l-2.5-2.5L13.7,15.7z M11.4,5l7.6,7.6l0.3-0.3
			c1.4-1.4,2-2.6,2-3.8c0-1.2-0.7-2.5-2-3.8c-3.4-3.3-5.6-2-7.6,0L11.4,5z"/>
	</g>
</g>
</svg>
