<?xml version="1.0" encoding="utf-8"?>
<!-- Generator: Adobe Illustrator 22.1.0, SVG Export Plug-In . SVG Version: 6.00 Build 0)  -->
<svg version="1.1" id="Layer_1" xmlns="http://www.w3.org/2000/svg" xmlns:xlink="http://www.w3.org/1999/xlink" x="0px" y="0px"
	 viewBox="0 0 19 4" style="enable-background:new 0 0 19 4;" xml:space="preserve">
<title>Group 2</title>
<desc>Created with Sketch.</desc>
<g id="Symbols">
	<g id="List_x2F_fileshares-first" transform="translate(-1040.000000, -39.000000)">
		<g id="Group">
			<g id="Group-5" transform="translate(866.000000, 29.000000)">
				<g id="Group-2" transform="translate(171.000000, 0.000000)">
					<path id="Combined-Shape" d="M12.4,10h0.2c1.1,0,2,0.9,2,2s-0.9,2-2,2h-0.2c-1.1,0-2-0.9-2-2S11.3,10,12.4,10z M5.1,10h0.2
						c1.1,0,2,0.9,2,2s-0.9,2-2,2H5.1c-1.1,0-2-0.9-2-2S4,10,5.1,10z M19.7,10h0.2c1.1,0,2,0.9,2,2s-0.9,2-2,2h-0.2
						c-1.1,0-2-0.9-2-2S18.6,10,19.7,10z"/>
				</g>
			</g>
		</g>
	</g>
</g>
</svg>
