<?xml version="1.0" encoding="utf-8"?>
<!-- Generator: Adobe Illustrator 22.1.0, SVG Export Plug-In . SVG Version: 6.00 Build 0)  -->
<svg version="1.1" id="Layer_1" xmlns="http://www.w3.org/2000/svg" xmlns:xlink="http://www.w3.org/1999/xlink" x="0px" y="0px"
	 viewBox="0 0 24 24" style="enable-background:new 0 0 24 24;" xml:space="preserve">
<title>dashboard</title>
<desc>Created with Sketch.</desc>
<g id="dashboard">
	<g id="Gauge">
		<path d="M12,23C5.9,23,1,18.1,1,12S5.9,1,12,1s11,4.9,11,11S18.1,23,12,23z M5.3,18c1.6,1.8,4,3,6.7,3c2.7,0,5.1-1.2,6.7-3H5.3z
			 M16,16h4.1c0.5-0.9,0.8-1.9,0.9-3H19v-2h1.9c-0.2-1.7-0.9-3.3-1.9-4.6l-1.3,1.3l-1.4-1.4L17.6,5c-1.3-1-2.9-1.7-4.6-1.9V5h-2V3.1
			C9.3,3.2,7.7,3.9,6.4,5l1.3,1.3L6.3,7.7L5,6.4c-1,1.3-1.7,2.9-1.9,4.6H5v2H3.1c0.1,1.1,0.4,2.1,0.9,3H8c0-1.9,1.3-3.4,3-3.9V7h2
			v5.1C14.7,12.6,16,14.1,16,16z M10,16h4c0-1.1-0.9-2-2-2C10.9,14,10,14.9,10,16z"/>
	</g>
</g>
</svg>
