<?xml version="1.0" encoding="utf-8"?>
<!-- Generator: Adobe Illustrator 22.1.0, SVG Export Plug-In . SVG Version: 6.00 Build 0)  -->
<svg version="1.1" id="Layer_1" xmlns="http://www.w3.org/2000/svg" xmlns:xlink="http://www.w3.org/1999/xlink" x="0px" y="0px"
	 viewBox="0 0 24 24" style="enable-background:new 0 0 24 24;" xml:space="preserve">
<title>edit</title>
<desc>Created with Sketch.</desc>
<g id="edit">
	<g id="Edit">
		<path d="M0.5,23.5l2.6-9L16.6,1c0.8-0.8,2.1-0.8,2.8,0L23,4.6C23.4,5,23.6,5.5,23.6,6c0,0.5-0.2,1-0.6,1.4L9.5,20.9L0.5,23.5z
			 M4,18.6L5.4,20l3.1-0.9l9.6-9.6l-3.6-3.6l-9.6,9.6L4,18.6z M15.9,4.5l3.6,3.6L21.6,6L18,2.4L15.9,4.5z M7.7,17.7l-1.4-1.4l8-8
			l1.4,1.4L7.7,17.7z"/>
	</g>
</g>
</svg>
