<?xml version="1.0" encoding="utf-8"?>
<!-- Generator: Adobe Illustrator 22.1.0, SVG Export Plug-In . SVG Version: 6.00 Build 0)  -->
<svg version="1.1" id="Layer_1" xmlns="http://www.w3.org/2000/svg" xmlns:xlink="http://www.w3.org/1999/xlink" x="0px" y="0px"
	 viewBox="0 0 22 22" style="enable-background:new 0 0 22 22;" xml:space="preserve">
<title>help</title>
<desc>Created with Sketch.</desc>
<g id="help">
	<g id="Group">
		<path d="M11,22C4.9,22,0,17.1,0,11S4.9,0,11,0s11,4.9,11,11S17.1,22,11,22z M11,2c-5,0-9,4-9,9c0,5,4,9,9,9c5,0,9-4,9-9
			C20,6,16,2,11,2z M12,17h-2v-2h2V17z M12,14h-2v-1c0-1,0-2.1,1.6-2.9C12.6,9.6,13,9.3,13,8.5C13,8.1,12.5,7,11,7C9.7,7,9,7.7,9,9
			H7c0-2.4,1.6-4,4-4c2.6,0,4,2,4,3.5c0,2.1-1.5,2.9-2.6,3.4C12,12.1,12,12.1,12,13V14z"/>
	</g>
</g>
</svg>
