<?xml version="1.0" encoding="UTF-8"?>
<svg width="50px" height="50px" viewBox="0 0 50 50" version="1.1" xmlns="http://www.w3.org/2000/svg" xmlns:xlink="http://www.w3.org/1999/xlink">
    <!-- Generator: Sketch 52.4 (67378) - http://www.bohemiancoding.com/sketch -->
    <title>Logo</title>
    <desc>Created with Sketch.</desc>
    <g id="Logo" stroke="none" stroke-width="1" fill="none" fill-rule="evenodd">
        <path d="M3,29.8822322 L3.00011073,21.1766682 L10.8592335,16.4589463 L10.8592335,7.8152637 L18.8179573,3 L25.9145428,7.2955928 L33.0110729,3 L41.0029602,7.8152637 L41.0029602,16.4631417 L47.9668366,20.7367089 L48,30.3325695 L41.0029602,34.5935507 L41.0029602,43.2194031 L33.0442364,48 L25.8953313,43.7007639 L18.8179573,48 L10.8592335,43.2194031 L10.8592335,34.5935507 L3,29.8822322 Z M18.331697,21.5895636 L12.9052214,18.5 L12.9052214,27.1044487 L5,22.3905286 L5,28.8973359 L12.9052214,33.6187499 L12.9052214,42.2580593 L18.331697,45.5 L18.331697,36.8584701 L25.5,41.16755 L25.5,35.3953725 L18.331697,31.2109698 L18.331697,21.5895636 Z M19.5,45.5 L24,42.7466009 L19.5,40 L19.5,45.5 Z M39.4786733,18.5 L34.1211623,21.7281727 L34.1211623,31.2431583 L27,35.3984274 L27,41.1673106 L34.1211623,36.8206231 L34.1211623,45.5 L39.4786733,42.2586624 L39.4786733,33.6484428 L46.5,29.3258632 L46.5,22.8491871 L39.4786733,27.1297725 L39.4786733,18.5 Z M27.5,42.7393121 L32,45.5 L32,40 L27.5,42.7393121 Z M26.0086049,26.5 L20,30.0428199 L25.9927147,33.5 L32,30.0557253 L26.0086049,26.5 Z M19.5,21.655349 L19.5,28 L25,24.844651 L25,18.5 L19.5,21.655349 Z M32.5,21.6423235 L27,18.5 L27,24.8576765 L32.5,28 L32.5,21.6423235 Z M6.5,21.2499719 L11,18.5 L11,24 L6.5,21.2499719 Z M41,24 L45.5,21.2655364 L41,18.5 L41,24 Z M38.4697676,8.22257614 L33.1174192,5 L26.0071004,9.27844102 L18.8967263,5 L13.5,8.24929715 L20.657692,12.5218002 L13.5796026,16.7864958 L18.9148657,20 L25.2376452,16.2245848 L26.0403283,15.7306309 L33.1779948,19.9926875 L38.5,16.8002412 L31.5225373,12.5218002 L38.4697676,8.22257614 Z M12.5022084,10 L12.5,15.5 L17,12.7357829 L12.5022084,10 Z M35,12.7795897 L39.5,15.5 L39.5,10 L35,12.7795897 Z" id="SEMC" fill="#01A982"></path>
    </g>
</svg>