<?xml version="1.0" encoding="utf-8"?>
<!-- Generator: Adobe Illustrator 22.1.0, SVG Export Plug-In . SVG Version: 6.00 Build 0)  -->
<svg version="1.1" id="Layer_1" xmlns="http://www.w3.org/2000/svg" xmlns:xlink="http://www.w3.org/1999/xlink" x="0px" y="0px"
	 viewBox="0 0 22 22" style="enable-background:new 0 0 22 22;" xml:space="preserve">
<title>page-help</title>
<desc>Created with Sketch.</desc>
<g>
	<path d="M17.3,0H2.8v6.4h1.8V1.8h10v4.5h4.5V20h-4.5v1.8H21V3.7L17.3,0z M16.5,4.5V1.8h0.1l2.6,2.6v0.1H16.5z"/>
	<path d="M8.3,7.3c-4,0-7.3,3.3-7.3,7.3s3.3,7.3,7.3,7.3s7.3-3.3,7.3-7.3S12.3,7.3,8.3,7.3z M8.3,20c-3,0-5.5-2.5-5.5-5.5
		s2.5-5.5,5.5-5.5s5.5,2.5,5.5,5.5S11.3,20,8.3,20z"/>
	<path d="M8.3,10c-1.6,0-2.7,1.2-2.7,2.9h1.8c0-1.1,0.6-1.1,0.9-1.1c0.7,0,0.9,0.6,0.9,0.7c0,0.5-0.1,0.5-0.7,0.9
		c-1.1,0.6-1.1,1.5-1.1,2.2v0.7h1.8v-0.7c0-0.2,0-0.5,0-0.5s0,0,0.2-0.1c0.6-0.4,1.6-0.9,1.6-2.5C11,11.4,9.9,10,8.3,10z"/>
	<rect x="7.4" y="17.3" width="1.8" height="1.8"/>
</g>
</svg>
