<?xml version="1.0" encoding="UTF-8"?>
<svg width="24px" height="24px" viewBox="0 0 24 24" version="1.1" xmlns="http://www.w3.org/2000/svg" xmlns:xlink="http://www.w3.org/1999/xlink">
    <!-- Generator: Sketch 52.4 (67378) - http://www.bohemiancoding.com/sketch -->
    <title>performance</title>
    <desc>Created with Sketch.</desc>
    <g id="performance" stroke="none" stroke-width="1" fill="none" fill-rule="evenodd" stroke-linecap="round" stroke-linejoin="round">
        <path d="M12,19 L10,22 L7,21 L6.5,17.5 L3,17 L2,14 L5,12 L2,10 L3,7 L6.5,6.5 L7,3 L10,2 L12,5 L14,2 L17,3 L17.5,6.5 L21,7 L22,10 L19,12 L22,14 L21,17 L17.5,17.5 L17,21 L14,22 L12,19 Z M12,16 C14.209139,16 16,14.209139 16,12 C16,9.790861 14.209139,8 12,8 C9.790861,8 8,9.790861 8,12 C8,14.209139 9.790861,16 12,16 Z" id="Shape" stroke="#000000" stroke-width="2"></path>
    </g>
</svg>