<?xml version="1.0" encoding="utf-8"?>
<!-- Generator: Adobe Illustrator 22.1.0, SVG Export Plug-In . SVG Version: 6.00 Build 0)  -->
<svg version="1.1" id="Layer_1" xmlns="http://www.w3.org/2000/svg" xmlns:xlink="http://www.w3.org/1999/xlink" x="0px" y="0px"
	 viewBox="0 0 120 120" style="enable-background:new 0 0 120 120;" xml:space="preserve">
<style type="text/css">
	.st0{fill:#C2CCD3;}
	.st1{fill:#EEEEEE;}
	.st2{fill:#52595E;}
	.st3{clip-path:url(#SVGID_2_);}
	.st4{fill:#01A982;}
	.st5{fill:#FFD404;}
</style>
<g>
	<g>
		<polyline points="26,46.5 60.5,46.5 60.5,55.9 12.2,55.9 		"/>
	</g>
	<g>
		<polygon class="st0" points="95,46.5 60.5,46.5 26,46.5 12.2,55.9 60.5,55.9 108.8,55.9 		"/>
		<path d="M109.1,55.9H11.9l14-9.5h69.1L109.1,55.9z M12.4,55.8h96.1L95,46.6H26L12.4,55.8z"/>
	</g>
	<g>
		<rect x="12.3" y="55.8" class="st1" width="96.6" height="19.3"/>
		<path d="M109,75.1H12.2V55.7H109V75.1z M12.3,75h96.5V55.9H12.3V75z"/>
	</g>
	<g>
		<path class="st0" d="M12.3,55.8l5.9,2.4c0,0,0.6,0,0.6,1.3c0,1.3,0,7.7,0,7.7v4.7c0,0-0.1,0.6-1,0.9c-0.9,0.3-4.4,1.5-4.4,1.5h-1
			V55.8z"/>
		<path d="M13.3,74.4h-1.1V55.7l6,2.4c0.1,0,0.7,0.1,0.7,1.4l0,12.5c0,0-0.2,0.6-1.1,0.9L13.3,74.4z M12.3,74.2h1l4.4-1.5
			c0.8-0.3,1-0.8,1-0.8V59.5c0-1.2-0.5-1.3-0.5-1.3l0,0l-5.8-2.3V74.2z"/>
	</g>
	<g>
		<path d="M12.3,56.2l1.3,2.3c0,0,0.1,0,0.1,1.3c0,1.3,0,7.3,0,7.3v4.5c0,0,0,0.6-0.2,0.8s-1,1.4-1,1.4h-0.2V56.2z"/>
		<path d="M12.6,73.9h-0.3V56l1.5,2.5c0.1,0,0.2,0.3,0.2,1.3v11.9c0,0,0,0.6-0.2,0.9L12.6,73.9z M12.4,73.8h0.1l1-1.4
			c0.2-0.3,0.2-0.8,0.2-0.8l0-11.9c0-0.9-0.1-1.1-0.1-1.2h0l-1.2-2.1V73.8z"/>
	</g>
	<g>
		<path class="st0" d="M108.7,55.8l-5.9,2.4c0,0-0.6,0-0.6,1.3c0,1.3,0,7.7,0,7.7v4.7c0,0,0.1,0.6,1,0.9s4.4,1.5,4.4,1.5h1V55.8z"/>
		<path d="M108.8,74.4l-1.1,0l-4.4-1.5c-0.9-0.3-1.1-0.9-1.1-0.9l0,0V59.5c0-1.3,0.5-1.4,0.7-1.4l6-2.4V74.4z M107.7,74.2h1V55.9
			l-5.8,2.3h0c0,0-0.5,0-0.5,1.3v12.4c0,0.1,0.2,0.6,1,0.8L107.7,74.2z"/>
	</g>
	<g>
		<g>
			<path class="st2" d="M20.6,59.8c0,1.3,0,7.4,0,7.4v4.3c0,0,0.1,0.6,1,0.9c0.9,0.3,4.4,1.3,4.4,1.3h0.1l0.1-16.6l-5.2,1.3
				C21.2,58.5,20.6,58.5,20.6,59.8z"/>
		</g>
		<g>
			<path class="st2" d="M99.7,58.5l-5.2-1.3l0.1,16.6h0.1c0,0,3.6-1,4.4-1.3c0.9-0.3,1-0.9,1-0.9v-4.3c0,0,0-6.1,0-7.4
				C100.3,58.5,99.7,58.5,99.7,58.5z"/>
		</g>
		<g>
			<polygon class="st2" points="26,73.7 94.8,73.7 94.5,57.1 26.3,57.1 			"/>
		</g>
	</g>
	<g>
		<defs>
			<polygon id="SVGID_1_" points="26.3,57.1 20.6,59.1 20.6,71.6 26,73.7 95.3,73.7 100.2,71.9 100.2,59.4 93.8,57.1 			"/>
		</defs>
		<clipPath id="SVGID_2_">
			<use xlink:href="#SVGID_1_"  style="overflow:visible;"/>
		</clipPath>
		<g class="st3">
			<g>
				<path d="M25.9,58.1H28c0.2,0,0.4-0.2,0.4-0.4s-0.2-0.4-0.4-0.4h-2.1c-0.2,0-0.4,0.2-0.4,0.4S25.7,58.1,25.9,58.1z"/>
			</g>
			<g>
				<path d="M29,58.1h0.3c0.2,0,0.4-0.2,0.4-0.4s-0.2-0.4-0.4-0.4H29c-0.2,0-0.4,0.2-0.4,0.4S28.8,58.1,29,58.1z"/>
			</g>
			<g>
				<path d="M30.3,58.1h2.1c0.2,0,0.4-0.2,0.4-0.4s-0.2-0.4-0.4-0.4h-2.1c-0.2,0-0.4,0.2-0.4,0.4S30.1,58.1,30.3,58.1z"/>
			</g>
			<g>
				<path d="M33.5,58.1h0.3c0.2,0,0.4-0.2,0.4-0.4s-0.2-0.4-0.4-0.4h-0.3c-0.2,0-0.4,0.2-0.4,0.4S33.2,58.1,33.5,58.1z"/>
			</g>
			<g>
				<path d="M34.8,58.1h2.1c0.2,0,0.4-0.2,0.4-0.4s-0.2-0.4-0.4-0.4h-2.1c-0.2,0-0.4,0.2-0.4,0.4S34.6,58.1,34.8,58.1z"/>
			</g>
			<g>
				<path d="M37.9,58.1h0.3c0.2,0,0.4-0.2,0.4-0.4s-0.2-0.4-0.4-0.4h-0.3c-0.2,0-0.4,0.2-0.4,0.4S37.7,58.1,37.9,58.1z"/>
			</g>
			<g>
				<path d="M39.2,58.1h2.1c0.2,0,0.4-0.2,0.4-0.4s-0.2-0.4-0.4-0.4h-2.1c-0.2,0-0.4,0.2-0.4,0.4S39,58.1,39.2,58.1z"/>
			</g>
			<g>
				<path d="M42.3,58.1h0.3c0.2,0,0.4-0.2,0.4-0.4s-0.2-0.4-0.4-0.4h-0.3c-0.2,0-0.4,0.2-0.4,0.4S42.1,58.1,42.3,58.1z"/>
			</g>
			<g>
				<path d="M43.7,58.1h2.1c0.2,0,0.4-0.2,0.4-0.4s-0.2-0.4-0.4-0.4h-2.1c-0.2,0-0.4,0.2-0.4,0.4S43.5,58.1,43.7,58.1z"/>
			</g>
			<g>
				<path d="M46.8,58.1h0.3c0.2,0,0.4-0.2,0.4-0.4s-0.2-0.4-0.4-0.4h-0.3c-0.2,0-0.4,0.2-0.4,0.4S46.6,58.1,46.8,58.1z"/>
			</g>
			<g>
				<path d="M48.1,58.1h2.1c0.2,0,0.4-0.2,0.4-0.4s-0.2-0.4-0.4-0.4h-2.1c-0.2,0-0.4,0.2-0.4,0.4S47.9,58.1,48.1,58.1z"/>
			</g>
			<g>
				<path d="M51.2,58.1h0.3c0.2,0,0.4-0.2,0.4-0.4s-0.2-0.4-0.4-0.4h-0.3c-0.2,0-0.4,0.2-0.4,0.4S51,58.1,51.2,58.1z"/>
			</g>
			<g>
				<path d="M52.6,58.1h2.1c0.2,0,0.4-0.2,0.4-0.4s-0.2-0.4-0.4-0.4h-2.1c-0.2,0-0.4,0.2-0.4,0.4S52.4,58.1,52.6,58.1z"/>
			</g>
			<g>
				<path d="M55.7,58.1H56c0.2,0,0.4-0.2,0.4-0.4s-0.2-0.4-0.4-0.4h-0.3c-0.2,0-0.4,0.2-0.4,0.4S55.5,58.1,55.7,58.1z"/>
			</g>
			<g>
				<path d="M57,58.1h2.1c0.2,0,0.4-0.2,0.4-0.4s-0.2-0.4-0.4-0.4H57c-0.2,0-0.4,0.2-0.4,0.4S56.8,58.1,57,58.1z"/>
			</g>
			<g>
				<path d="M60.1,58.1h0.3c0.2,0,0.4-0.2,0.4-0.4s-0.2-0.4-0.4-0.4h-0.3c-0.2,0-0.4,0.2-0.4,0.4S59.9,58.1,60.1,58.1z"/>
			</g>
			<g>
				<path d="M61.5,58.1h2.1c0.2,0,0.4-0.2,0.4-0.4s-0.2-0.4-0.4-0.4h-2.1c-0.2,0-0.4,0.2-0.4,0.4S61.3,58.1,61.5,58.1z"/>
			</g>
			<g>
				<path d="M64.6,58.1h0.3c0.2,0,0.4-0.2,0.4-0.4s-0.2-0.4-0.4-0.4h-0.3c-0.2,0-0.4,0.2-0.4,0.4S64.4,58.1,64.6,58.1z"/>
			</g>
			<g>
				<path d="M65.9,58.1H68c0.2,0,0.4-0.2,0.4-0.4s-0.2-0.4-0.4-0.4h-2.1c-0.2,0-0.4,0.2-0.4,0.4S65.7,58.1,65.9,58.1z"/>
			</g>
			<g>
				<path d="M69,58.1h0.3c0.2,0,0.4-0.2,0.4-0.4s-0.2-0.4-0.4-0.4H69c-0.2,0-0.4,0.2-0.4,0.4S68.8,58.1,69,58.1z"/>
			</g>
			<g>
				<path d="M70.4,58.1h2.1c0.2,0,0.4-0.2,0.4-0.4s-0.2-0.4-0.4-0.4h-2.1c-0.2,0-0.4,0.2-0.4,0.4S70.2,58.1,70.4,58.1z"/>
			</g>
			<g>
				<path d="M73.5,58.1h0.3c0.2,0,0.4-0.2,0.4-0.4s-0.2-0.4-0.4-0.4h-0.3c-0.2,0-0.4,0.2-0.4,0.4S73.3,58.1,73.5,58.1z"/>
			</g>
			<g>
				<path d="M74.8,58.1h2.1c0.2,0,0.4-0.2,0.4-0.4s-0.2-0.4-0.4-0.4h-2.1c-0.2,0-0.4,0.2-0.4,0.4S74.6,58.1,74.8,58.1z"/>
			</g>
			<g>
				<path d="M77.9,58.1h0.3c0.2,0,0.4-0.2,0.4-0.4s-0.2-0.4-0.4-0.4h-0.3c-0.2,0-0.4,0.2-0.4,0.4S77.7,58.1,77.9,58.1z"/>
			</g>
			<g>
				<path d="M79.2,58.1h2.1c0.2,0,0.4-0.2,0.4-0.4s-0.2-0.4-0.4-0.4h-2.1c-0.2,0-0.4,0.2-0.4,0.4S79,58.1,79.2,58.1z"/>
			</g>
			<g>
				<path d="M82.4,58.1h0.3c0.2,0,0.4-0.2,0.4-0.4s-0.2-0.4-0.4-0.4h-0.3c-0.2,0-0.4,0.2-0.4,0.4S82.2,58.1,82.4,58.1z"/>
			</g>
			<g>
				<path d="M83.7,58.1h2.1c0.2,0,0.4-0.2,0.4-0.4s-0.2-0.4-0.4-0.4h-2.1c-0.2,0-0.4,0.2-0.4,0.4S83.5,58.1,83.7,58.1z"/>
			</g>
			<g>
				<path d="M86.8,58.1h0.3c0.2,0,0.4-0.2,0.4-0.4s-0.2-0.4-0.4-0.4h-0.3c-0.2,0-0.4,0.2-0.4,0.4S86.6,58.1,86.8,58.1z"/>
			</g>
			<g>
				<path d="M88.1,58.1h2.1c0.2,0,0.4-0.2,0.4-0.4s-0.2-0.4-0.4-0.4h-2.1c-0.2,0-0.4,0.2-0.4,0.4S87.9,58.1,88.1,58.1z"/>
			</g>
			<g>
				<path d="M91.3,58.1h0.3c0.2,0,0.4-0.2,0.4-0.4s-0.2-0.4-0.4-0.4h-0.3c-0.2,0-0.4,0.2-0.4,0.4S91,58.1,91.3,58.1z"/>
			</g>
			<g>
				<path d="M92.6,58.1h2.1c0.2,0,0.4-0.2,0.4-0.4s-0.2-0.4-0.4-0.4h-2.1c-0.2,0-0.4,0.2-0.4,0.4S92.4,58.1,92.6,58.1z"/>
			</g>
			<g>
				<path d="M95.7,58.1H96c0.2,0,0.4-0.2,0.4-0.4s-0.2-0.4-0.4-0.4h-0.3c-0.2,0-0.4,0.2-0.4,0.4S95.5,58.1,95.7,58.1z"/>
			</g>
			<g>
				<path d="M94.1,58.4c-0.2,0-0.4,0.2-0.4,0.4c0,0.2,0.2,0.4,0.4,0.4h2.1c0.2,0,0.4-0.2,0.4-0.4c0-0.2-0.2-0.4-0.4-0.4H94.1z"/>
			</g>
			<g>
				<path d="M97.2,59.1h0.3c0.2,0,0.4-0.2,0.4-0.4c0-0.2-0.2-0.4-0.4-0.4h-0.3c-0.2,0-0.4,0.2-0.4,0.4C96.8,59,97,59.1,97.2,59.1z"
					/>
			</g>
			<g>
				<path d="M22.9,59.1H25c0.2,0,0.4-0.2,0.4-0.4c0-0.2-0.2-0.4-0.4-0.4h-2.1c-0.2,0-0.4,0.2-0.4,0.4C22.6,59,22.7,59.1,22.9,59.1z"
					/>
			</g>
			<g>
				<path d="M26,58.4c-0.2,0-0.4,0.2-0.4,0.4c0,0.2,0.2,0.4,0.4,0.4h0.3c0.2,0,0.4-0.2,0.4-0.4c0-0.2-0.2-0.4-0.4-0.4H26z"/>
			</g>
			<g>
				<path d="M27.4,58.4c-0.2,0-0.4,0.2-0.4,0.4c0,0.2,0.2,0.4,0.4,0.4h2.1c0.2,0,0.4-0.2,0.4-0.4c0-0.2-0.2-0.4-0.4-0.4H27.4z"/>
			</g>
			<g>
				<path d="M30.5,58.4c-0.2,0-0.4,0.2-0.4,0.4c0,0.2,0.2,0.4,0.4,0.4h0.3c0.2,0,0.4-0.2,0.4-0.4c0-0.2-0.2-0.4-0.4-0.4H30.5z"/>
			</g>
			<g>
				<path d="M31.8,58.4c-0.2,0-0.4,0.2-0.4,0.4c0,0.2,0.2,0.4,0.4,0.4h2.1c0.2,0,0.4-0.2,0.4-0.4c0-0.2-0.2-0.4-0.4-0.4H31.8z"/>
			</g>
			<g>
				<path d="M34.9,58.4c-0.2,0-0.4,0.2-0.4,0.4c0,0.2,0.2,0.4,0.4,0.4h0.3c0.2,0,0.4-0.2,0.4-0.4c0-0.2-0.2-0.4-0.4-0.4H34.9z"/>
			</g>
			<g>
				<path d="M36.3,58.4c-0.2,0-0.4,0.2-0.4,0.4c0,0.2,0.2,0.4,0.4,0.4h2.1c0.2,0,0.4-0.2,0.4-0.4c0-0.2-0.2-0.4-0.4-0.4H36.3z"/>
			</g>
			<g>
				<path d="M39.4,58.4c-0.2,0-0.4,0.2-0.4,0.4c0,0.2,0.2,0.4,0.4,0.4h0.3c0.2,0,0.4-0.2,0.4-0.4c0-0.2-0.2-0.4-0.4-0.4H39.4z"/>
			</g>
			<g>
				<path d="M40.7,58.4c-0.2,0-0.4,0.2-0.4,0.4c0,0.2,0.2,0.4,0.4,0.4h2.1c0.2,0,0.4-0.2,0.4-0.4c0-0.2-0.2-0.4-0.4-0.4H40.7z"/>
			</g>
			<g>
				<path d="M43.8,58.4c-0.2,0-0.4,0.2-0.4,0.4c0,0.2,0.2,0.4,0.4,0.4h0.3c0.2,0,0.4-0.2,0.4-0.4c0-0.2-0.2-0.4-0.4-0.4H43.8z"/>
			</g>
			<g>
				<path d="M45.2,58.4c-0.2,0-0.4,0.2-0.4,0.4c0,0.2,0.2,0.4,0.4,0.4h2.1c0.2,0,0.4-0.2,0.4-0.4c0-0.2-0.2-0.4-0.4-0.4H45.2z"/>
			</g>
			<g>
				<path d="M48.3,58.4c-0.2,0-0.4,0.2-0.4,0.4c0,0.2,0.2,0.4,0.4,0.4h0.3c0.2,0,0.4-0.2,0.4-0.4c0-0.2-0.2-0.4-0.4-0.4H48.3z"/>
			</g>
			<g>
				<path d="M49.6,58.4c-0.2,0-0.4,0.2-0.4,0.4c0,0.2,0.2,0.4,0.4,0.4h2.1c0.2,0,0.4-0.2,0.4-0.4c0-0.2-0.2-0.4-0.4-0.4H49.6z"/>
			</g>
			<g>
				<path d="M52.7,58.4c-0.2,0-0.4,0.2-0.4,0.4c0,0.2,0.2,0.4,0.4,0.4H53c0.2,0,0.4-0.2,0.4-0.4c0-0.2-0.2-0.4-0.4-0.4H52.7z"/>
			</g>
			<g>
				<path d="M54.1,58.4c-0.2,0-0.4,0.2-0.4,0.4c0,0.2,0.2,0.4,0.4,0.4h2.1c0.2,0,0.4-0.2,0.4-0.4c0-0.2-0.2-0.4-0.4-0.4H54.1z"/>
			</g>
			<g>
				<path d="M57.2,58.4c-0.2,0-0.4,0.2-0.4,0.4c0,0.2,0.2,0.4,0.4,0.4h0.3c0.2,0,0.4-0.2,0.4-0.4c0-0.2-0.2-0.4-0.4-0.4H57.2z"/>
			</g>
			<g>
				<path d="M58.5,58.4c-0.2,0-0.4,0.2-0.4,0.4c0,0.2,0.2,0.4,0.4,0.4h2.1c0.2,0,0.4-0.2,0.4-0.4c0-0.2-0.2-0.4-0.4-0.4H58.5z"/>
			</g>
			<g>
				<path d="M61.6,58.4c-0.2,0-0.4,0.2-0.4,0.4c0,0.2,0.2,0.4,0.4,0.4h0.3c0.2,0,0.4-0.2,0.4-0.4c0-0.2-0.2-0.4-0.4-0.4H61.6z"/>
			</g>
			<g>
				<path d="M62.9,58.4c-0.2,0-0.4,0.2-0.4,0.4c0,0.2,0.2,0.4,0.4,0.4H65c0.2,0,0.4-0.2,0.4-0.4c0-0.2-0.2-0.4-0.4-0.4H62.9z"/>
			</g>
			<g>
				<path d="M66.1,58.4c-0.2,0-0.4,0.2-0.4,0.4c0,0.2,0.2,0.4,0.4,0.4h0.3c0.2,0,0.4-0.2,0.4-0.4c0-0.2-0.2-0.4-0.4-0.4H66.1z"/>
			</g>
			<g>
				<path d="M67.4,58.4c-0.2,0-0.4,0.2-0.4,0.4c0,0.2,0.2,0.4,0.4,0.4h2.1c0.2,0,0.4-0.2,0.4-0.4c0-0.2-0.2-0.4-0.4-0.4H67.4z"/>
			</g>
			<g>
				<path d="M70.5,58.4c-0.2,0-0.4,0.2-0.4,0.4c0,0.2,0.2,0.4,0.4,0.4h0.3c0.2,0,0.4-0.2,0.4-0.4c0-0.2-0.2-0.4-0.4-0.4H70.5z"/>
			</g>
			<g>
				<path d="M71.8,58.4c-0.2,0-0.4,0.2-0.4,0.4c0,0.2,0.2,0.4,0.4,0.4h2.1c0.2,0,0.4-0.2,0.4-0.4c0-0.2-0.2-0.4-0.4-0.4H71.8z"/>
			</g>
			<g>
				<path d="M74.9,58.4c-0.2,0-0.4,0.2-0.4,0.4c0,0.2,0.2,0.4,0.4,0.4h0.3c0.2,0,0.4-0.2,0.4-0.4c0-0.2-0.2-0.4-0.4-0.4H74.9z"/>
			</g>
			<g>
				<path d="M76.3,58.4c-0.2,0-0.4,0.2-0.4,0.4c0,0.2,0.2,0.4,0.4,0.4h2.1c0.2,0,0.4-0.2,0.4-0.4c0-0.2-0.2-0.4-0.4-0.4H76.3z"/>
			</g>
			<g>
				<path d="M79.4,58.4c-0.2,0-0.4,0.2-0.4,0.4c0,0.2,0.2,0.4,0.4,0.4h0.3c0.2,0,0.4-0.2,0.4-0.4c0-0.2-0.2-0.4-0.4-0.4H79.4z"/>
			</g>
			<g>
				<path d="M80.7,58.4c-0.2,0-0.4,0.2-0.4,0.4c0,0.2,0.2,0.4,0.4,0.4h2.1c0.2,0,0.4-0.2,0.4-0.4c0-0.2-0.2-0.4-0.4-0.4H80.7z"/>
			</g>
			<g>
				<path d="M83.8,58.4c-0.2,0-0.4,0.2-0.4,0.4c0,0.2,0.2,0.4,0.4,0.4h0.3c0.2,0,0.4-0.2,0.4-0.4c0-0.2-0.2-0.4-0.4-0.4H83.8z"/>
			</g>
			<g>
				<path d="M85.2,58.4c-0.2,0-0.4,0.2-0.4,0.4c0,0.2,0.2,0.4,0.4,0.4h2.1c0.2,0,0.4-0.2,0.4-0.4c0-0.2-0.2-0.4-0.4-0.4H85.2z"/>
			</g>
			<g>
				<path d="M88.3,58.4c-0.2,0-0.4,0.2-0.4,0.4c0,0.2,0.2,0.4,0.4,0.4h0.3c0.2,0,0.4-0.2,0.4-0.4c0-0.2-0.2-0.4-0.4-0.4H88.3z"/>
			</g>
			<g>
				<path d="M89.6,58.4c-0.2,0-0.4,0.2-0.4,0.4c0,0.2,0.2,0.4,0.4,0.4h2.1c0.2,0,0.4-0.2,0.4-0.4c0-0.2-0.2-0.4-0.4-0.4H89.6z"/>
			</g>
			<g>
				<path d="M92.7,58.4c-0.2,0-0.4,0.2-0.4,0.4c0,0.2,0.2,0.4,0.4,0.4H93c0.2,0,0.4-0.2,0.4-0.4c0-0.2-0.2-0.4-0.4-0.4H92.7z"/>
			</g>
			<g>
				<path d="M21.4,60.2h2.1c0.2,0,0.4-0.2,0.4-0.4c0-0.2-0.2-0.4-0.4-0.4h-2.1c-0.2,0-0.4,0.2-0.4,0.4C21.1,60,21.2,60.2,21.4,60.2z
					"/>
			</g>
			<g>
				<path d="M24.9,60.2c0.2,0,0.4-0.2,0.4-0.4c0-0.2-0.2-0.4-0.4-0.4h-0.3c-0.2,0-0.4,0.2-0.4,0.4c0,0.2,0.2,0.4,0.4,0.4H24.9z"/>
			</g>
			<g>
				<path d="M99.1,59.4H97c-0.2,0-0.4,0.2-0.4,0.4c0,0.2,0.2,0.4,0.4,0.4h2.1c0.2,0,0.4-0.2,0.4-0.4C99.5,59.6,99.3,59.4,99.1,59.4z
					"/>
			</g>
			<g>
				<path d="M100.1,60.2h0.3c0.2,0,0.4-0.2,0.4-0.4c0-0.2-0.2-0.4-0.4-0.4h-0.3c-0.2,0-0.4,0.2-0.4,0.4
					C99.8,60,99.9,60.2,100.1,60.2z"/>
			</g>
			<g>
				<path d="M25.9,60.2H28c0.2,0,0.4-0.2,0.4-0.4c0-0.2-0.2-0.4-0.4-0.4h-2.1c-0.2,0-0.4,0.2-0.4,0.4C25.5,60,25.7,60.2,25.9,60.2z"
					/>
			</g>
			<g>
				<path d="M29.3,60.2c0.2,0,0.4-0.2,0.4-0.4c0-0.2-0.2-0.4-0.4-0.4H29c-0.2,0-0.4,0.2-0.4,0.4c0,0.2,0.2,0.4,0.4,0.4H29.3z"/>
			</g>
			<g>
				<path d="M30.3,60.2h2.1c0.2,0,0.4-0.2,0.4-0.4c0-0.2-0.2-0.4-0.4-0.4h-2.1c-0.2,0-0.4,0.2-0.4,0.4C30,60,30.1,60.2,30.3,60.2z"
					/>
			</g>
			<g>
				<path d="M33.8,60.2c0.2,0,0.4-0.2,0.4-0.4c0-0.2-0.2-0.4-0.4-0.4h-0.3c-0.2,0-0.4,0.2-0.4,0.4c0,0.2,0.2,0.4,0.4,0.4H33.8z"/>
			</g>
			<g>
				<path d="M34.8,60.2h2.1c0.2,0,0.4-0.2,0.4-0.4c0-0.2-0.2-0.4-0.4-0.4h-2.1c-0.2,0-0.4,0.2-0.4,0.4C34.4,60,34.6,60.2,34.8,60.2z
					"/>
			</g>
			<g>
				<path d="M38.2,60.2c0.2,0,0.4-0.2,0.4-0.4c0-0.2-0.2-0.4-0.4-0.4h-0.3c-0.2,0-0.4,0.2-0.4,0.4c0,0.2,0.2,0.4,0.4,0.4H38.2z"/>
			</g>
			<g>
				<path d="M39.2,60.2h2.1c0.2,0,0.4-0.2,0.4-0.4c0-0.2-0.2-0.4-0.4-0.4h-2.1c-0.2,0-0.4,0.2-0.4,0.4C38.9,60,39,60.2,39.2,60.2z"
					/>
			</g>
			<g>
				<path d="M42.6,60.2c0.2,0,0.4-0.2,0.4-0.4c0-0.2-0.2-0.4-0.4-0.4h-0.3c-0.2,0-0.4,0.2-0.4,0.4c0,0.2,0.2,0.4,0.4,0.4H42.6z"/>
			</g>
			<g>
				<path d="M43.7,60.2h2.1c0.2,0,0.4-0.2,0.4-0.4c0-0.2-0.2-0.4-0.4-0.4h-2.1c-0.2,0-0.4,0.2-0.4,0.4C43.3,60,43.5,60.2,43.7,60.2z
					"/>
			</g>
			<g>
				<path d="M47.1,60.2c0.2,0,0.4-0.2,0.4-0.4c0-0.2-0.2-0.4-0.4-0.4h-0.3c-0.2,0-0.4,0.2-0.4,0.4c0,0.2,0.2,0.4,0.4,0.4H47.1z"/>
			</g>
			<g>
				<path d="M48.1,60.2h2.1c0.2,0,0.4-0.2,0.4-0.4c0-0.2-0.2-0.4-0.4-0.4h-2.1c-0.2,0-0.4,0.2-0.4,0.4C47.8,60,47.9,60.2,48.1,60.2z
					"/>
			</g>
			<g>
				<path d="M51.5,60.2c0.2,0,0.4-0.2,0.4-0.4c0-0.2-0.2-0.4-0.4-0.4h-0.3c-0.2,0-0.4,0.2-0.4,0.4c0,0.2,0.2,0.4,0.4,0.4H51.5z"/>
			</g>
			<g>
				<path d="M52.6,60.2h2.1c0.2,0,0.4-0.2,0.4-0.4c0-0.2-0.2-0.4-0.4-0.4h-2.1c-0.2,0-0.4,0.2-0.4,0.4C52.2,60,52.4,60.2,52.6,60.2z
					"/>
			</g>
			<g>
				<path d="M56,60.2c0.2,0,0.4-0.2,0.4-0.4c0-0.2-0.2-0.4-0.4-0.4h-0.3c-0.2,0-0.4,0.2-0.4,0.4c0,0.2,0.2,0.4,0.4,0.4H56z"/>
			</g>
			<g>
				<path d="M57,60.2h2.1c0.2,0,0.4-0.2,0.4-0.4c0-0.2-0.2-0.4-0.4-0.4H57c-0.2,0-0.4,0.2-0.4,0.4C56.6,60,56.8,60.2,57,60.2z"/>
			</g>
			<g>
				<path d="M60.4,60.2c0.2,0,0.4-0.2,0.4-0.4c0-0.2-0.2-0.4-0.4-0.4h-0.3c-0.2,0-0.4,0.2-0.4,0.4c0,0.2,0.2,0.4,0.4,0.4H60.4z"/>
			</g>
			<g>
				<path d="M61.5,60.2h2.1c0.2,0,0.4-0.2,0.4-0.4c0-0.2-0.2-0.4-0.4-0.4h-2.1c-0.2,0-0.4,0.2-0.4,0.4C61.1,60,61.3,60.2,61.5,60.2z
					"/>
			</g>
			<g>
				<path d="M64.9,60.2c0.2,0,0.4-0.2,0.4-0.4c0-0.2-0.2-0.4-0.4-0.4h-0.3c-0.2,0-0.4,0.2-0.4,0.4c0,0.2,0.2,0.4,0.4,0.4H64.9z"/>
			</g>
			<g>
				<path d="M65.9,60.2H68c0.2,0,0.4-0.2,0.4-0.4c0-0.2-0.2-0.4-0.4-0.4h-2.1c-0.2,0-0.4,0.2-0.4,0.4C65.5,60,65.7,60.2,65.9,60.2z"
					/>
			</g>
			<g>
				<path d="M69.3,60.2c0.2,0,0.4-0.2,0.4-0.4c0-0.2-0.2-0.4-0.4-0.4H69c-0.2,0-0.4,0.2-0.4,0.4c0,0.2,0.2,0.4,0.4,0.4H69.3z"/>
			</g>
			<g>
				<path d="M70.4,60.2h2.1c0.2,0,0.4-0.2,0.4-0.4c0-0.2-0.2-0.4-0.4-0.4h-2.1c-0.2,0-0.4,0.2-0.4,0.4C70,60,70.2,60.2,70.4,60.2z"
					/>
			</g>
			<g>
				<path d="M73.8,60.2c0.2,0,0.4-0.2,0.4-0.4c0-0.2-0.2-0.4-0.4-0.4h-0.3c-0.2,0-0.4,0.2-0.4,0.4c0,0.2,0.2,0.4,0.4,0.4H73.8z"/>
			</g>
			<g>
				<path d="M74.8,60.2h2.1c0.2,0,0.4-0.2,0.4-0.4c0-0.2-0.2-0.4-0.4-0.4h-2.1c-0.2,0-0.4,0.2-0.4,0.4C74.4,60,74.6,60.2,74.8,60.2z
					"/>
			</g>
			<g>
				<path d="M78.2,60.2c0.2,0,0.4-0.2,0.4-0.4c0-0.2-0.2-0.4-0.4-0.4h-0.3c-0.2,0-0.4,0.2-0.4,0.4c0,0.2,0.2,0.4,0.4,0.4H78.2z"/>
			</g>
			<g>
				<path d="M79.2,60.2h2.1c0.2,0,0.4-0.2,0.4-0.4c0-0.2-0.2-0.4-0.4-0.4h-2.1c-0.2,0-0.4,0.2-0.4,0.4C78.9,60,79,60.2,79.2,60.2z"
					/>
			</g>
			<g>
				<path d="M82.7,60.2c0.2,0,0.4-0.2,0.4-0.4c0-0.2-0.2-0.4-0.4-0.4h-0.3c-0.2,0-0.4,0.2-0.4,0.4c0,0.2,0.2,0.4,0.4,0.4H82.7z"/>
			</g>
			<g>
				<path d="M83.7,60.2h2.1c0.2,0,0.4-0.2,0.4-0.4c0-0.2-0.2-0.4-0.4-0.4h-2.1c-0.2,0-0.4,0.2-0.4,0.4C83.3,60,83.5,60.2,83.7,60.2z
					"/>
			</g>
			<g>
				<path d="M87.1,60.2c0.2,0,0.4-0.2,0.4-0.4c0-0.2-0.2-0.4-0.4-0.4h-0.3c-0.2,0-0.4,0.2-0.4,0.4c0,0.2,0.2,0.4,0.4,0.4H87.1z"/>
			</g>
			<g>
				<path d="M88.1,60.2h2.1c0.2,0,0.4-0.2,0.4-0.4c0-0.2-0.2-0.4-0.4-0.4h-2.1c-0.2,0-0.4,0.2-0.4,0.4C87.8,60,87.9,60.2,88.1,60.2z
					"/>
			</g>
			<g>
				<path d="M91.5,60.2c0.2,0,0.4-0.2,0.4-0.4c0-0.2-0.2-0.4-0.4-0.4h-0.3c-0.2,0-0.4,0.2-0.4,0.4c0,0.2,0.2,0.4,0.4,0.4H91.5z"/>
			</g>
			<g>
				<path d="M92.6,60.2h2.1c0.2,0,0.4-0.2,0.4-0.4c0-0.2-0.2-0.4-0.4-0.4h-2.1c-0.2,0-0.4,0.2-0.4,0.4C92.2,60,92.4,60.2,92.6,60.2z
					"/>
			</g>
			<g>
				<path d="M96,60.2c0.2,0,0.4-0.2,0.4-0.4c0-0.2-0.2-0.4-0.4-0.4h-0.3c-0.2,0-0.4,0.2-0.4,0.4c0,0.2,0.2,0.4,0.4,0.4H96z"/>
			</g>
			<g>
				<path d="M20,61.2H22c0.2,0,0.4-0.2,0.4-0.4s-0.2-0.4-0.4-0.4H20c-0.2,0-0.4,0.2-0.4,0.4S19.8,61.2,20,61.2z"/>
			</g>
			<g>
				<path d="M23.4,61.2c0.2,0,0.4-0.2,0.4-0.4s-0.2-0.4-0.4-0.4h-0.3c-0.2,0-0.4,0.2-0.4,0.4s0.2,0.4,0.4,0.4H23.4z"/>
			</g>
			<g>
				<path d="M98,60.8c0-0.2-0.2-0.4-0.4-0.4h-2.1c-0.2,0-0.4,0.2-0.4,0.4s0.2,0.4,0.4,0.4h2.1C97.8,61.2,98,61,98,60.8z"/>
			</g>
			<g>
				<path d="M99,61.2c0.2,0,0.4-0.2,0.4-0.4s-0.2-0.4-0.4-0.4h-0.3c-0.2,0-0.4,0.2-0.4,0.4s0.2,0.4,0.4,0.4H99z"/>
			</g>
			<g>
				<path d="M24,60.8c0,0.2,0.2,0.4,0.4,0.4h2.1c0.2,0,0.4-0.2,0.4-0.4s-0.2-0.4-0.4-0.4h-2.1C24.2,60.5,24,60.6,24,60.8z"/>
			</g>
			<g>
				<path d="M27.8,61.2c0.2,0,0.4-0.2,0.4-0.4s-0.2-0.4-0.4-0.4h-0.3c-0.2,0-0.4,0.2-0.4,0.4s0.2,0.4,0.4,0.4H27.8z"/>
			</g>
			<g>
				<path d="M28.5,60.8c0,0.2,0.2,0.4,0.4,0.4h2.1c0.2,0,0.4-0.2,0.4-0.4s-0.2-0.4-0.4-0.4h-2.1C28.7,60.5,28.5,60.6,28.5,60.8z"/>
			</g>
			<g>
				<path d="M32.3,61.2c0.2,0,0.4-0.2,0.4-0.4s-0.2-0.4-0.4-0.4H32c-0.2,0-0.4,0.2-0.4,0.4s0.2,0.4,0.4,0.4H32.3z"/>
			</g>
			<g>
				<path d="M32.9,60.8c0,0.2,0.2,0.4,0.4,0.4h2.1c0.2,0,0.4-0.2,0.4-0.4s-0.2-0.4-0.4-0.4h-2.1C33.1,60.5,32.9,60.6,32.9,60.8z"/>
			</g>
			<g>
				<path d="M36.7,61.2c0.2,0,0.4-0.2,0.4-0.4s-0.2-0.4-0.4-0.4h-0.3c-0.2,0-0.4,0.2-0.4,0.4s0.2,0.4,0.4,0.4H36.7z"/>
			</g>
			<g>
				<path d="M37.4,60.8c0,0.2,0.2,0.4,0.4,0.4h2.1c0.2,0,0.4-0.2,0.4-0.4s-0.2-0.4-0.4-0.4h-2.1C37.5,60.5,37.4,60.6,37.4,60.8z"/>
			</g>
			<g>
				<path d="M41.2,61.2c0.2,0,0.4-0.2,0.4-0.4s-0.2-0.4-0.4-0.4h-0.3c-0.2,0-0.4,0.2-0.4,0.4s0.2,0.4,0.4,0.4H41.2z"/>
			</g>
			<g>
				<path d="M41.8,60.8c0,0.2,0.2,0.4,0.4,0.4h2.1c0.2,0,0.4-0.2,0.4-0.4s-0.2-0.4-0.4-0.4h-2.1C42,60.5,41.8,60.6,41.8,60.8z"/>
			</g>
			<g>
				<path d="M45.6,61.2c0.2,0,0.4-0.2,0.4-0.4s-0.2-0.4-0.4-0.4h-0.3c-0.2,0-0.4,0.2-0.4,0.4s0.2,0.4,0.4,0.4H45.6z"/>
			</g>
			<g>
				<path d="M46.3,60.8c0,0.2,0.2,0.4,0.4,0.4h2.1c0.2,0,0.4-0.2,0.4-0.4s-0.2-0.4-0.4-0.4h-2.1C46.4,60.5,46.3,60.6,46.3,60.8z"/>
			</g>
			<g>
				<path d="M50.1,61.2c0.2,0,0.4-0.2,0.4-0.4s-0.2-0.4-0.4-0.4h-0.3c-0.2,0-0.4,0.2-0.4,0.4s0.2,0.4,0.4,0.4H50.1z"/>
			</g>
			<g>
				<path d="M50.7,60.8c0,0.2,0.2,0.4,0.4,0.4h2.1c0.2,0,0.4-0.2,0.4-0.4s-0.2-0.4-0.4-0.4h-2.1C50.9,60.5,50.7,60.6,50.7,60.8z"/>
			</g>
			<g>
				<path d="M54.5,61.2c0.2,0,0.4-0.2,0.4-0.4s-0.2-0.4-0.4-0.4h-0.3c-0.2,0-0.4,0.2-0.4,0.4s0.2,0.4,0.4,0.4H54.5z"/>
			</g>
			<g>
				<path d="M55.2,60.8c0,0.2,0.2,0.4,0.4,0.4h2.1c0.2,0,0.4-0.2,0.4-0.4s-0.2-0.4-0.4-0.4h-2.1C55.3,60.5,55.2,60.6,55.2,60.8z"/>
			</g>
			<g>
				<path d="M58.9,61.2c0.2,0,0.4-0.2,0.4-0.4s-0.2-0.4-0.4-0.4h-0.3c-0.2,0-0.4,0.2-0.4,0.4s0.2,0.4,0.4,0.4H58.9z"/>
			</g>
			<g>
				<path d="M59.6,60.8c0,0.2,0.2,0.4,0.4,0.4h2.1c0.2,0,0.4-0.2,0.4-0.4s-0.2-0.4-0.4-0.4H60C59.8,60.5,59.6,60.6,59.6,60.8z"/>
			</g>
			<g>
				<path d="M63.4,61.2c0.2,0,0.4-0.2,0.4-0.4s-0.2-0.4-0.4-0.4h-0.3c-0.2,0-0.4,0.2-0.4,0.4s0.2,0.4,0.4,0.4H63.4z"/>
			</g>
			<g>
				<path d="M64.1,60.8c0,0.2,0.2,0.4,0.4,0.4h2.1c0.2,0,0.4-0.2,0.4-0.4s-0.2-0.4-0.4-0.4h-2.1C64.2,60.5,64.1,60.6,64.1,60.8z"/>
			</g>
			<g>
				<path d="M67.8,61.2c0.2,0,0.4-0.2,0.4-0.4s-0.2-0.4-0.4-0.4h-0.3c-0.2,0-0.4,0.2-0.4,0.4s0.2,0.4,0.4,0.4H67.8z"/>
			</g>
			<g>
				<path d="M68.5,60.8c0,0.2,0.2,0.4,0.4,0.4h2.1c0.2,0,0.4-0.2,0.4-0.4s-0.2-0.4-0.4-0.4h-2.1C68.7,60.5,68.5,60.6,68.5,60.8z"/>
			</g>
			<g>
				<path d="M72.3,61.2c0.2,0,0.4-0.2,0.4-0.4s-0.2-0.4-0.4-0.4H72c-0.2,0-0.4,0.2-0.4,0.4s0.2,0.4,0.4,0.4H72.3z"/>
			</g>
			<g>
				<path d="M72.9,60.8c0,0.2,0.2,0.4,0.4,0.4h2.1c0.2,0,0.4-0.2,0.4-0.4s-0.2-0.4-0.4-0.4h-2.1C73.1,60.5,72.9,60.6,72.9,60.8z"/>
			</g>
			<g>
				<path d="M76.7,61.2c0.2,0,0.4-0.2,0.4-0.4s-0.2-0.4-0.4-0.4h-0.3c-0.2,0-0.4,0.2-0.4,0.4s0.2,0.4,0.4,0.4H76.7z"/>
			</g>
			<g>
				<path d="M77.4,60.8c0,0.2,0.2,0.4,0.4,0.4h2.1c0.2,0,0.4-0.2,0.4-0.4s-0.2-0.4-0.4-0.4h-2.1C77.6,60.5,77.4,60.6,77.4,60.8z"/>
			</g>
			<g>
				<path d="M81.2,61.2c0.2,0,0.4-0.2,0.4-0.4s-0.2-0.4-0.4-0.4h-0.3c-0.2,0-0.4,0.2-0.4,0.4s0.2,0.4,0.4,0.4H81.2z"/>
			</g>
			<g>
				<path d="M81.8,60.8c0,0.2,0.2,0.4,0.4,0.4h2.1c0.2,0,0.4-0.2,0.4-0.4s-0.2-0.4-0.4-0.4h-2.1C82,60.5,81.8,60.6,81.8,60.8z"/>
			</g>
			<g>
				<path d="M85.6,61.2c0.2,0,0.4-0.2,0.4-0.4s-0.2-0.4-0.4-0.4h-0.3c-0.2,0-0.4,0.2-0.4,0.4s0.2,0.4,0.4,0.4H85.6z"/>
			</g>
			<g>
				<path d="M86.3,60.8c0,0.2,0.2,0.4,0.4,0.4h2.1c0.2,0,0.4-0.2,0.4-0.4s-0.2-0.4-0.4-0.4h-2.1C86.5,60.5,86.3,60.6,86.3,60.8z"/>
			</g>
			<g>
				<path d="M90.1,61.2c0.2,0,0.4-0.2,0.4-0.4s-0.2-0.4-0.4-0.4h-0.3c-0.2,0-0.4,0.2-0.4,0.4s0.2,0.4,0.4,0.4H90.1z"/>
			</g>
			<g>
				<path d="M90.7,60.8c0,0.2,0.2,0.4,0.4,0.4h2.1c0.2,0,0.4-0.2,0.4-0.4s-0.2-0.4-0.4-0.4h-2.1C90.9,60.5,90.7,60.6,90.7,60.8z"/>
			</g>
			<g>
				<path d="M94.5,61.2c0.2,0,0.4-0.2,0.4-0.4s-0.2-0.4-0.4-0.4h-0.3c-0.2,0-0.4,0.2-0.4,0.4s0.2,0.4,0.4,0.4H94.5z"/>
			</g>
			<g>
				<path d="M96.1,61.5h-2.1c-0.2,0-0.4,0.2-0.4,0.4s0.2,0.4,0.4,0.4h2.1c0.2,0,0.4-0.2,0.4-0.4S96.3,61.5,96.1,61.5z"/>
			</g>
			<g>
				<path d="M97.2,61.5c-0.2,0-0.4,0.2-0.4,0.4s0.2,0.4,0.4,0.4h0.3c0.2,0,0.4-0.2,0.4-0.4s-0.2-0.4-0.4-0.4H97.2z"/>
			</g>
			<g>
				<path d="M22.6,61.9c0,0.2,0.2,0.4,0.4,0.4H25c0.2,0,0.4-0.2,0.4-0.4s-0.2-0.4-0.4-0.4h-2.1C22.7,61.5,22.6,61.7,22.6,61.9z"/>
			</g>
			<g>
				<path d="M26.3,62.2c0.2,0,0.4-0.2,0.4-0.4s-0.2-0.4-0.4-0.4H26c-0.2,0-0.4,0.2-0.4,0.4s0.2,0.4,0.4,0.4H26.3z"/>
			</g>
			<g>
				<path d="M27,61.9c0,0.2,0.2,0.4,0.4,0.4h2.1c0.2,0,0.4-0.2,0.4-0.4s-0.2-0.4-0.4-0.4h-2.1C27.2,61.5,27,61.7,27,61.9z"/>
			</g>
			<g>
				<path d="M30.8,62.2c0.2,0,0.4-0.2,0.4-0.4s-0.2-0.4-0.4-0.4h-0.3c-0.2,0-0.4,0.2-0.4,0.4s0.2,0.4,0.4,0.4H30.8z"/>
			</g>
			<g>
				<path d="M31.5,61.9c0,0.2,0.2,0.4,0.4,0.4h2.1c0.2,0,0.4-0.2,0.4-0.4s-0.2-0.4-0.4-0.4h-2.1C31.6,61.5,31.5,61.7,31.5,61.9z"/>
			</g>
			<g>
				<path d="M35.2,62.2c0.2,0,0.4-0.2,0.4-0.4s-0.2-0.4-0.4-0.4h-0.3c-0.2,0-0.4,0.2-0.4,0.4s0.2,0.4,0.4,0.4H35.2z"/>
			</g>
			<g>
				<path d="M35.9,61.9c0,0.2,0.2,0.4,0.4,0.4h2.1c0.2,0,0.4-0.2,0.4-0.4s-0.2-0.4-0.4-0.4h-2.1C36.1,61.5,35.9,61.7,35.9,61.9z"/>
			</g>
			<g>
				<path d="M39.7,62.2c0.2,0,0.4-0.2,0.4-0.4s-0.2-0.4-0.4-0.4h-0.3c-0.2,0-0.4,0.2-0.4,0.4s0.2,0.4,0.4,0.4H39.7z"/>
			</g>
			<g>
				<path d="M40.3,61.9c0,0.2,0.2,0.4,0.4,0.4h2.1c0.2,0,0.4-0.2,0.4-0.4s-0.2-0.4-0.4-0.4h-2.1C40.5,61.5,40.3,61.7,40.3,61.9z"/>
			</g>
			<g>
				<path d="M44.1,62.2c0.2,0,0.4-0.2,0.4-0.4s-0.2-0.4-0.4-0.4h-0.3c-0.2,0-0.4,0.2-0.4,0.4s0.2,0.4,0.4,0.4H44.1z"/>
			</g>
			<g>
				<path d="M44.8,61.9c0,0.2,0.2,0.4,0.4,0.4h2.1c0.2,0,0.4-0.2,0.4-0.4s-0.2-0.4-0.4-0.4h-2.1C45,61.5,44.8,61.7,44.8,61.9z"/>
			</g>
			<g>
				<path d="M48.6,62.2c0.2,0,0.4-0.2,0.4-0.4s-0.2-0.4-0.4-0.4h-0.3c-0.2,0-0.4,0.2-0.4,0.4s0.2,0.4,0.4,0.4H48.6z"/>
			</g>
			<g>
				<path d="M49.2,61.9c0,0.2,0.2,0.4,0.4,0.4h2.1c0.2,0,0.4-0.2,0.4-0.4s-0.2-0.4-0.4-0.4h-2.1C49.4,61.5,49.2,61.7,49.2,61.9z"/>
			</g>
			<g>
				<path d="M53,62.2c0.2,0,0.4-0.2,0.4-0.4s-0.2-0.4-0.4-0.4h-0.3c-0.2,0-0.4,0.2-0.4,0.4s0.2,0.4,0.4,0.4H53z"/>
			</g>
			<g>
				<path d="M53.7,61.9c0,0.2,0.2,0.4,0.4,0.4h2.1c0.2,0,0.4-0.2,0.4-0.4s-0.2-0.4-0.4-0.4h-2.1C53.8,61.5,53.7,61.7,53.7,61.9z"/>
			</g>
			<g>
				<path d="M57.5,62.2c0.2,0,0.4-0.2,0.4-0.4s-0.2-0.4-0.4-0.4h-0.3c-0.2,0-0.4,0.2-0.4,0.4s0.2,0.4,0.4,0.4H57.5z"/>
			</g>
			<g>
				<path d="M58.1,61.9c0,0.2,0.2,0.4,0.4,0.4h2.1c0.2,0,0.4-0.2,0.4-0.4s-0.2-0.4-0.4-0.4h-2.1C58.3,61.5,58.1,61.7,58.1,61.9z"/>
			</g>
			<g>
				<path d="M61.9,62.2c0.2,0,0.4-0.2,0.4-0.4s-0.2-0.4-0.4-0.4h-0.3c-0.2,0-0.4,0.2-0.4,0.4s0.2,0.4,0.4,0.4H61.9z"/>
			</g>
			<g>
				<path d="M62.6,61.9c0,0.2,0.2,0.4,0.4,0.4H65c0.2,0,0.4-0.2,0.4-0.4s-0.2-0.4-0.4-0.4h-2.1C62.7,61.5,62.6,61.7,62.6,61.9z"/>
			</g>
			<g>
				<path d="M66.4,62.2c0.2,0,0.4-0.2,0.4-0.4s-0.2-0.4-0.4-0.4h-0.3c-0.2,0-0.4,0.2-0.4,0.4s0.2,0.4,0.4,0.4H66.4z"/>
			</g>
			<g>
				<path d="M67,61.9c0,0.2,0.2,0.4,0.4,0.4h2.1c0.2,0,0.4-0.2,0.4-0.4s-0.2-0.4-0.4-0.4h-2.1C67.2,61.5,67,61.7,67,61.9z"/>
			</g>
			<g>
				<path d="M70.8,62.2c0.2,0,0.4-0.2,0.4-0.4s-0.2-0.4-0.4-0.4h-0.3c-0.2,0-0.4,0.2-0.4,0.4s0.2,0.4,0.4,0.4H70.8z"/>
			</g>
			<g>
				<path d="M71.5,61.9c0,0.2,0.2,0.4,0.4,0.4h2.1c0.2,0,0.4-0.2,0.4-0.4s-0.2-0.4-0.4-0.4h-2.1C71.6,61.5,71.5,61.7,71.5,61.9z"/>
			</g>
			<g>
				<path d="M75.2,62.2c0.2,0,0.4-0.2,0.4-0.4s-0.2-0.4-0.4-0.4h-0.3c-0.2,0-0.4,0.2-0.4,0.4s0.2,0.4,0.4,0.4H75.2z"/>
			</g>
			<g>
				<path d="M75.9,61.9c0,0.2,0.2,0.4,0.4,0.4h2.1c0.2,0,0.4-0.2,0.4-0.4s-0.2-0.4-0.4-0.4h-2.1C76.1,61.5,75.9,61.7,75.9,61.9z"/>
			</g>
			<g>
				<path d="M79.7,62.2c0.2,0,0.4-0.2,0.4-0.4s-0.2-0.4-0.4-0.4h-0.3c-0.2,0-0.4,0.2-0.4,0.4s0.2,0.4,0.4,0.4H79.7z"/>
			</g>
			<g>
				<path d="M80.4,61.9c0,0.2,0.2,0.4,0.4,0.4h2.1c0.2,0,0.4-0.2,0.4-0.4s-0.2-0.4-0.4-0.4h-2.1C80.5,61.5,80.4,61.7,80.4,61.9z"/>
			</g>
			<g>
				<path d="M84.1,62.2c0.2,0,0.4-0.2,0.4-0.4s-0.2-0.4-0.4-0.4h-0.3c-0.2,0-0.4,0.2-0.4,0.4s0.2,0.4,0.4,0.4H84.1z"/>
			</g>
			<g>
				<path d="M84.8,61.9c0,0.2,0.2,0.4,0.4,0.4h2.1c0.2,0,0.4-0.2,0.4-0.4s-0.2-0.4-0.4-0.4h-2.1C85,61.5,84.8,61.7,84.8,61.9z"/>
			</g>
			<g>
				<path d="M88.6,62.2c0.2,0,0.4-0.2,0.4-0.4s-0.2-0.4-0.4-0.4h-0.3c-0.2,0-0.4,0.2-0.4,0.4s0.2,0.4,0.4,0.4H88.6z"/>
			</g>
			<g>
				<path d="M89.3,61.9c0,0.2,0.2,0.4,0.4,0.4h2.1c0.2,0,0.4-0.2,0.4-0.4s-0.2-0.4-0.4-0.4h-2.1C89.4,61.5,89.3,61.7,89.3,61.9z"/>
			</g>
			<g>
				<path d="M93,62.2c0.2,0,0.4-0.2,0.4-0.4s-0.2-0.4-0.4-0.4h-0.3c-0.2,0-0.4,0.2-0.4,0.4s0.2,0.4,0.4,0.4H93z"/>
			</g>
			<g>
				<path d="M21.1,62.9c0,0.2,0.2,0.4,0.4,0.4h2.1c0.2,0,0.4-0.2,0.4-0.4s-0.2-0.4-0.4-0.4h-2.1C21.2,62.5,21.1,62.7,21.1,62.9z"/>
			</g>
			<g>
				<path d="M24.9,63.3c0.2,0,0.4-0.2,0.4-0.4s-0.2-0.4-0.4-0.4h-0.3c-0.2,0-0.4,0.2-0.4,0.4s0.2,0.4,0.4,0.4H24.9z"/>
			</g>
			<g>
				<path d="M99.1,62.5H97c-0.2,0-0.4,0.2-0.4,0.4s0.2,0.4,0.4,0.4h2.1c0.2,0,0.4-0.2,0.4-0.4S99.3,62.5,99.1,62.5z"/>
			</g>
			<g>
				<path d="M100.4,62.5h-0.3c-0.2,0-0.4,0.2-0.4,0.4s0.2,0.4,0.4,0.4h0.3c0.2,0,0.4-0.2,0.4-0.4S100.6,62.5,100.4,62.5z"/>
			</g>
			<g>
				<path d="M25.5,62.9c0,0.2,0.2,0.4,0.4,0.4H28c0.2,0,0.4-0.2,0.4-0.4s-0.2-0.4-0.4-0.4h-2.1C25.7,62.5,25.5,62.7,25.5,62.9z"/>
			</g>
			<g>
				<path d="M29.3,63.3c0.2,0,0.4-0.2,0.4-0.4s-0.2-0.4-0.4-0.4H29c-0.2,0-0.4,0.2-0.4,0.4s0.2,0.4,0.4,0.4H29.3z"/>
			</g>
			<g>
				<path d="M30,62.9c0,0.2,0.2,0.4,0.4,0.4h2.1c0.2,0,0.4-0.2,0.4-0.4s-0.2-0.4-0.4-0.4h-2.1C30.1,62.5,30,62.7,30,62.9z"/>
			</g>
			<g>
				<path d="M33.8,63.3c0.2,0,0.4-0.2,0.4-0.4s-0.2-0.4-0.4-0.4h-0.3c-0.2,0-0.4,0.2-0.4,0.4s0.2,0.4,0.4,0.4H33.8z"/>
			</g>
			<g>
				<path d="M34.4,62.9c0,0.2,0.2,0.4,0.4,0.4h2.1c0.2,0,0.4-0.2,0.4-0.4s-0.2-0.4-0.4-0.4h-2.1C34.6,62.5,34.4,62.7,34.4,62.9z"/>
			</g>
			<g>
				<path d="M38.2,63.3c0.2,0,0.4-0.2,0.4-0.4s-0.2-0.4-0.4-0.4h-0.3c-0.2,0-0.4,0.2-0.4,0.4s0.2,0.4,0.4,0.4H38.2z"/>
			</g>
			<g>
				<path d="M38.9,62.9c0,0.2,0.2,0.4,0.4,0.4h2.1c0.2,0,0.4-0.2,0.4-0.4s-0.2-0.4-0.4-0.4h-2.1C39,62.5,38.9,62.7,38.9,62.9z"/>
			</g>
			<g>
				<path d="M42.6,63.3c0.2,0,0.4-0.2,0.4-0.4s-0.2-0.4-0.4-0.4h-0.3c-0.2,0-0.4,0.2-0.4,0.4s0.2,0.4,0.4,0.4H42.6z"/>
			</g>
			<g>
				<path d="M43.3,62.9c0,0.2,0.2,0.4,0.4,0.4h2.1c0.2,0,0.4-0.2,0.4-0.4s-0.2-0.4-0.4-0.4h-2.1C43.5,62.5,43.3,62.7,43.3,62.9z"/>
			</g>
			<g>
				<path d="M47.1,63.3c0.2,0,0.4-0.2,0.4-0.4s-0.2-0.4-0.4-0.4h-0.3c-0.2,0-0.4,0.2-0.4,0.4s0.2,0.4,0.4,0.4H47.1z"/>
			</g>
			<g>
				<path d="M47.8,62.9c0,0.2,0.2,0.4,0.4,0.4h2.1c0.2,0,0.4-0.2,0.4-0.4s-0.2-0.4-0.4-0.4h-2.1C47.9,62.5,47.8,62.7,47.8,62.9z"/>
			</g>
			<g>
				<path d="M51.5,63.3c0.2,0,0.4-0.2,0.4-0.4s-0.2-0.4-0.4-0.4h-0.3c-0.2,0-0.4,0.2-0.4,0.4s0.2,0.4,0.4,0.4H51.5z"/>
			</g>
			<g>
				<path d="M52.2,62.9c0,0.2,0.2,0.4,0.4,0.4h2.1c0.2,0,0.4-0.2,0.4-0.4s-0.2-0.4-0.4-0.4h-2.1C52.4,62.5,52.2,62.7,52.2,62.9z"/>
			</g>
			<g>
				<path d="M56,63.3c0.2,0,0.4-0.2,0.4-0.4s-0.2-0.4-0.4-0.4h-0.3c-0.2,0-0.4,0.2-0.4,0.4s0.2,0.4,0.4,0.4H56z"/>
			</g>
			<g>
				<path d="M56.6,62.9c0,0.2,0.2,0.4,0.4,0.4h2.1c0.2,0,0.4-0.2,0.4-0.4s-0.2-0.4-0.4-0.4H57C56.8,62.5,56.6,62.7,56.6,62.9z"/>
			</g>
			<g>
				<path d="M60.4,63.3c0.2,0,0.4-0.2,0.4-0.4s-0.2-0.4-0.4-0.4h-0.3c-0.2,0-0.4,0.2-0.4,0.4s0.2,0.4,0.4,0.4H60.4z"/>
			</g>
			<g>
				<path d="M61.1,62.9c0,0.2,0.2,0.4,0.4,0.4h2.1c0.2,0,0.4-0.2,0.4-0.4s-0.2-0.4-0.4-0.4h-2.1C61.3,62.5,61.1,62.7,61.1,62.9z"/>
			</g>
			<g>
				<path d="M64.9,63.3c0.2,0,0.4-0.2,0.4-0.4s-0.2-0.4-0.4-0.4h-0.3c-0.2,0-0.4,0.2-0.4,0.4s0.2,0.4,0.4,0.4H64.9z"/>
			</g>
			<g>
				<path d="M65.5,62.9c0,0.2,0.2,0.4,0.4,0.4H68c0.2,0,0.4-0.2,0.4-0.4s-0.2-0.4-0.4-0.4h-2.1C65.7,62.5,65.5,62.7,65.5,62.9z"/>
			</g>
			<g>
				<path d="M69.3,63.3c0.2,0,0.4-0.2,0.4-0.4s-0.2-0.4-0.4-0.4H69c-0.2,0-0.4,0.2-0.4,0.4s0.2,0.4,0.4,0.4H69.3z"/>
			</g>
			<g>
				<path d="M70,62.9c0,0.2,0.2,0.4,0.4,0.4h2.1c0.2,0,0.4-0.2,0.4-0.4s-0.2-0.4-0.4-0.4h-2.1C70.2,62.5,70,62.7,70,62.9z"/>
			</g>
			<g>
				<path d="M73.8,63.3c0.2,0,0.4-0.2,0.4-0.4s-0.2-0.4-0.4-0.4h-0.3c-0.2,0-0.4,0.2-0.4,0.4s0.2,0.4,0.4,0.4H73.8z"/>
			</g>
			<g>
				<path d="M74.4,62.9c0,0.2,0.2,0.4,0.4,0.4h2.1c0.2,0,0.4-0.2,0.4-0.4s-0.2-0.4-0.4-0.4h-2.1C74.6,62.5,74.4,62.7,74.4,62.9z"/>
			</g>
			<g>
				<path d="M78.2,63.3c0.2,0,0.4-0.2,0.4-0.4s-0.2-0.4-0.4-0.4h-0.3c-0.2,0-0.4,0.2-0.4,0.4s0.2,0.4,0.4,0.4H78.2z"/>
			</g>
			<g>
				<path d="M78.9,62.9c0,0.2,0.2,0.4,0.4,0.4h2.1c0.2,0,0.4-0.2,0.4-0.4s-0.2-0.4-0.4-0.4h-2.1C79,62.5,78.9,62.7,78.9,62.9z"/>
			</g>
			<g>
				<path d="M82.7,63.3c0.2,0,0.4-0.2,0.4-0.4s-0.2-0.4-0.4-0.4h-0.3c-0.2,0-0.4,0.2-0.4,0.4s0.2,0.4,0.4,0.4H82.7z"/>
			</g>
			<g>
				<path d="M83.3,62.9c0,0.2,0.2,0.4,0.4,0.4h2.1c0.2,0,0.4-0.2,0.4-0.4s-0.2-0.4-0.4-0.4h-2.1C83.5,62.5,83.3,62.7,83.3,62.9z"/>
			</g>
			<g>
				<path d="M87.1,63.3c0.2,0,0.4-0.2,0.4-0.4s-0.2-0.4-0.4-0.4h-0.3c-0.2,0-0.4,0.2-0.4,0.4s0.2,0.4,0.4,0.4H87.1z"/>
			</g>
			<g>
				<path d="M87.8,62.9c0,0.2,0.2,0.4,0.4,0.4h2.1c0.2,0,0.4-0.2,0.4-0.4s-0.2-0.4-0.4-0.4h-2.1C87.9,62.5,87.8,62.7,87.8,62.9z"/>
			</g>
			<g>
				<path d="M91.5,63.3c0.2,0,0.4-0.2,0.4-0.4s-0.2-0.4-0.4-0.4h-0.3c-0.2,0-0.4,0.2-0.4,0.4s0.2,0.4,0.4,0.4H91.5z"/>
			</g>
			<g>
				<path d="M95,62.9c0-0.2-0.2-0.4-0.4-0.4h-2.1c-0.2,0-0.4,0.2-0.4,0.4s0.2,0.4,0.4,0.4h2.1C94.9,63.3,95,63.1,95,62.9z"/>
			</g>
			<g>
				<path d="M96,63.3c0.2,0,0.4-0.2,0.4-0.4s-0.2-0.4-0.4-0.4h-0.3c-0.2,0-0.4,0.2-0.4,0.4s0.2,0.4,0.4,0.4H96z"/>
			</g>
			<g>
				<path d="M20,64.3H22c0.2,0,0.4-0.2,0.4-0.4s-0.2-0.4-0.4-0.4H20c-0.2,0-0.4,0.2-0.4,0.4S19.8,64.3,20,64.3z"/>
			</g>
			<g>
				<path d="M23.1,63.6c-0.2,0-0.4,0.2-0.4,0.4s0.2,0.4,0.4,0.4h0.3c0.2,0,0.4-0.2,0.4-0.4s-0.2-0.4-0.4-0.4H23.1z"/>
			</g>
			<g>
				<path d="M98,63.9c0-0.2-0.2-0.4-0.4-0.4h-2.1c-0.2,0-0.4,0.2-0.4,0.4s0.2,0.4,0.4,0.4h2.1C97.8,64.3,98,64.1,98,63.9z"/>
			</g>
			<g>
				<path d="M99,64.3c0.2,0,0.4-0.2,0.4-0.4s-0.2-0.4-0.4-0.4h-0.3c-0.2,0-0.4,0.2-0.4,0.4s0.2,0.4,0.4,0.4H99z"/>
			</g>
			<g>
				<path d="M24,63.9c0,0.2,0.2,0.4,0.4,0.4h2.1c0.2,0,0.4-0.2,0.4-0.4s-0.2-0.4-0.4-0.4h-2.1C24.2,63.6,24,63.7,24,63.9z"/>
			</g>
			<g>
				<path d="M27.8,64.3c0.2,0,0.4-0.2,0.4-0.4s-0.2-0.4-0.4-0.4h-0.3c-0.2,0-0.4,0.2-0.4,0.4s0.2,0.4,0.4,0.4H27.8z"/>
			</g>
			<g>
				<path d="M28.5,63.9c0,0.2,0.2,0.4,0.4,0.4h2.1c0.2,0,0.4-0.2,0.4-0.4s-0.2-0.4-0.4-0.4h-2.1C28.7,63.6,28.5,63.7,28.5,63.9z"/>
			</g>
			<g>
				<path d="M32.3,64.3c0.2,0,0.4-0.2,0.4-0.4s-0.2-0.4-0.4-0.4H32c-0.2,0-0.4,0.2-0.4,0.4s0.2,0.4,0.4,0.4H32.3z"/>
			</g>
			<g>
				<path d="M32.9,63.9c0,0.2,0.2,0.4,0.4,0.4h2.1c0.2,0,0.4-0.2,0.4-0.4s-0.2-0.4-0.4-0.4h-2.1C33.1,63.6,32.9,63.7,32.9,63.9z"/>
			</g>
			<g>
				<path d="M36.7,64.3c0.2,0,0.4-0.2,0.4-0.4s-0.2-0.4-0.4-0.4h-0.3c-0.2,0-0.4,0.2-0.4,0.4s0.2,0.4,0.4,0.4H36.7z"/>
			</g>
			<g>
				<path d="M37.4,63.9c0,0.2,0.2,0.4,0.4,0.4h2.1c0.2,0,0.4-0.2,0.4-0.4s-0.2-0.4-0.4-0.4h-2.1C37.5,63.6,37.4,63.7,37.4,63.9z"/>
			</g>
			<g>
				<path d="M41.2,64.3c0.2,0,0.4-0.2,0.4-0.4s-0.2-0.4-0.4-0.4h-0.3c-0.2,0-0.4,0.2-0.4,0.4s0.2,0.4,0.4,0.4H41.2z"/>
			</g>
			<g>
				<path d="M41.8,63.9c0,0.2,0.2,0.4,0.4,0.4h2.1c0.2,0,0.4-0.2,0.4-0.4s-0.2-0.4-0.4-0.4h-2.1C42,63.6,41.8,63.7,41.8,63.9z"/>
			</g>
			<g>
				<path d="M45.6,64.3c0.2,0,0.4-0.2,0.4-0.4s-0.2-0.4-0.4-0.4h-0.3c-0.2,0-0.4,0.2-0.4,0.4s0.2,0.4,0.4,0.4H45.6z"/>
			</g>
			<g>
				<path d="M46.3,63.9c0,0.2,0.2,0.4,0.4,0.4h2.1c0.2,0,0.4-0.2,0.4-0.4s-0.2-0.4-0.4-0.4h-2.1C46.4,63.6,46.3,63.7,46.3,63.9z"/>
			</g>
			<g>
				<path d="M50.1,64.3c0.2,0,0.4-0.2,0.4-0.4s-0.2-0.4-0.4-0.4h-0.3c-0.2,0-0.4,0.2-0.4,0.4s0.2,0.4,0.4,0.4H50.1z"/>
			</g>
			<g>
				<path d="M50.7,63.9c0,0.2,0.2,0.4,0.4,0.4h2.1c0.2,0,0.4-0.2,0.4-0.4s-0.2-0.4-0.4-0.4h-2.1C50.9,63.6,50.7,63.7,50.7,63.9z"/>
			</g>
			<g>
				<path d="M54.5,64.3c0.2,0,0.4-0.2,0.4-0.4s-0.2-0.4-0.4-0.4h-0.3c-0.2,0-0.4,0.2-0.4,0.4s0.2,0.4,0.4,0.4H54.5z"/>
			</g>
			<g>
				<path d="M55.2,63.9c0,0.2,0.2,0.4,0.4,0.4h2.1c0.2,0,0.4-0.2,0.4-0.4s-0.2-0.4-0.4-0.4h-2.1C55.3,63.6,55.2,63.7,55.2,63.9z"/>
			</g>
			<g>
				<path d="M58.9,64.3c0.2,0,0.4-0.2,0.4-0.4s-0.2-0.4-0.4-0.4h-0.3c-0.2,0-0.4,0.2-0.4,0.4s0.2,0.4,0.4,0.4H58.9z"/>
			</g>
			<g>
				<path d="M59.6,63.9c0,0.2,0.2,0.4,0.4,0.4h2.1c0.2,0,0.4-0.2,0.4-0.4s-0.2-0.4-0.4-0.4H60C59.8,63.6,59.6,63.7,59.6,63.9z"/>
			</g>
			<g>
				<path d="M63.4,64.3c0.2,0,0.4-0.2,0.4-0.4s-0.2-0.4-0.4-0.4h-0.3c-0.2,0-0.4,0.2-0.4,0.4s0.2,0.4,0.4,0.4H63.4z"/>
			</g>
			<g>
				<path d="M64.1,63.9c0,0.2,0.2,0.4,0.4,0.4h2.1c0.2,0,0.4-0.2,0.4-0.4s-0.2-0.4-0.4-0.4h-2.1C64.2,63.6,64.1,63.7,64.1,63.9z"/>
			</g>
			<g>
				<path d="M67.8,64.3c0.2,0,0.4-0.2,0.4-0.4s-0.2-0.4-0.4-0.4h-0.3c-0.2,0-0.4,0.2-0.4,0.4s0.2,0.4,0.4,0.4H67.8z"/>
			</g>
			<g>
				<path d="M68.5,63.9c0,0.2,0.2,0.4,0.4,0.4h2.1c0.2,0,0.4-0.2,0.4-0.4s-0.2-0.4-0.4-0.4h-2.1C68.7,63.6,68.5,63.7,68.5,63.9z"/>
			</g>
			<g>
				<path d="M72.3,64.3c0.2,0,0.4-0.2,0.4-0.4s-0.2-0.4-0.4-0.4H72c-0.2,0-0.4,0.2-0.4,0.4s0.2,0.4,0.4,0.4H72.3z"/>
			</g>
			<g>
				<path d="M72.9,63.9c0,0.2,0.2,0.4,0.4,0.4h2.1c0.2,0,0.4-0.2,0.4-0.4s-0.2-0.4-0.4-0.4h-2.1C73.1,63.6,72.9,63.7,72.9,63.9z"/>
			</g>
			<g>
				<path d="M76.7,64.3c0.2,0,0.4-0.2,0.4-0.4s-0.2-0.4-0.4-0.4h-0.3c-0.2,0-0.4,0.2-0.4,0.4s0.2,0.4,0.4,0.4H76.7z"/>
			</g>
			<g>
				<path d="M77.4,63.9c0,0.2,0.2,0.4,0.4,0.4h2.1c0.2,0,0.4-0.2,0.4-0.4s-0.2-0.4-0.4-0.4h-2.1C77.6,63.6,77.4,63.7,77.4,63.9z"/>
			</g>
			<g>
				<path d="M81.2,64.3c0.2,0,0.4-0.2,0.4-0.4s-0.2-0.4-0.4-0.4h-0.3c-0.2,0-0.4,0.2-0.4,0.4s0.2,0.4,0.4,0.4H81.2z"/>
			</g>
			<g>
				<path d="M81.8,63.9c0,0.2,0.2,0.4,0.4,0.4h2.1c0.2,0,0.4-0.2,0.4-0.4s-0.2-0.4-0.4-0.4h-2.1C82,63.6,81.8,63.7,81.8,63.9z"/>
			</g>
			<g>
				<path d="M85.6,64.3c0.2,0,0.4-0.2,0.4-0.4s-0.2-0.4-0.4-0.4h-0.3c-0.2,0-0.4,0.2-0.4,0.4s0.2,0.4,0.4,0.4H85.6z"/>
			</g>
			<g>
				<path d="M86.3,63.9c0,0.2,0.2,0.4,0.4,0.4h2.1c0.2,0,0.4-0.2,0.4-0.4s-0.2-0.4-0.4-0.4h-2.1C86.5,63.6,86.3,63.7,86.3,63.9z"/>
			</g>
			<g>
				<path d="M90.1,64.3c0.2,0,0.4-0.2,0.4-0.4s-0.2-0.4-0.4-0.4h-0.3c-0.2,0-0.4,0.2-0.4,0.4s0.2,0.4,0.4,0.4H90.1z"/>
			</g>
			<g>
				<path d="M93.2,63.6h-2.1c-0.2,0-0.4,0.2-0.4,0.4s0.2,0.4,0.4,0.4h2.1c0.2,0,0.4-0.2,0.4-0.4S93.4,63.6,93.2,63.6z"/>
			</g>
			<g>
				<path d="M94.2,63.6c-0.2,0-0.4,0.2-0.4,0.4s0.2,0.4,0.4,0.4h0.3c0.2,0,0.4-0.2,0.4-0.4s-0.2-0.4-0.4-0.4H94.2z"/>
			</g>
			<g>
				<path d="M96.1,64.6h-2.1c-0.2,0-0.4,0.2-0.4,0.4s0.2,0.4,0.4,0.4h2.1c0.2,0,0.4-0.2,0.4-0.4S96.3,64.6,96.1,64.6z"/>
			</g>
			<g>
				<path d="M97.2,64.6c-0.2,0-0.4,0.2-0.4,0.4s0.2,0.4,0.4,0.4h0.3c0.2,0,0.4-0.2,0.4-0.4s-0.2-0.4-0.4-0.4H97.2z"/>
			</g>
			<g>
				<path d="M22.9,65.3H25c0.2,0,0.4-0.2,0.4-0.4s-0.2-0.4-0.4-0.4h-2.1c-0.2,0-0.4,0.2-0.4,0.4S22.7,65.3,22.9,65.3z"/>
			</g>
			<g>
				<path d="M26,64.6c-0.2,0-0.4,0.2-0.4,0.4s0.2,0.4,0.4,0.4h0.3c0.2,0,0.4-0.2,0.4-0.4s-0.2-0.4-0.4-0.4H26z"/>
			</g>
			<g>
				<path d="M27,65c0,0.2,0.2,0.4,0.4,0.4h2.1c0.2,0,0.4-0.2,0.4-0.4s-0.2-0.4-0.4-0.4h-2.1C27.2,64.6,27,64.8,27,65z"/>
			</g>
			<g>
				<path d="M30.5,64.6c-0.2,0-0.4,0.2-0.4,0.4s0.2,0.4,0.4,0.4h0.3c0.2,0,0.4-0.2,0.4-0.4s-0.2-0.4-0.4-0.4H30.5z"/>
			</g>
			<g>
				<path d="M31.5,65c0,0.2,0.2,0.4,0.4,0.4h2.1c0.2,0,0.4-0.2,0.4-0.4s-0.2-0.4-0.4-0.4h-2.1C31.6,64.6,31.5,64.8,31.5,65z"/>
			</g>
			<g>
				<path d="M34.9,64.6c-0.2,0-0.4,0.2-0.4,0.4s0.2,0.4,0.4,0.4h0.3c0.2,0,0.4-0.2,0.4-0.4s-0.2-0.4-0.4-0.4H34.9z"/>
			</g>
			<g>
				<path d="M35.9,65c0,0.2,0.2,0.4,0.4,0.4h2.1c0.2,0,0.4-0.2,0.4-0.4s-0.2-0.4-0.4-0.4h-2.1C36.1,64.6,35.9,64.8,35.9,65z"/>
			</g>
			<g>
				<path d="M39.4,64.6c-0.2,0-0.4,0.2-0.4,0.4s0.2,0.4,0.4,0.4h0.3c0.2,0,0.4-0.2,0.4-0.4s-0.2-0.4-0.4-0.4H39.4z"/>
			</g>
			<g>
				<path d="M40.3,65c0,0.2,0.2,0.4,0.4,0.4h2.1c0.2,0,0.4-0.2,0.4-0.4s-0.2-0.4-0.4-0.4h-2.1C40.5,64.6,40.3,64.8,40.3,65z"/>
			</g>
			<g>
				<path d="M43.8,64.6c-0.2,0-0.4,0.2-0.4,0.4s0.2,0.4,0.4,0.4h0.3c0.2,0,0.4-0.2,0.4-0.4s-0.2-0.4-0.4-0.4H43.8z"/>
			</g>
			<g>
				<path d="M44.8,65c0,0.2,0.2,0.4,0.4,0.4h2.1c0.2,0,0.4-0.2,0.4-0.4s-0.2-0.4-0.4-0.4h-2.1C45,64.6,44.8,64.8,44.8,65z"/>
			</g>
			<g>
				<path d="M48.3,64.6c-0.2,0-0.4,0.2-0.4,0.4s0.2,0.4,0.4,0.4h0.3c0.2,0,0.4-0.2,0.4-0.4s-0.2-0.4-0.4-0.4H48.3z"/>
			</g>
			<g>
				<path d="M49.2,65c0,0.2,0.2,0.4,0.4,0.4h2.1c0.2,0,0.4-0.2,0.4-0.4s-0.2-0.4-0.4-0.4h-2.1C49.4,64.6,49.2,64.8,49.2,65z"/>
			</g>
			<g>
				<path d="M52.7,64.6c-0.2,0-0.4,0.2-0.4,0.4s0.2,0.4,0.4,0.4H53c0.2,0,0.4-0.2,0.4-0.4s-0.2-0.4-0.4-0.4H52.7z"/>
			</g>
			<g>
				<path d="M53.7,65c0,0.2,0.2,0.4,0.4,0.4h2.1c0.2,0,0.4-0.2,0.4-0.4s-0.2-0.4-0.4-0.4h-2.1C53.8,64.6,53.7,64.8,53.7,65z"/>
			</g>
			<g>
				<path d="M57.2,64.6c-0.2,0-0.4,0.2-0.4,0.4s0.2,0.4,0.4,0.4h0.3c0.2,0,0.4-0.2,0.4-0.4s-0.2-0.4-0.4-0.4H57.2z"/>
			</g>
			<g>
				<path d="M58.1,65c0,0.2,0.2,0.4,0.4,0.4h2.1c0.2,0,0.4-0.2,0.4-0.4s-0.2-0.4-0.4-0.4h-2.1C58.3,64.6,58.1,64.8,58.1,65z"/>
			</g>
			<g>
				<path d="M61.6,64.6c-0.2,0-0.4,0.2-0.4,0.4s0.2,0.4,0.4,0.4h0.3c0.2,0,0.4-0.2,0.4-0.4s-0.2-0.4-0.4-0.4H61.6z"/>
			</g>
			<g>
				<path d="M62.6,65c0,0.2,0.2,0.4,0.4,0.4H65c0.2,0,0.4-0.2,0.4-0.4s-0.2-0.4-0.4-0.4h-2.1C62.7,64.6,62.6,64.8,62.6,65z"/>
			</g>
			<g>
				<path d="M66.1,64.6c-0.2,0-0.4,0.2-0.4,0.4s0.2,0.4,0.4,0.4h0.3c0.2,0,0.4-0.2,0.4-0.4s-0.2-0.4-0.4-0.4H66.1z"/>
			</g>
			<g>
				<path d="M67,65c0,0.2,0.2,0.4,0.4,0.4h2.1c0.2,0,0.4-0.2,0.4-0.4s-0.2-0.4-0.4-0.4h-2.1C67.2,64.6,67,64.8,67,65z"/>
			</g>
			<g>
				<path d="M70.5,64.6c-0.2,0-0.4,0.2-0.4,0.4s0.2,0.4,0.4,0.4h0.3c0.2,0,0.4-0.2,0.4-0.4s-0.2-0.4-0.4-0.4H70.5z"/>
			</g>
			<g>
				<path d="M71.5,65c0,0.2,0.2,0.4,0.4,0.4h2.1c0.2,0,0.4-0.2,0.4-0.4s-0.2-0.4-0.4-0.4h-2.1C71.6,64.6,71.5,64.8,71.5,65z"/>
			</g>
			<g>
				<path d="M74.9,64.6c-0.2,0-0.4,0.2-0.4,0.4s0.2,0.4,0.4,0.4h0.3c0.2,0,0.4-0.2,0.4-0.4s-0.2-0.4-0.4-0.4H74.9z"/>
			</g>
			<g>
				<path d="M75.9,65c0,0.2,0.2,0.4,0.4,0.4h2.1c0.2,0,0.4-0.2,0.4-0.4s-0.2-0.4-0.4-0.4h-2.1C76.1,64.6,75.9,64.8,75.9,65z"/>
			</g>
			<g>
				<path d="M79.4,64.6c-0.2,0-0.4,0.2-0.4,0.4s0.2,0.4,0.4,0.4h0.3c0.2,0,0.4-0.2,0.4-0.4s-0.2-0.4-0.4-0.4H79.4z"/>
			</g>
			<g>
				<path d="M80.4,65c0,0.2,0.2,0.4,0.4,0.4h2.1c0.2,0,0.4-0.2,0.4-0.4s-0.2-0.4-0.4-0.4h-2.1C80.5,64.6,80.4,64.8,80.4,65z"/>
			</g>
			<g>
				<path d="M83.8,64.6c-0.2,0-0.4,0.2-0.4,0.4s0.2,0.4,0.4,0.4h0.3c0.2,0,0.4-0.2,0.4-0.4s-0.2-0.4-0.4-0.4H83.8z"/>
			</g>
			<g>
				<path d="M84.8,65c0,0.2,0.2,0.4,0.4,0.4h2.1c0.2,0,0.4-0.2,0.4-0.4s-0.2-0.4-0.4-0.4h-2.1C85,64.6,84.8,64.8,84.8,65z"/>
			</g>
			<g>
				<path d="M88.3,64.6c-0.2,0-0.4,0.2-0.4,0.4s0.2,0.4,0.4,0.4h0.3c0.2,0,0.4-0.2,0.4-0.4s-0.2-0.4-0.4-0.4H88.3z"/>
			</g>
			<g>
				<path d="M89.3,65c0,0.2,0.2,0.4,0.4,0.4h2.1c0.2,0,0.4-0.2,0.4-0.4s-0.2-0.4-0.4-0.4h-2.1C89.4,64.6,89.3,64.8,89.3,65z"/>
			</g>
			<g>
				<path d="M93,65.3c0.2,0,0.4-0.2,0.4-0.4s-0.2-0.4-0.4-0.4h-0.3c-0.2,0-0.4,0.2-0.4,0.4s0.2,0.4,0.4,0.4H93z"/>
			</g>
			<g>
				<path d="M21.1,66c0,0.2,0.2,0.4,0.4,0.4h2.1c0.2,0,0.4-0.2,0.4-0.4s-0.2-0.4-0.4-0.4h-2.1C21.2,65.6,21.1,65.8,21.1,66z"/>
			</g>
			<g>
				<path d="M24.9,66.4c0.2,0,0.4-0.2,0.4-0.4s-0.2-0.4-0.4-0.4h-0.3c-0.2,0-0.4,0.2-0.4,0.4s0.2,0.4,0.4,0.4H24.9z"/>
			</g>
			<g>
				<path d="M99.1,65.6H97c-0.2,0-0.4,0.2-0.4,0.4s0.2,0.4,0.4,0.4h2.1c0.2,0,0.4-0.2,0.4-0.4S99.3,65.6,99.1,65.6z"/>
			</g>
			<g>
				<path d="M100.4,65.6h-0.3c-0.2,0-0.4,0.2-0.4,0.4s0.2,0.4,0.4,0.4h0.3c0.2,0,0.4-0.2,0.4-0.4S100.6,65.6,100.4,65.6z"/>
			</g>
			<g>
				<path d="M28.3,66c0-0.2-0.2-0.4-0.4-0.4h-2.1c-0.2,0-0.4,0.2-0.4,0.4s0.2,0.4,0.4,0.4H28C28.2,66.4,28.3,66.2,28.3,66z"/>
			</g>
			<g>
				<path d="M29,65.6c-0.2,0-0.4,0.2-0.4,0.4s0.2,0.4,0.4,0.4h0.3c0.2,0,0.4-0.2,0.4-0.4s-0.2-0.4-0.4-0.4H29z"/>
			</g>
			<g>
				<path d="M32.8,66c0-0.2-0.2-0.4-0.4-0.4h-2.1c-0.2,0-0.4,0.2-0.4,0.4s0.2,0.4,0.4,0.4h2.1C32.6,66.4,32.8,66.2,32.8,66z"/>
			</g>
			<g>
				<path d="M33.5,65.6c-0.2,0-0.4,0.2-0.4,0.4s0.2,0.4,0.4,0.4h0.3c0.2,0,0.4-0.2,0.4-0.4s-0.2-0.4-0.4-0.4H33.5z"/>
			</g>
			<g>
				<path d="M37.2,66c0-0.2-0.2-0.4-0.4-0.4h-2.1c-0.2,0-0.4,0.2-0.4,0.4s0.2,0.4,0.4,0.4h2.1C37.1,66.4,37.2,66.2,37.2,66z"/>
			</g>
			<g>
				<path d="M37.9,65.6c-0.2,0-0.4,0.2-0.4,0.4s0.2,0.4,0.4,0.4h0.3c0.2,0,0.4-0.2,0.4-0.4s-0.2-0.4-0.4-0.4H37.9z"/>
			</g>
			<g>
				<path d="M41.7,66c0-0.2-0.2-0.4-0.4-0.4h-2.1c-0.2,0-0.4,0.2-0.4,0.4s0.2,0.4,0.4,0.4h2.1C41.5,66.4,41.7,66.2,41.7,66z"/>
			</g>
			<g>
				<path d="M42.3,65.6c-0.2,0-0.4,0.2-0.4,0.4s0.2,0.4,0.4,0.4h0.3c0.2,0,0.4-0.2,0.4-0.4s-0.2-0.4-0.4-0.4H42.3z"/>
			</g>
			<g>
				<path d="M46.1,66c0-0.2-0.2-0.4-0.4-0.4h-2.1c-0.2,0-0.4,0.2-0.4,0.4s0.2,0.4,0.4,0.4h2.1C46,66.4,46.1,66.2,46.1,66z"/>
			</g>
			<g>
				<path d="M46.8,65.6c-0.2,0-0.4,0.2-0.4,0.4s0.2,0.4,0.4,0.4h0.3c0.2,0,0.4-0.2,0.4-0.4s-0.2-0.4-0.4-0.4H46.8z"/>
			</g>
			<g>
				<path d="M50.6,66c0-0.2-0.2-0.4-0.4-0.4h-2.1c-0.2,0-0.4,0.2-0.4,0.4s0.2,0.4,0.4,0.4h2.1C50.4,66.4,50.6,66.2,50.6,66z"/>
			</g>
			<g>
				<path d="M51.2,65.6c-0.2,0-0.4,0.2-0.4,0.4s0.2,0.4,0.4,0.4h0.3c0.2,0,0.4-0.2,0.4-0.4s-0.2-0.4-0.4-0.4H51.2z"/>
			</g>
			<g>
				<path d="M55,66c0-0.2-0.2-0.4-0.4-0.4h-2.1c-0.2,0-0.4,0.2-0.4,0.4s0.2,0.4,0.4,0.4h2.1C54.8,66.4,55,66.2,55,66z"/>
			</g>
			<g>
				<path d="M55.7,65.6c-0.2,0-0.4,0.2-0.4,0.4s0.2,0.4,0.4,0.4H56c0.2,0,0.4-0.2,0.4-0.4s-0.2-0.4-0.4-0.4H55.7z"/>
			</g>
			<g>
				<path d="M59.5,66c0-0.2-0.2-0.4-0.4-0.4H57c-0.2,0-0.4,0.2-0.4,0.4s0.2,0.4,0.4,0.4h2.1C59.3,66.4,59.5,66.2,59.5,66z"/>
			</g>
			<g>
				<path d="M60.1,65.6c-0.2,0-0.4,0.2-0.4,0.4s0.2,0.4,0.4,0.4h0.3c0.2,0,0.4-0.2,0.4-0.4s-0.2-0.4-0.4-0.4H60.1z"/>
			</g>
			<g>
				<path d="M63.9,66c0-0.2-0.2-0.4-0.4-0.4h-2.1c-0.2,0-0.4,0.2-0.4,0.4s0.2,0.4,0.4,0.4h2.1C63.7,66.4,63.9,66.2,63.9,66z"/>
			</g>
			<g>
				<path d="M64.6,65.6c-0.2,0-0.4,0.2-0.4,0.4s0.2,0.4,0.4,0.4h0.3c0.2,0,0.4-0.2,0.4-0.4s-0.2-0.4-0.4-0.4H64.6z"/>
			</g>
			<g>
				<path d="M68.4,66c0-0.2-0.2-0.4-0.4-0.4h-2.1c-0.2,0-0.4,0.2-0.4,0.4s0.2,0.4,0.4,0.4H68C68.2,66.4,68.4,66.2,68.4,66z"/>
			</g>
			<g>
				<path d="M69,65.6c-0.2,0-0.4,0.2-0.4,0.4s0.2,0.4,0.4,0.4h0.3c0.2,0,0.4-0.2,0.4-0.4s-0.2-0.4-0.4-0.4H69z"/>
			</g>
			<g>
				<path d="M72.8,66c0-0.2-0.2-0.4-0.4-0.4h-2.1c-0.2,0-0.4,0.2-0.4,0.4s0.2,0.4,0.4,0.4h2.1C72.6,66.4,72.8,66.2,72.8,66z"/>
			</g>
			<g>
				<path d="M73.5,65.6c-0.2,0-0.4,0.2-0.4,0.4s0.2,0.4,0.4,0.4h0.3c0.2,0,0.4-0.2,0.4-0.4s-0.2-0.4-0.4-0.4H73.5z"/>
			</g>
			<g>
				<path d="M77.2,66c0-0.2-0.2-0.4-0.4-0.4h-2.1c-0.2,0-0.4,0.2-0.4,0.4s0.2,0.4,0.4,0.4h2.1C77.1,66.4,77.2,66.2,77.2,66z"/>
			</g>
			<g>
				<path d="M77.9,65.6c-0.2,0-0.4,0.2-0.4,0.4s0.2,0.4,0.4,0.4h0.3c0.2,0,0.4-0.2,0.4-0.4s-0.2-0.4-0.4-0.4H77.9z"/>
			</g>
			<g>
				<path d="M81.7,66c0-0.2-0.2-0.4-0.4-0.4h-2.1c-0.2,0-0.4,0.2-0.4,0.4s0.2,0.4,0.4,0.4h2.1C81.5,66.4,81.7,66.2,81.7,66z"/>
			</g>
			<g>
				<path d="M82.4,65.6c-0.2,0-0.4,0.2-0.4,0.4s0.2,0.4,0.4,0.4h0.3c0.2,0,0.4-0.2,0.4-0.4s-0.2-0.4-0.4-0.4H82.4z"/>
			</g>
			<g>
				<path d="M86.1,66c0-0.2-0.2-0.4-0.4-0.4h-2.1c-0.2,0-0.4,0.2-0.4,0.4s0.2,0.4,0.4,0.4h2.1C86,66.4,86.1,66.2,86.1,66z"/>
			</g>
			<g>
				<path d="M86.8,65.6c-0.2,0-0.4,0.2-0.4,0.4s0.2,0.4,0.4,0.4h0.3c0.2,0,0.4-0.2,0.4-0.4s-0.2-0.4-0.4-0.4H86.8z"/>
			</g>
			<g>
				<path d="M90.6,66c0-0.2-0.2-0.4-0.4-0.4h-2.1c-0.2,0-0.4,0.2-0.4,0.4s0.2,0.4,0.4,0.4h2.1C90.4,66.4,90.6,66.2,90.6,66z"/>
			</g>
			<g>
				<path d="M91.3,65.6c-0.2,0-0.4,0.2-0.4,0.4s0.2,0.4,0.4,0.4h0.3c0.2,0,0.4-0.2,0.4-0.4s-0.2-0.4-0.4-0.4H91.3z"/>
			</g>
			<g>
				<path d="M95,66c0-0.2-0.2-0.4-0.4-0.4h-2.1c-0.2,0-0.4,0.2-0.4,0.4s0.2,0.4,0.4,0.4h2.1C94.9,66.4,95,66.2,95,66z"/>
			</g>
			<g>
				<path d="M96,66.4c0.2,0,0.4-0.2,0.4-0.4s-0.2-0.4-0.4-0.4h-0.3c-0.2,0-0.4,0.2-0.4,0.4s0.2,0.4,0.4,0.4H96z"/>
			</g>
			<g>
				<path d="M20,67.4H22c0.2,0,0.4-0.2,0.4-0.4s-0.2-0.4-0.4-0.4H20c-0.2,0-0.4,0.2-0.4,0.4S19.8,67.4,20,67.4z"/>
			</g>
			<g>
				<path d="M23.1,66.7c-0.2,0-0.4,0.2-0.4,0.4s0.2,0.4,0.4,0.4h0.3c0.2,0,0.4-0.2,0.4-0.4s-0.2-0.4-0.4-0.4H23.1z"/>
			</g>
			<g>
				<path d="M98,67c0-0.2-0.2-0.4-0.4-0.4h-2.1c-0.2,0-0.4,0.2-0.4,0.4s0.2,0.4,0.4,0.4h2.1C97.8,67.4,98,67.3,98,67z"/>
			</g>
			<g>
				<path d="M99,67.4c0.2,0,0.4-0.2,0.4-0.4s-0.2-0.4-0.4-0.4h-0.3c-0.2,0-0.4,0.2-0.4,0.4s0.2,0.4,0.4,0.4H99z"/>
			</g>
			<g>
				<path d="M26.9,67c0-0.2-0.2-0.4-0.4-0.4h-2.1c-0.2,0-0.4,0.2-0.4,0.4s0.2,0.4,0.4,0.4h2.1C26.7,67.4,26.9,67.3,26.9,67z"/>
			</g>
			<g>
				<path d="M27.5,66.7c-0.2,0-0.4,0.2-0.4,0.4s0.2,0.4,0.4,0.4h0.3c0.2,0,0.4-0.2,0.4-0.4s-0.2-0.4-0.4-0.4H27.5z"/>
			</g>
			<g>
				<path d="M31.3,67c0-0.2-0.2-0.4-0.4-0.4h-2.1c-0.2,0-0.4,0.2-0.4,0.4s0.2,0.4,0.4,0.4h2.1C31.1,67.4,31.3,67.3,31.3,67z"/>
			</g>
			<g>
				<path d="M32,66.7c-0.2,0-0.4,0.2-0.4,0.4s0.2,0.4,0.4,0.4h0.3c0.2,0,0.4-0.2,0.4-0.4s-0.2-0.4-0.4-0.4H32z"/>
			</g>
			<g>
				<path d="M35.8,67c0-0.2-0.2-0.4-0.4-0.4h-2.1c-0.2,0-0.4,0.2-0.4,0.4s0.2,0.4,0.4,0.4h2.1C35.6,67.4,35.8,67.3,35.8,67z"/>
			</g>
			<g>
				<path d="M36.4,66.7c-0.2,0-0.4,0.2-0.4,0.4s0.2,0.4,0.4,0.4h0.3c0.2,0,0.4-0.2,0.4-0.4s-0.2-0.4-0.4-0.4H36.4z"/>
			</g>
			<g>
				<path d="M40.2,67c0-0.2-0.2-0.4-0.4-0.4h-2.1c-0.2,0-0.4,0.2-0.4,0.4s0.2,0.4,0.4,0.4h2.1C40,67.4,40.2,67.3,40.2,67z"/>
			</g>
			<g>
				<path d="M40.9,66.7c-0.2,0-0.4,0.2-0.4,0.4s0.2,0.4,0.4,0.4h0.3c0.2,0,0.4-0.2,0.4-0.4s-0.2-0.4-0.4-0.4H40.9z"/>
			</g>
			<g>
				<path d="M44.6,67c0-0.2-0.2-0.4-0.4-0.4h-2.1c-0.2,0-0.4,0.2-0.4,0.4s0.2,0.4,0.4,0.4h2.1C44.5,67.4,44.6,67.3,44.6,67z"/>
			</g>
			<g>
				<path d="M45.3,66.7c-0.2,0-0.4,0.2-0.4,0.4s0.2,0.4,0.4,0.4h0.3c0.2,0,0.4-0.2,0.4-0.4s-0.2-0.4-0.4-0.4H45.3z"/>
			</g>
			<g>
				<path d="M49.1,67c0-0.2-0.2-0.4-0.4-0.4h-2.1c-0.2,0-0.4,0.2-0.4,0.4s0.2,0.4,0.4,0.4h2.1C48.9,67.4,49.1,67.3,49.1,67z"/>
			</g>
			<g>
				<path d="M49.8,66.7c-0.2,0-0.4,0.2-0.4,0.4s0.2,0.4,0.4,0.4h0.3c0.2,0,0.4-0.2,0.4-0.4s-0.2-0.4-0.4-0.4H49.8z"/>
			</g>
			<g>
				<path d="M53.5,67c0-0.2-0.2-0.4-0.4-0.4h-2.1c-0.2,0-0.4,0.2-0.4,0.4s0.2,0.4,0.4,0.4h2.1C53.4,67.4,53.5,67.3,53.5,67z"/>
			</g>
			<g>
				<path d="M54.2,66.7c-0.2,0-0.4,0.2-0.4,0.4s0.2,0.4,0.4,0.4h0.3c0.2,0,0.4-0.2,0.4-0.4s-0.2-0.4-0.4-0.4H54.2z"/>
			</g>
			<g>
				<path d="M58,67c0-0.2-0.2-0.4-0.4-0.4h-2.1c-0.2,0-0.4,0.2-0.4,0.4s0.2,0.4,0.4,0.4h2.1C57.8,67.4,58,67.3,58,67z"/>
			</g>
			<g>
				<path d="M58.6,66.7c-0.2,0-0.4,0.2-0.4,0.4s0.2,0.4,0.4,0.4h0.3c0.2,0,0.4-0.2,0.4-0.4s-0.2-0.4-0.4-0.4H58.6z"/>
			</g>
			<g>
				<path d="M62.4,67c0-0.2-0.2-0.4-0.4-0.4H60c-0.2,0-0.4,0.2-0.4,0.4s0.2,0.4,0.4,0.4h2.1C62.3,67.4,62.4,67.3,62.4,67z"/>
			</g>
			<g>
				<path d="M63.1,66.7c-0.2,0-0.4,0.2-0.4,0.4s0.2,0.4,0.4,0.4h0.3c0.2,0,0.4-0.2,0.4-0.4s-0.2-0.4-0.4-0.4H63.1z"/>
			</g>
			<g>
				<path d="M66.9,67c0-0.2-0.2-0.4-0.4-0.4h-2.1c-0.2,0-0.4,0.2-0.4,0.4s0.2,0.4,0.4,0.4h2.1C66.7,67.4,66.9,67.3,66.9,67z"/>
			</g>
			<g>
				<path d="M67.5,66.7c-0.2,0-0.4,0.2-0.4,0.4s0.2,0.4,0.4,0.4h0.3c0.2,0,0.4-0.2,0.4-0.4s-0.2-0.4-0.4-0.4H67.5z"/>
			</g>
			<g>
				<path d="M71.3,67c0-0.2-0.2-0.4-0.4-0.4h-2.1c-0.2,0-0.4,0.2-0.4,0.4s0.2,0.4,0.4,0.4h2.1C71.2,67.4,71.3,67.3,71.3,67z"/>
			</g>
			<g>
				<path d="M72,66.7c-0.2,0-0.4,0.2-0.4,0.4s0.2,0.4,0.4,0.4h0.3c0.2,0,0.4-0.2,0.4-0.4s-0.2-0.4-0.4-0.4H72z"/>
			</g>
			<g>
				<path d="M75.8,67c0-0.2-0.2-0.4-0.4-0.4h-2.1c-0.2,0-0.4,0.2-0.4,0.4s0.2,0.4,0.4,0.4h2.1C75.6,67.4,75.8,67.3,75.8,67z"/>
			</g>
			<g>
				<path d="M76.4,66.7c-0.2,0-0.4,0.2-0.4,0.4s0.2,0.4,0.4,0.4h0.3c0.2,0,0.4-0.2,0.4-0.4s-0.2-0.4-0.4-0.4H76.4z"/>
			</g>
			<g>
				<path d="M80.2,67c0-0.2-0.2-0.4-0.4-0.4h-2.1c-0.2,0-0.4,0.2-0.4,0.4s0.2,0.4,0.4,0.4h2.1C80,67.4,80.2,67.3,80.2,67z"/>
			</g>
			<g>
				<path d="M80.9,66.7c-0.2,0-0.4,0.2-0.4,0.4s0.2,0.4,0.4,0.4h0.3c0.2,0,0.4-0.2,0.4-0.4s-0.2-0.4-0.4-0.4H80.9z"/>
			</g>
			<g>
				<path d="M84.7,67c0-0.2-0.2-0.4-0.4-0.4h-2.1c-0.2,0-0.4,0.2-0.4,0.4s0.2,0.4,0.4,0.4h2.1C84.5,67.4,84.7,67.3,84.7,67z"/>
			</g>
			<g>
				<path d="M85.3,66.7c-0.2,0-0.4,0.2-0.4,0.4s0.2,0.4,0.4,0.4h0.3c0.2,0,0.4-0.2,0.4-0.4s-0.2-0.4-0.4-0.4H85.3z"/>
			</g>
			<g>
				<path d="M89.1,67c0-0.2-0.2-0.4-0.4-0.4h-2.1c-0.2,0-0.4,0.2-0.4,0.4s0.2,0.4,0.4,0.4h2.1C88.9,67.4,89.1,67.3,89.1,67z"/>
			</g>
			<g>
				<path d="M89.8,66.7c-0.2,0-0.4,0.2-0.4,0.4s0.2,0.4,0.4,0.4h0.3c0.2,0,0.4-0.2,0.4-0.4s-0.2-0.4-0.4-0.4H89.8z"/>
			</g>
			<g>
				<path d="M93.5,67c0-0.2-0.2-0.4-0.4-0.4h-2.1c-0.2,0-0.4,0.2-0.4,0.4s0.2,0.4,0.4,0.4h2.1C93.4,67.4,93.5,67.3,93.5,67z"/>
			</g>
			<g>
				<path d="M94.2,66.7c-0.2,0-0.4,0.2-0.4,0.4s0.2,0.4,0.4,0.4h0.3c0.2,0,0.4-0.2,0.4-0.4s-0.2-0.4-0.4-0.4H94.2z"/>
			</g>
			<g>
				<path d="M96.1,67.7h-2.1c-0.2,0-0.4,0.2-0.4,0.4c0,0.2,0.2,0.4,0.4,0.4h2.1c0.2,0,0.4-0.2,0.4-0.4
					C96.5,67.9,96.3,67.7,96.1,67.7z"/>
			</g>
			<g>
				<path d="M97.2,67.7c-0.2,0-0.4,0.2-0.4,0.4c0,0.2,0.2,0.4,0.4,0.4h0.3c0.2,0,0.4-0.2,0.4-0.4c0-0.2-0.2-0.4-0.4-0.4H97.2z"/>
			</g>
			<g>
				<path d="M22.9,68.5H25c0.2,0,0.4-0.2,0.4-0.4c0-0.2-0.2-0.4-0.4-0.4h-2.1c-0.2,0-0.4,0.2-0.4,0.4C22.6,68.3,22.7,68.5,22.9,68.5
					z"/>
			</g>
			<g>
				<path d="M26,67.7c-0.2,0-0.4,0.2-0.4,0.4c0,0.2,0.2,0.4,0.4,0.4h0.3c0.2,0,0.4-0.2,0.4-0.4c0-0.2-0.2-0.4-0.4-0.4H26z"/>
			</g>
			<g>
				<path d="M29.8,68.1c0-0.2-0.2-0.4-0.4-0.4h-2.1c-0.2,0-0.4,0.2-0.4,0.4c0,0.2,0.2,0.4,0.4,0.4h2.1
					C29.7,68.5,29.8,68.3,29.8,68.1z"/>
			</g>
			<g>
				<path d="M30.5,67.7c-0.2,0-0.4,0.2-0.4,0.4c0,0.2,0.2,0.4,0.4,0.4h0.3c0.2,0,0.4-0.2,0.4-0.4c0-0.2-0.2-0.4-0.4-0.4H30.5z"/>
			</g>
			<g>
				<path d="M34.3,68.1c0-0.2-0.2-0.4-0.4-0.4h-2.1c-0.2,0-0.4,0.2-0.4,0.4c0,0.2,0.2,0.4,0.4,0.4h2.1
					C34.1,68.5,34.3,68.3,34.3,68.1z"/>
			</g>
			<g>
				<path d="M34.9,67.7c-0.2,0-0.4,0.2-0.4,0.4c0,0.2,0.2,0.4,0.4,0.4h0.3c0.2,0,0.4-0.2,0.4-0.4c0-0.2-0.2-0.4-0.4-0.4H34.9z"/>
			</g>
			<g>
				<path d="M38.7,68.1c0-0.2-0.2-0.4-0.4-0.4h-2.1c-0.2,0-0.4,0.2-0.4,0.4c0,0.2,0.2,0.4,0.4,0.4h2.1
					C38.5,68.5,38.7,68.3,38.7,68.1z"/>
			</g>
			<g>
				<path d="M39.4,67.7c-0.2,0-0.4,0.2-0.4,0.4c0,0.2,0.2,0.4,0.4,0.4h0.3c0.2,0,0.4-0.2,0.4-0.4c0-0.2-0.2-0.4-0.4-0.4H39.4z"/>
			</g>
			<g>
				<path d="M43.2,68.1c0-0.2-0.2-0.4-0.4-0.4h-2.1c-0.2,0-0.4,0.2-0.4,0.4c0,0.2,0.2,0.4,0.4,0.4h2.1C43,68.5,43.2,68.3,43.2,68.1z
					"/>
			</g>
			<g>
				<path d="M43.8,67.7c-0.2,0-0.4,0.2-0.4,0.4c0,0.2,0.2,0.4,0.4,0.4h0.3c0.2,0,0.4-0.2,0.4-0.4c0-0.2-0.2-0.4-0.4-0.4H43.8z"/>
			</g>
			<g>
				<path d="M47.6,68.1c0-0.2-0.2-0.4-0.4-0.4h-2.1c-0.2,0-0.4,0.2-0.4,0.4c0,0.2,0.2,0.4,0.4,0.4h2.1
					C47.4,68.5,47.6,68.3,47.6,68.1z"/>
			</g>
			<g>
				<path d="M48.3,67.7c-0.2,0-0.4,0.2-0.4,0.4c0,0.2,0.2,0.4,0.4,0.4h0.3c0.2,0,0.4-0.2,0.4-0.4c0-0.2-0.2-0.4-0.4-0.4H48.3z"/>
			</g>
			<g>
				<path d="M52.1,68.1c0-0.2-0.2-0.4-0.4-0.4h-2.1c-0.2,0-0.4,0.2-0.4,0.4c0,0.2,0.2,0.4,0.4,0.4h2.1
					C51.9,68.5,52.1,68.3,52.1,68.1z"/>
			</g>
			<g>
				<path d="M52.7,67.7c-0.2,0-0.4,0.2-0.4,0.4c0,0.2,0.2,0.4,0.4,0.4H53c0.2,0,0.4-0.2,0.4-0.4c0-0.2-0.2-0.4-0.4-0.4H52.7z"/>
			</g>
			<g>
				<path d="M56.5,68.1c0-0.2-0.2-0.4-0.4-0.4h-2.1c-0.2,0-0.4,0.2-0.4,0.4c0,0.2,0.2,0.4,0.4,0.4h2.1
					C56.3,68.5,56.5,68.3,56.5,68.1z"/>
			</g>
			<g>
				<path d="M57.2,67.7c-0.2,0-0.4,0.2-0.4,0.4c0,0.2,0.2,0.4,0.4,0.4h0.3c0.2,0,0.4-0.2,0.4-0.4c0-0.2-0.2-0.4-0.4-0.4H57.2z"/>
			</g>
			<g>
				<path d="M60.9,68.1c0-0.2-0.2-0.4-0.4-0.4h-2.1c-0.2,0-0.4,0.2-0.4,0.4c0,0.2,0.2,0.4,0.4,0.4h2.1
					C60.8,68.5,60.9,68.3,60.9,68.1z"/>
			</g>
			<g>
				<path d="M61.6,67.7c-0.2,0-0.4,0.2-0.4,0.4c0,0.2,0.2,0.4,0.4,0.4h0.3c0.2,0,0.4-0.2,0.4-0.4c0-0.2-0.2-0.4-0.4-0.4H61.6z"/>
			</g>
			<g>
				<path d="M65.4,68.1c0-0.2-0.2-0.4-0.4-0.4h-2.1c-0.2,0-0.4,0.2-0.4,0.4c0,0.2,0.2,0.4,0.4,0.4H65C65.2,68.5,65.4,68.3,65.4,68.1
					z"/>
			</g>
			<g>
				<path d="M66.1,67.7c-0.2,0-0.4,0.2-0.4,0.4c0,0.2,0.2,0.4,0.4,0.4h0.3c0.2,0,0.4-0.2,0.4-0.4c0-0.2-0.2-0.4-0.4-0.4H66.1z"/>
			</g>
			<g>
				<path d="M69.8,68.1c0-0.2-0.2-0.4-0.4-0.4h-2.1c-0.2,0-0.4,0.2-0.4,0.4c0,0.2,0.2,0.4,0.4,0.4h2.1
					C69.7,68.5,69.8,68.3,69.8,68.1z"/>
			</g>
			<g>
				<path d="M70.5,67.7c-0.2,0-0.4,0.2-0.4,0.4c0,0.2,0.2,0.4,0.4,0.4h0.3c0.2,0,0.4-0.2,0.4-0.4c0-0.2-0.2-0.4-0.4-0.4H70.5z"/>
			</g>
			<g>
				<path d="M74.3,68.1c0-0.2-0.2-0.4-0.4-0.4h-2.1c-0.2,0-0.4,0.2-0.4,0.4c0,0.2,0.2,0.4,0.4,0.4h2.1
					C74.1,68.5,74.3,68.3,74.3,68.1z"/>
			</g>
			<g>
				<path d="M74.9,67.7c-0.2,0-0.4,0.2-0.4,0.4c0,0.2,0.2,0.4,0.4,0.4h0.3c0.2,0,0.4-0.2,0.4-0.4c0-0.2-0.2-0.4-0.4-0.4H74.9z"/>
			</g>
			<g>
				<path d="M78.7,68.1c0-0.2-0.2-0.4-0.4-0.4h-2.1c-0.2,0-0.4,0.2-0.4,0.4c0,0.2,0.2,0.4,0.4,0.4h2.1
					C78.6,68.5,78.7,68.3,78.7,68.1z"/>
			</g>
			<g>
				<path d="M79.4,67.7c-0.2,0-0.4,0.2-0.4,0.4c0,0.2,0.2,0.4,0.4,0.4h0.3c0.2,0,0.4-0.2,0.4-0.4c0-0.2-0.2-0.4-0.4-0.4H79.4z"/>
			</g>
			<g>
				<path d="M83.2,68.1c0-0.2-0.2-0.4-0.4-0.4h-2.1c-0.2,0-0.4,0.2-0.4,0.4c0,0.2,0.2,0.4,0.4,0.4h2.1C83,68.5,83.2,68.3,83.2,68.1z
					"/>
			</g>
			<g>
				<path d="M83.8,67.7c-0.2,0-0.4,0.2-0.4,0.4c0,0.2,0.2,0.4,0.4,0.4h0.3c0.2,0,0.4-0.2,0.4-0.4c0-0.2-0.2-0.4-0.4-0.4H83.8z"/>
			</g>
			<g>
				<path d="M87.6,68.1c0-0.2-0.2-0.4-0.4-0.4h-2.1c-0.2,0-0.4,0.2-0.4,0.4c0,0.2,0.2,0.4,0.4,0.4h2.1
					C87.5,68.5,87.6,68.3,87.6,68.1z"/>
			</g>
			<g>
				<path d="M88.3,67.7c-0.2,0-0.4,0.2-0.4,0.4c0,0.2,0.2,0.4,0.4,0.4h0.3c0.2,0,0.4-0.2,0.4-0.4c0-0.2-0.2-0.4-0.4-0.4H88.3z"/>
			</g>
			<g>
				<path d="M92.1,68.1c0-0.2-0.2-0.4-0.4-0.4h-2.1c-0.2,0-0.4,0.2-0.4,0.4c0,0.2,0.2,0.4,0.4,0.4h2.1
					C91.9,68.5,92.1,68.3,92.1,68.1z"/>
			</g>
			<g>
				<path d="M92.7,67.7c-0.2,0-0.4,0.2-0.4,0.4c0,0.2,0.2,0.4,0.4,0.4H93c0.2,0,0.4-0.2,0.4-0.4c0-0.2-0.2-0.4-0.4-0.4H92.7z"/>
			</g>
			<g>
				<path d="M21.1,69.1c0,0.2,0.2,0.4,0.4,0.4h2.1c0.2,0,0.4-0.2,0.4-0.4s-0.2-0.4-0.4-0.4h-2.1C21.2,68.8,21.1,68.9,21.1,69.1z"/>
			</g>
			<g>
				<path d="M24.6,68.8c-0.2,0-0.4,0.2-0.4,0.4s0.2,0.4,0.4,0.4h0.3c0.2,0,0.4-0.2,0.4-0.4s-0.2-0.4-0.4-0.4H24.6z"/>
			</g>
			<g>
				<path d="M99.1,68.8H97c-0.2,0-0.4,0.2-0.4,0.4s0.2,0.4,0.4,0.4h2.1c0.2,0,0.4-0.2,0.4-0.4S99.3,68.8,99.1,68.8z"/>
			</g>
			<g>
				<path d="M100.4,68.8h-0.3c-0.2,0-0.4,0.2-0.4,0.4s0.2,0.4,0.4,0.4h0.3c0.2,0,0.4-0.2,0.4-0.4S100.6,68.8,100.4,68.8z"/>
			</g>
			<g>
				<path d="M28.3,69.1c0-0.2-0.2-0.4-0.4-0.4h-2.1c-0.2,0-0.4,0.2-0.4,0.4s0.2,0.4,0.4,0.4H28C28.2,69.5,28.3,69.3,28.3,69.1z"/>
			</g>
			<g>
				<path d="M29,68.8c-0.2,0-0.4,0.2-0.4,0.4s0.2,0.4,0.4,0.4h0.3c0.2,0,0.4-0.2,0.4-0.4s-0.2-0.4-0.4-0.4H29z"/>
			</g>
			<g>
				<path d="M32.8,69.1c0-0.2-0.2-0.4-0.4-0.4h-2.1c-0.2,0-0.4,0.2-0.4,0.4s0.2,0.4,0.4,0.4h2.1C32.6,69.5,32.8,69.3,32.8,69.1z"/>
			</g>
			<g>
				<path d="M33.5,68.8c-0.2,0-0.4,0.2-0.4,0.4s0.2,0.4,0.4,0.4h0.3c0.2,0,0.4-0.2,0.4-0.4s-0.2-0.4-0.4-0.4H33.5z"/>
			</g>
			<g>
				<path d="M37.2,69.1c0-0.2-0.2-0.4-0.4-0.4h-2.1c-0.2,0-0.4,0.2-0.4,0.4s0.2,0.4,0.4,0.4h2.1C37.1,69.5,37.2,69.3,37.2,69.1z"/>
			</g>
			<g>
				<path d="M37.9,68.8c-0.2,0-0.4,0.2-0.4,0.4s0.2,0.4,0.4,0.4h0.3c0.2,0,0.4-0.2,0.4-0.4s-0.2-0.4-0.4-0.4H37.9z"/>
			</g>
			<g>
				<path d="M41.7,69.1c0-0.2-0.2-0.4-0.4-0.4h-2.1c-0.2,0-0.4,0.2-0.4,0.4s0.2,0.4,0.4,0.4h2.1C41.5,69.5,41.7,69.3,41.7,69.1z"/>
			</g>
			<g>
				<path d="M42.3,68.8c-0.2,0-0.4,0.2-0.4,0.4s0.2,0.4,0.4,0.4h0.3c0.2,0,0.4-0.2,0.4-0.4s-0.2-0.4-0.4-0.4H42.3z"/>
			</g>
			<g>
				<path d="M46.1,69.1c0-0.2-0.2-0.4-0.4-0.4h-2.1c-0.2,0-0.4,0.2-0.4,0.4s0.2,0.4,0.4,0.4h2.1C46,69.5,46.1,69.3,46.1,69.1z"/>
			</g>
			<g>
				<path d="M46.8,68.8c-0.2,0-0.4,0.2-0.4,0.4s0.2,0.4,0.4,0.4h0.3c0.2,0,0.4-0.2,0.4-0.4s-0.2-0.4-0.4-0.4H46.8z"/>
			</g>
			<g>
				<path d="M50.6,69.1c0-0.2-0.2-0.4-0.4-0.4h-2.1c-0.2,0-0.4,0.2-0.4,0.4s0.2,0.4,0.4,0.4h2.1C50.4,69.5,50.6,69.3,50.6,69.1z"/>
			</g>
			<g>
				<path d="M51.2,68.8c-0.2,0-0.4,0.2-0.4,0.4s0.2,0.4,0.4,0.4h0.3c0.2,0,0.4-0.2,0.4-0.4s-0.2-0.4-0.4-0.4H51.2z"/>
			</g>
			<g>
				<path d="M55,69.1c0-0.2-0.2-0.4-0.4-0.4h-2.1c-0.2,0-0.4,0.2-0.4,0.4s0.2,0.4,0.4,0.4h2.1C54.8,69.5,55,69.3,55,69.1z"/>
			</g>
			<g>
				<path d="M55.7,68.8c-0.2,0-0.4,0.2-0.4,0.4s0.2,0.4,0.4,0.4H56c0.2,0,0.4-0.2,0.4-0.4s-0.2-0.4-0.4-0.4H55.7z"/>
			</g>
			<g>
				<path d="M59.5,69.1c0-0.2-0.2-0.4-0.4-0.4H57c-0.2,0-0.4,0.2-0.4,0.4s0.2,0.4,0.4,0.4h2.1C59.3,69.5,59.5,69.3,59.5,69.1z"/>
			</g>
			<g>
				<path d="M60.1,68.8c-0.2,0-0.4,0.2-0.4,0.4s0.2,0.4,0.4,0.4h0.3c0.2,0,0.4-0.2,0.4-0.4s-0.2-0.4-0.4-0.4H60.1z"/>
			</g>
			<g>
				<path d="M63.9,69.1c0-0.2-0.2-0.4-0.4-0.4h-2.1c-0.2,0-0.4,0.2-0.4,0.4s0.2,0.4,0.4,0.4h2.1C63.7,69.5,63.9,69.3,63.9,69.1z"/>
			</g>
			<g>
				<path d="M64.6,68.8c-0.2,0-0.4,0.2-0.4,0.4s0.2,0.4,0.4,0.4h0.3c0.2,0,0.4-0.2,0.4-0.4s-0.2-0.4-0.4-0.4H64.6z"/>
			</g>
			<g>
				<path d="M68.4,69.1c0-0.2-0.2-0.4-0.4-0.4h-2.1c-0.2,0-0.4,0.2-0.4,0.4s0.2,0.4,0.4,0.4H68C68.2,69.5,68.4,69.3,68.4,69.1z"/>
			</g>
			<g>
				<path d="M69,68.8c-0.2,0-0.4,0.2-0.4,0.4s0.2,0.4,0.4,0.4h0.3c0.2,0,0.4-0.2,0.4-0.4s-0.2-0.4-0.4-0.4H69z"/>
			</g>
			<g>
				<path d="M72.8,69.1c0-0.2-0.2-0.4-0.4-0.4h-2.1c-0.2,0-0.4,0.2-0.4,0.4s0.2,0.4,0.4,0.4h2.1C72.6,69.5,72.8,69.3,72.8,69.1z"/>
			</g>
			<g>
				<path d="M73.5,68.8c-0.2,0-0.4,0.2-0.4,0.4s0.2,0.4,0.4,0.4h0.3c0.2,0,0.4-0.2,0.4-0.4s-0.2-0.4-0.4-0.4H73.5z"/>
			</g>
			<g>
				<path d="M77.2,69.1c0-0.2-0.2-0.4-0.4-0.4h-2.1c-0.2,0-0.4,0.2-0.4,0.4s0.2,0.4,0.4,0.4h2.1C77.1,69.5,77.2,69.3,77.2,69.1z"/>
			</g>
			<g>
				<path d="M77.9,68.8c-0.2,0-0.4,0.2-0.4,0.4s0.2,0.4,0.4,0.4h0.3c0.2,0,0.4-0.2,0.4-0.4s-0.2-0.4-0.4-0.4H77.9z"/>
			</g>
			<g>
				<path d="M81.7,69.1c0-0.2-0.2-0.4-0.4-0.4h-2.1c-0.2,0-0.4,0.2-0.4,0.4s0.2,0.4,0.4,0.4h2.1C81.5,69.5,81.7,69.3,81.7,69.1z"/>
			</g>
			<g>
				<path d="M82.4,68.8c-0.2,0-0.4,0.2-0.4,0.4s0.2,0.4,0.4,0.4h0.3c0.2,0,0.4-0.2,0.4-0.4s-0.2-0.4-0.4-0.4H82.4z"/>
			</g>
			<g>
				<path d="M86.1,69.1c0-0.2-0.2-0.4-0.4-0.4h-2.1c-0.2,0-0.4,0.2-0.4,0.4s0.2,0.4,0.4,0.4h2.1C86,69.5,86.1,69.3,86.1,69.1z"/>
			</g>
			<g>
				<path d="M86.8,68.8c-0.2,0-0.4,0.2-0.4,0.4s0.2,0.4,0.4,0.4h0.3c0.2,0,0.4-0.2,0.4-0.4s-0.2-0.4-0.4-0.4H86.8z"/>
			</g>
			<g>
				<path d="M90.6,69.1c0-0.2-0.2-0.4-0.4-0.4h-2.1c-0.2,0-0.4,0.2-0.4,0.4s0.2,0.4,0.4,0.4h2.1C90.4,69.5,90.6,69.3,90.6,69.1z"/>
			</g>
			<g>
				<path d="M91.3,68.8c-0.2,0-0.4,0.2-0.4,0.4s0.2,0.4,0.4,0.4h0.3c0.2,0,0.4-0.2,0.4-0.4s-0.2-0.4-0.4-0.4H91.3z"/>
			</g>
			<g>
				<path d="M95,69.1c0-0.2-0.2-0.4-0.4-0.4h-2.1c-0.2,0-0.4,0.2-0.4,0.4s0.2,0.4,0.4,0.4h2.1C94.9,69.5,95,69.3,95,69.1z"/>
			</g>
			<g>
				<path d="M96,69.5c0.2,0,0.4-0.2,0.4-0.4s-0.2-0.4-0.4-0.4h-0.3c-0.2,0-0.4,0.2-0.4,0.4s0.2,0.4,0.4,0.4H96z"/>
			</g>
			<g>
				<path d="M20,70.5H22c0.2,0,0.4-0.2,0.4-0.4s-0.2-0.4-0.4-0.4H20c-0.2,0-0.4,0.2-0.4,0.4S19.8,70.5,20,70.5z"/>
			</g>
			<g>
				<path d="M23.1,69.8c-0.2,0-0.4,0.2-0.4,0.4s0.2,0.4,0.4,0.4h0.3c0.2,0,0.4-0.2,0.4-0.4s-0.2-0.4-0.4-0.4H23.1z"/>
			</g>
			<g>
				<path d="M98,70.2c0-0.2-0.2-0.4-0.4-0.4h-2.1c-0.2,0-0.4,0.2-0.4,0.4s0.2,0.4,0.4,0.4h2.1C97.8,70.5,98,70.4,98,70.2z"/>
			</g>
			<g>
				<path d="M99,70.5c0.2,0,0.4-0.2,0.4-0.4s-0.2-0.4-0.4-0.4h-0.3c-0.2,0-0.4,0.2-0.4,0.4s0.2,0.4,0.4,0.4H99z"/>
			</g>
			<g>
				<path d="M26.9,70.2c0-0.2-0.2-0.4-0.4-0.4h-2.1c-0.2,0-0.4,0.2-0.4,0.4s0.2,0.4,0.4,0.4h2.1C26.7,70.5,26.9,70.4,26.9,70.2z"/>
			</g>
			<g>
				<path d="M27.5,69.8c-0.2,0-0.4,0.2-0.4,0.4s0.2,0.4,0.4,0.4h0.3c0.2,0,0.4-0.2,0.4-0.4s-0.2-0.4-0.4-0.4H27.5z"/>
			</g>
			<g>
				<path d="M31.3,70.2c0-0.2-0.2-0.4-0.4-0.4h-2.1c-0.2,0-0.4,0.2-0.4,0.4s0.2,0.4,0.4,0.4h2.1C31.1,70.5,31.3,70.4,31.3,70.2z"/>
			</g>
			<g>
				<path d="M32,69.8c-0.2,0-0.4,0.2-0.4,0.4s0.2,0.4,0.4,0.4h0.3c0.2,0,0.4-0.2,0.4-0.4s-0.2-0.4-0.4-0.4H32z"/>
			</g>
			<g>
				<path d="M35.8,70.2c0-0.2-0.2-0.4-0.4-0.4h-2.1c-0.2,0-0.4,0.2-0.4,0.4s0.2,0.4,0.4,0.4h2.1C35.6,70.5,35.8,70.4,35.8,70.2z"/>
			</g>
			<g>
				<path d="M36.4,69.8c-0.2,0-0.4,0.2-0.4,0.4s0.2,0.4,0.4,0.4h0.3c0.2,0,0.4-0.2,0.4-0.4s-0.2-0.4-0.4-0.4H36.4z"/>
			</g>
			<g>
				<path d="M40.2,70.2c0-0.2-0.2-0.4-0.4-0.4h-2.1c-0.2,0-0.4,0.2-0.4,0.4s0.2,0.4,0.4,0.4h2.1C40,70.5,40.2,70.4,40.2,70.2z"/>
			</g>
			<g>
				<path d="M40.9,69.8c-0.2,0-0.4,0.2-0.4,0.4s0.2,0.4,0.4,0.4h0.3c0.2,0,0.4-0.2,0.4-0.4s-0.2-0.4-0.4-0.4H40.9z"/>
			</g>
			<g>
				<path d="M44.6,70.2c0-0.2-0.2-0.4-0.4-0.4h-2.1c-0.2,0-0.4,0.2-0.4,0.4s0.2,0.4,0.4,0.4h2.1C44.5,70.5,44.6,70.4,44.6,70.2z"/>
			</g>
			<g>
				<path d="M45.3,69.8c-0.2,0-0.4,0.2-0.4,0.4s0.2,0.4,0.4,0.4h0.3c0.2,0,0.4-0.2,0.4-0.4s-0.2-0.4-0.4-0.4H45.3z"/>
			</g>
			<g>
				<path d="M49.1,70.2c0-0.2-0.2-0.4-0.4-0.4h-2.1c-0.2,0-0.4,0.2-0.4,0.4s0.2,0.4,0.4,0.4h2.1C48.9,70.5,49.1,70.4,49.1,70.2z"/>
			</g>
			<g>
				<path d="M49.8,69.8c-0.2,0-0.4,0.2-0.4,0.4s0.2,0.4,0.4,0.4h0.3c0.2,0,0.4-0.2,0.4-0.4s-0.2-0.4-0.4-0.4H49.8z"/>
			</g>
			<g>
				<path d="M53.5,70.2c0-0.2-0.2-0.4-0.4-0.4h-2.1c-0.2,0-0.4,0.2-0.4,0.4s0.2,0.4,0.4,0.4h2.1C53.4,70.5,53.5,70.4,53.5,70.2z"/>
			</g>
			<g>
				<path d="M54.2,69.8c-0.2,0-0.4,0.2-0.4,0.4s0.2,0.4,0.4,0.4h0.3c0.2,0,0.4-0.2,0.4-0.4s-0.2-0.4-0.4-0.4H54.2z"/>
			</g>
			<g>
				<path d="M58,70.2c0-0.2-0.2-0.4-0.4-0.4h-2.1c-0.2,0-0.4,0.2-0.4,0.4s0.2,0.4,0.4,0.4h2.1C57.8,70.5,58,70.4,58,70.2z"/>
			</g>
			<g>
				<path d="M58.6,69.8c-0.2,0-0.4,0.2-0.4,0.4s0.2,0.4,0.4,0.4h0.3c0.2,0,0.4-0.2,0.4-0.4s-0.2-0.4-0.4-0.4H58.6z"/>
			</g>
			<g>
				<path d="M62.4,70.2c0-0.2-0.2-0.4-0.4-0.4H60c-0.2,0-0.4,0.2-0.4,0.4s0.2,0.4,0.4,0.4h2.1C62.3,70.5,62.4,70.4,62.4,70.2z"/>
			</g>
			<g>
				<path d="M63.1,69.8c-0.2,0-0.4,0.2-0.4,0.4s0.2,0.4,0.4,0.4h0.3c0.2,0,0.4-0.2,0.4-0.4s-0.2-0.4-0.4-0.4H63.1z"/>
			</g>
			<g>
				<path d="M66.9,70.2c0-0.2-0.2-0.4-0.4-0.4h-2.1c-0.2,0-0.4,0.2-0.4,0.4s0.2,0.4,0.4,0.4h2.1C66.7,70.5,66.9,70.4,66.9,70.2z"/>
			</g>
			<g>
				<path d="M67.5,69.8c-0.2,0-0.4,0.2-0.4,0.4s0.2,0.4,0.4,0.4h0.3c0.2,0,0.4-0.2,0.4-0.4s-0.2-0.4-0.4-0.4H67.5z"/>
			</g>
			<g>
				<path d="M71.3,70.2c0-0.2-0.2-0.4-0.4-0.4h-2.1c-0.2,0-0.4,0.2-0.4,0.4s0.2,0.4,0.4,0.4h2.1C71.2,70.5,71.3,70.4,71.3,70.2z"/>
			</g>
			<g>
				<path d="M72,69.8c-0.2,0-0.4,0.2-0.4,0.4s0.2,0.4,0.4,0.4h0.3c0.2,0,0.4-0.2,0.4-0.4s-0.2-0.4-0.4-0.4H72z"/>
			</g>
			<g>
				<path d="M75.8,70.2c0-0.2-0.2-0.4-0.4-0.4h-2.1c-0.2,0-0.4,0.2-0.4,0.4s0.2,0.4,0.4,0.4h2.1C75.6,70.5,75.8,70.4,75.8,70.2z"/>
			</g>
			<g>
				<path d="M76.4,69.8c-0.2,0-0.4,0.2-0.4,0.4s0.2,0.4,0.4,0.4h0.3c0.2,0,0.4-0.2,0.4-0.4s-0.2-0.4-0.4-0.4H76.4z"/>
			</g>
			<g>
				<path d="M80.2,70.2c0-0.2-0.2-0.4-0.4-0.4h-2.1c-0.2,0-0.4,0.2-0.4,0.4s0.2,0.4,0.4,0.4h2.1C80,70.5,80.2,70.4,80.2,70.2z"/>
			</g>
			<g>
				<path d="M80.9,69.8c-0.2,0-0.4,0.2-0.4,0.4s0.2,0.4,0.4,0.4h0.3c0.2,0,0.4-0.2,0.4-0.4s-0.2-0.4-0.4-0.4H80.9z"/>
			</g>
			<g>
				<path d="M84.7,70.2c0-0.2-0.2-0.4-0.4-0.4h-2.1c-0.2,0-0.4,0.2-0.4,0.4s0.2,0.4,0.4,0.4h2.1C84.5,70.5,84.7,70.4,84.7,70.2z"/>
			</g>
			<g>
				<path d="M85.3,69.8c-0.2,0-0.4,0.2-0.4,0.4s0.2,0.4,0.4,0.4h0.3c0.2,0,0.4-0.2,0.4-0.4s-0.2-0.4-0.4-0.4H85.3z"/>
			</g>
			<g>
				<path d="M89.1,70.2c0-0.2-0.2-0.4-0.4-0.4h-2.1c-0.2,0-0.4,0.2-0.4,0.4s0.2,0.4,0.4,0.4h2.1C88.9,70.5,89.1,70.4,89.1,70.2z"/>
			</g>
			<g>
				<path d="M89.8,69.8c-0.2,0-0.4,0.2-0.4,0.4s0.2,0.4,0.4,0.4h0.3c0.2,0,0.4-0.2,0.4-0.4s-0.2-0.4-0.4-0.4H89.8z"/>
			</g>
			<g>
				<path d="M93.5,70.2c0-0.2-0.2-0.4-0.4-0.4h-2.1c-0.2,0-0.4,0.2-0.4,0.4s0.2,0.4,0.4,0.4h2.1C93.4,70.5,93.5,70.4,93.5,70.2z"/>
			</g>
			<g>
				<path d="M94.2,69.8c-0.2,0-0.4,0.2-0.4,0.4s0.2,0.4,0.4,0.4h0.3c0.2,0,0.4-0.2,0.4-0.4s-0.2-0.4-0.4-0.4H94.2z"/>
			</g>
			<g>
				<path d="M96.5,71.2c0-0.2-0.2-0.4-0.4-0.4h-2.1c-0.2,0-0.4,0.2-0.4,0.4s0.2,0.4,0.4,0.4h2.1C96.3,71.6,96.5,71.4,96.5,71.2z"/>
			</g>
			<g>
				<path d="M97.2,70.8c-0.2,0-0.4,0.2-0.4,0.4s0.2,0.4,0.4,0.4h0.3c0.2,0,0.4-0.2,0.4-0.4s-0.2-0.4-0.4-0.4H97.2z"/>
			</g>
			<g>
				<path d="M25.4,71.2c0-0.2-0.2-0.4-0.4-0.4h-2.1c-0.2,0-0.4,0.2-0.4,0.4s0.2,0.4,0.4,0.4H25C25.2,71.6,25.4,71.4,25.4,71.2z"/>
			</g>
			<g>
				<path d="M26,70.8c-0.2,0-0.4,0.2-0.4,0.4s0.2,0.4,0.4,0.4h0.3c0.2,0,0.4-0.2,0.4-0.4s-0.2-0.4-0.4-0.4H26z"/>
			</g>
			<g>
				<path d="M29.8,71.2c0-0.2-0.2-0.4-0.4-0.4h-2.1c-0.2,0-0.4,0.2-0.4,0.4s0.2,0.4,0.4,0.4h2.1C29.7,71.6,29.8,71.4,29.8,71.2z"/>
			</g>
			<g>
				<path d="M30.5,70.8c-0.2,0-0.4,0.2-0.4,0.4s0.2,0.4,0.4,0.4h0.3c0.2,0,0.4-0.2,0.4-0.4s-0.2-0.4-0.4-0.4H30.5z"/>
			</g>
			<g>
				<path d="M34.3,71.2c0-0.2-0.2-0.4-0.4-0.4h-2.1c-0.2,0-0.4,0.2-0.4,0.4s0.2,0.4,0.4,0.4h2.1C34.1,71.6,34.3,71.4,34.3,71.2z"/>
			</g>
			<g>
				<path d="M34.9,70.8c-0.2,0-0.4,0.2-0.4,0.4s0.2,0.4,0.4,0.4h0.3c0.2,0,0.4-0.2,0.4-0.4s-0.2-0.4-0.4-0.4H34.9z"/>
			</g>
			<g>
				<path d="M38.7,71.2c0-0.2-0.2-0.4-0.4-0.4h-2.1c-0.2,0-0.4,0.2-0.4,0.4s0.2,0.4,0.4,0.4h2.1C38.5,71.6,38.7,71.4,38.7,71.2z"/>
			</g>
			<g>
				<path d="M39.4,70.8c-0.2,0-0.4,0.2-0.4,0.4s0.2,0.4,0.4,0.4h0.3c0.2,0,0.4-0.2,0.4-0.4s-0.2-0.4-0.4-0.4H39.4z"/>
			</g>
			<g>
				<path d="M43.2,71.2c0-0.2-0.2-0.4-0.4-0.4h-2.1c-0.2,0-0.4,0.2-0.4,0.4s0.2,0.4,0.4,0.4h2.1C43,71.6,43.2,71.4,43.2,71.2z"/>
			</g>
			<g>
				<path d="M43.8,70.8c-0.2,0-0.4,0.2-0.4,0.4s0.2,0.4,0.4,0.4h0.3c0.2,0,0.4-0.2,0.4-0.4s-0.2-0.4-0.4-0.4H43.8z"/>
			</g>
			<g>
				<path d="M47.6,71.2c0-0.2-0.2-0.4-0.4-0.4h-2.1c-0.2,0-0.4,0.2-0.4,0.4s0.2,0.4,0.4,0.4h2.1C47.4,71.6,47.6,71.4,47.6,71.2z"/>
			</g>
			<g>
				<path d="M48.3,70.8c-0.2,0-0.4,0.2-0.4,0.4s0.2,0.4,0.4,0.4h0.3c0.2,0,0.4-0.2,0.4-0.4s-0.2-0.4-0.4-0.4H48.3z"/>
			</g>
			<g>
				<path d="M52.1,71.2c0-0.2-0.2-0.4-0.4-0.4h-2.1c-0.2,0-0.4,0.2-0.4,0.4s0.2,0.4,0.4,0.4h2.1C51.9,71.6,52.1,71.4,52.1,71.2z"/>
			</g>
			<g>
				<path d="M52.7,70.8c-0.2,0-0.4,0.2-0.4,0.4s0.2,0.4,0.4,0.4H53c0.2,0,0.4-0.2,0.4-0.4s-0.2-0.4-0.4-0.4H52.7z"/>
			</g>
			<g>
				<path d="M56.5,71.2c0-0.2-0.2-0.4-0.4-0.4h-2.1c-0.2,0-0.4,0.2-0.4,0.4s0.2,0.4,0.4,0.4h2.1C56.3,71.6,56.5,71.4,56.5,71.2z"/>
			</g>
			<g>
				<path d="M57.2,70.8c-0.2,0-0.4,0.2-0.4,0.4s0.2,0.4,0.4,0.4h0.3c0.2,0,0.4-0.2,0.4-0.4s-0.2-0.4-0.4-0.4H57.2z"/>
			</g>
			<g>
				<path d="M60.9,71.2c0-0.2-0.2-0.4-0.4-0.4h-2.1c-0.2,0-0.4,0.2-0.4,0.4s0.2,0.4,0.4,0.4h2.1C60.8,71.6,60.9,71.4,60.9,71.2z"/>
			</g>
			<g>
				<path d="M61.6,70.8c-0.2,0-0.4,0.2-0.4,0.4s0.2,0.4,0.4,0.4h0.3c0.2,0,0.4-0.2,0.4-0.4s-0.2-0.4-0.4-0.4H61.6z"/>
			</g>
			<g>
				<path d="M65.4,71.2c0-0.2-0.2-0.4-0.4-0.4h-2.1c-0.2,0-0.4,0.2-0.4,0.4s0.2,0.4,0.4,0.4H65C65.2,71.6,65.4,71.4,65.4,71.2z"/>
			</g>
			<g>
				<path d="M66.1,70.8c-0.2,0-0.4,0.2-0.4,0.4s0.2,0.4,0.4,0.4h0.3c0.2,0,0.4-0.2,0.4-0.4s-0.2-0.4-0.4-0.4H66.1z"/>
			</g>
			<g>
				<path d="M69.8,71.2c0-0.2-0.2-0.4-0.4-0.4h-2.1c-0.2,0-0.4,0.2-0.4,0.4s0.2,0.4,0.4,0.4h2.1C69.7,71.6,69.8,71.4,69.8,71.2z"/>
			</g>
			<g>
				<path d="M70.5,70.8c-0.2,0-0.4,0.2-0.4,0.4s0.2,0.4,0.4,0.4h0.3c0.2,0,0.4-0.2,0.4-0.4s-0.2-0.4-0.4-0.4H70.5z"/>
			</g>
			<g>
				<path d="M74.3,71.2c0-0.2-0.2-0.4-0.4-0.4h-2.1c-0.2,0-0.4,0.2-0.4,0.4s0.2,0.4,0.4,0.4h2.1C74.1,71.6,74.3,71.4,74.3,71.2z"/>
			</g>
			<g>
				<path d="M74.9,70.8c-0.2,0-0.4,0.2-0.4,0.4s0.2,0.4,0.4,0.4h0.3c0.2,0,0.4-0.2,0.4-0.4s-0.2-0.4-0.4-0.4H74.9z"/>
			</g>
			<g>
				<path d="M78.7,71.2c0-0.2-0.2-0.4-0.4-0.4h-2.1c-0.2,0-0.4,0.2-0.4,0.4s0.2,0.4,0.4,0.4h2.1C78.6,71.6,78.7,71.4,78.7,71.2z"/>
			</g>
			<g>
				<path d="M79.4,70.8c-0.2,0-0.4,0.2-0.4,0.4s0.2,0.4,0.4,0.4h0.3c0.2,0,0.4-0.2,0.4-0.4s-0.2-0.4-0.4-0.4H79.4z"/>
			</g>
			<g>
				<path d="M83.2,71.2c0-0.2-0.2-0.4-0.4-0.4h-2.1c-0.2,0-0.4,0.2-0.4,0.4s0.2,0.4,0.4,0.4h2.1C83,71.6,83.2,71.4,83.2,71.2z"/>
			</g>
			<g>
				<path d="M83.8,70.8c-0.2,0-0.4,0.2-0.4,0.4s0.2,0.4,0.4,0.4h0.3c0.2,0,0.4-0.2,0.4-0.4s-0.2-0.4-0.4-0.4H83.8z"/>
			</g>
			<g>
				<path d="M87.6,71.2c0-0.2-0.2-0.4-0.4-0.4h-2.1c-0.2,0-0.4,0.2-0.4,0.4s0.2,0.4,0.4,0.4h2.1C87.5,71.6,87.6,71.4,87.6,71.2z"/>
			</g>
			<g>
				<path d="M88.3,70.8c-0.2,0-0.4,0.2-0.4,0.4s0.2,0.4,0.4,0.4h0.3c0.2,0,0.4-0.2,0.4-0.4s-0.2-0.4-0.4-0.4H88.3z"/>
			</g>
			<g>
				<path d="M92.1,71.2c0-0.2-0.2-0.4-0.4-0.4h-2.1c-0.2,0-0.4,0.2-0.4,0.4s0.2,0.4,0.4,0.4h2.1C91.9,71.6,92.1,71.4,92.1,71.2z"/>
			</g>
			<g>
				<path d="M92.7,70.8c-0.2,0-0.4,0.2-0.4,0.4s0.2,0.4,0.4,0.4H93c0.2,0,0.4-0.2,0.4-0.4s-0.2-0.4-0.4-0.4H92.7z"/>
			</g>
			<g>
				<path d="M23.5,71.9h-2.1c-0.2,0-0.4,0.2-0.4,0.4s0.2,0.4,0.4,0.4h2.1c0.2,0,0.4-0.2,0.4-0.4S23.7,71.9,23.5,71.9z"/>
			</g>
			<g>
				<path d="M24.6,71.9c-0.2,0-0.4,0.2-0.4,0.4s0.2,0.4,0.4,0.4h0.3c0.2,0,0.4-0.2,0.4-0.4s-0.2-0.4-0.4-0.4H24.6z"/>
			</g>
			<g>
				<path d="M99.1,71.9H97c-0.2,0-0.4,0.2-0.4,0.4s0.2,0.4,0.4,0.4h2.1c0.2,0,0.4-0.2,0.4-0.4S99.3,71.9,99.1,71.9z"/>
			</g>
			<g>
				<path d="M100.4,71.9h-0.3c-0.2,0-0.4,0.2-0.4,0.4s0.2,0.4,0.4,0.4h0.3c0.2,0,0.4-0.2,0.4-0.4S100.6,71.9,100.4,71.9z"/>
			</g>
			<g>
				<path d="M28,71.9h-2.1c-0.2,0-0.4,0.2-0.4,0.4s0.2,0.4,0.4,0.4H28c0.2,0,0.4-0.2,0.4-0.4S28.2,71.9,28,71.9z"/>
			</g>
			<g>
				<path d="M29,71.9c-0.2,0-0.4,0.2-0.4,0.4s0.2,0.4,0.4,0.4h0.3c0.2,0,0.4-0.2,0.4-0.4s-0.2-0.4-0.4-0.4H29z"/>
			</g>
			<g>
				<path d="M32.4,71.9h-2.1c-0.2,0-0.4,0.2-0.4,0.4s0.2,0.4,0.4,0.4h2.1c0.2,0,0.4-0.2,0.4-0.4S32.6,71.9,32.4,71.9z"/>
			</g>
			<g>
				<path d="M33.5,71.9c-0.2,0-0.4,0.2-0.4,0.4s0.2,0.4,0.4,0.4h0.3c0.2,0,0.4-0.2,0.4-0.4s-0.2-0.4-0.4-0.4H33.5z"/>
			</g>
			<g>
				<path d="M36.9,71.9h-2.1c-0.2,0-0.4,0.2-0.4,0.4s0.2,0.4,0.4,0.4h2.1c0.2,0,0.4-0.2,0.4-0.4S37.1,71.9,36.9,71.9z"/>
			</g>
			<g>
				<path d="M37.9,71.9c-0.2,0-0.4,0.2-0.4,0.4s0.2,0.4,0.4,0.4h0.3c0.2,0,0.4-0.2,0.4-0.4s-0.2-0.4-0.4-0.4H37.9z"/>
			</g>
			<g>
				<path d="M41.3,71.9h-2.1c-0.2,0-0.4,0.2-0.4,0.4s0.2,0.4,0.4,0.4h2.1c0.2,0,0.4-0.2,0.4-0.4S41.5,71.9,41.3,71.9z"/>
			</g>
			<g>
				<path d="M42.3,71.9c-0.2,0-0.4,0.2-0.4,0.4s0.2,0.4,0.4,0.4h0.3c0.2,0,0.4-0.2,0.4-0.4s-0.2-0.4-0.4-0.4H42.3z"/>
			</g>
			<g>
				<path d="M45.8,71.9h-2.1c-0.2,0-0.4,0.2-0.4,0.4s0.2,0.4,0.4,0.4h2.1c0.2,0,0.4-0.2,0.4-0.4S46,71.9,45.8,71.9z"/>
			</g>
			<g>
				<path d="M46.8,71.9c-0.2,0-0.4,0.2-0.4,0.4s0.2,0.4,0.4,0.4h0.3c0.2,0,0.4-0.2,0.4-0.4s-0.2-0.4-0.4-0.4H46.8z"/>
			</g>
			<g>
				<path d="M50.2,71.9h-2.1c-0.2,0-0.4,0.2-0.4,0.4s0.2,0.4,0.4,0.4h2.1c0.2,0,0.4-0.2,0.4-0.4S50.4,71.9,50.2,71.9z"/>
			</g>
			<g>
				<path d="M51.2,71.9c-0.2,0-0.4,0.2-0.4,0.4s0.2,0.4,0.4,0.4h0.3c0.2,0,0.4-0.2,0.4-0.4s-0.2-0.4-0.4-0.4H51.2z"/>
			</g>
			<g>
				<path d="M54.6,71.9h-2.1c-0.2,0-0.4,0.2-0.4,0.4s0.2,0.4,0.4,0.4h2.1c0.2,0,0.4-0.2,0.4-0.4S54.8,71.9,54.6,71.9z"/>
			</g>
			<g>
				<path d="M55.7,71.9c-0.2,0-0.4,0.2-0.4,0.4s0.2,0.4,0.4,0.4H56c0.2,0,0.4-0.2,0.4-0.4s-0.2-0.4-0.4-0.4H55.7z"/>
			</g>
			<g>
				<path d="M59.1,71.9H57c-0.2,0-0.4,0.2-0.4,0.4s0.2,0.4,0.4,0.4h2.1c0.2,0,0.4-0.2,0.4-0.4S59.3,71.9,59.1,71.9z"/>
			</g>
			<g>
				<path d="M60.1,71.9c-0.2,0-0.4,0.2-0.4,0.4s0.2,0.4,0.4,0.4h0.3c0.2,0,0.4-0.2,0.4-0.4s-0.2-0.4-0.4-0.4H60.1z"/>
			</g>
			<g>
				<path d="M63.5,71.9h-2.1c-0.2,0-0.4,0.2-0.4,0.4s0.2,0.4,0.4,0.4h2.1c0.2,0,0.4-0.2,0.4-0.4S63.7,71.9,63.5,71.9z"/>
			</g>
			<g>
				<path d="M64.6,71.9c-0.2,0-0.4,0.2-0.4,0.4s0.2,0.4,0.4,0.4h0.3c0.2,0,0.4-0.2,0.4-0.4s-0.2-0.4-0.4-0.4H64.6z"/>
			</g>
			<g>
				<path d="M68,71.9h-2.1c-0.2,0-0.4,0.2-0.4,0.4s0.2,0.4,0.4,0.4H68c0.2,0,0.4-0.2,0.4-0.4S68.2,71.9,68,71.9z"/>
			</g>
			<g>
				<path d="M69,71.9c-0.2,0-0.4,0.2-0.4,0.4s0.2,0.4,0.4,0.4h0.3c0.2,0,0.4-0.2,0.4-0.4s-0.2-0.4-0.4-0.4H69z"/>
			</g>
			<g>
				<path d="M72.4,71.9h-2.1c-0.2,0-0.4,0.2-0.4,0.4s0.2,0.4,0.4,0.4h2.1c0.2,0,0.4-0.2,0.4-0.4S72.6,71.9,72.4,71.9z"/>
			</g>
			<g>
				<path d="M73.5,71.9c-0.2,0-0.4,0.2-0.4,0.4s0.2,0.4,0.4,0.4h0.3c0.2,0,0.4-0.2,0.4-0.4s-0.2-0.4-0.4-0.4H73.5z"/>
			</g>
			<g>
				<path d="M76.9,71.9h-2.1c-0.2,0-0.4,0.2-0.4,0.4s0.2,0.4,0.4,0.4h2.1c0.2,0,0.4-0.2,0.4-0.4S77.1,71.9,76.9,71.9z"/>
			</g>
			<g>
				<path d="M77.9,71.9c-0.2,0-0.4,0.2-0.4,0.4s0.2,0.4,0.4,0.4h0.3c0.2,0,0.4-0.2,0.4-0.4s-0.2-0.4-0.4-0.4H77.9z"/>
			</g>
			<g>
				<path d="M81.3,71.9h-2.1c-0.2,0-0.4,0.2-0.4,0.4s0.2,0.4,0.4,0.4h2.1c0.2,0,0.4-0.2,0.4-0.4S81.5,71.9,81.3,71.9z"/>
			</g>
			<g>
				<path d="M82.4,71.9c-0.2,0-0.4,0.2-0.4,0.4s0.2,0.4,0.4,0.4h0.3c0.2,0,0.4-0.2,0.4-0.4s-0.2-0.4-0.4-0.4H82.4z"/>
			</g>
			<g>
				<path d="M85.8,71.9h-2.1c-0.2,0-0.4,0.2-0.4,0.4s0.2,0.4,0.4,0.4h2.1c0.2,0,0.4-0.2,0.4-0.4S86,71.9,85.8,71.9z"/>
			</g>
			<g>
				<path d="M86.8,71.9c-0.2,0-0.4,0.2-0.4,0.4s0.2,0.4,0.4,0.4h0.3c0.2,0,0.4-0.2,0.4-0.4s-0.2-0.4-0.4-0.4H86.8z"/>
			</g>
			<g>
				<path d="M90.2,71.9h-2.1c-0.2,0-0.4,0.2-0.4,0.4s0.2,0.4,0.4,0.4h2.1c0.2,0,0.4-0.2,0.4-0.4S90.4,71.9,90.2,71.9z"/>
			</g>
			<g>
				<path d="M91.3,71.9c-0.2,0-0.4,0.2-0.4,0.4s0.2,0.4,0.4,0.4h0.3c0.2,0,0.4-0.2,0.4-0.4s-0.2-0.4-0.4-0.4H91.3z"/>
			</g>
			<g>
				<path d="M94.7,71.9h-2.1c-0.2,0-0.4,0.2-0.4,0.4s0.2,0.4,0.4,0.4h2.1c0.2,0,0.4-0.2,0.4-0.4S94.9,71.9,94.7,71.9z"/>
			</g>
			<g>
				<path d="M95.7,71.9c-0.2,0-0.4,0.2-0.4,0.4s0.2,0.4,0.4,0.4H96c0.2,0,0.4-0.2,0.4-0.4s-0.2-0.4-0.4-0.4H95.7z"/>
			</g>
			<g>
				<path d="M22,72.9H20c-0.2,0-0.4,0.2-0.4,0.4c0,0.2,0.2,0.4,0.4,0.4H22c0.2,0,0.4-0.2,0.4-0.4C22.4,73.1,22.2,72.9,22,72.9z"/>
			</g>
			<g>
				<path d="M23.4,72.9h-0.3c-0.2,0-0.4,0.2-0.4,0.4c0,0.2,0.2,0.4,0.4,0.4h0.3c0.2,0,0.4-0.2,0.4-0.4
					C23.7,73.1,23.6,72.9,23.4,72.9z"/>
			</g>
			<g>
				<path d="M97.6,72.9h-2.1c-0.2,0-0.4,0.2-0.4,0.4c0,0.2,0.2,0.4,0.4,0.4h2.1c0.2,0,0.4-0.2,0.4-0.4C98,73.1,97.8,72.9,97.6,72.9z
					"/>
			</g>
			<g>
				<path d="M99,72.9h-0.3c-0.2,0-0.4,0.2-0.4,0.4c0,0.2,0.2,0.4,0.4,0.4H99c0.2,0,0.4-0.2,0.4-0.4C99.3,73.1,99.2,72.9,99,72.9z"/>
			</g>
			<g>
				<path d="M26.5,72.9h-2.1c-0.2,0-0.4,0.2-0.4,0.4c0,0.2,0.2,0.4,0.4,0.4h2.1c0.2,0,0.4-0.2,0.4-0.4
					C26.9,73.1,26.7,72.9,26.5,72.9z"/>
			</g>
			<g>
				<path d="M27.8,72.9h-0.3c-0.2,0-0.4,0.2-0.4,0.4c0,0.2,0.2,0.4,0.4,0.4h0.3c0.2,0,0.4-0.2,0.4-0.4C28.2,73.1,28,72.9,27.8,72.9z
					"/>
			</g>
			<g>
				<path d="M30.9,72.9h-2.1c-0.2,0-0.4,0.2-0.4,0.4c0,0.2,0.2,0.4,0.4,0.4h2.1c0.2,0,0.4-0.2,0.4-0.4
					C31.3,73.1,31.1,72.9,30.9,72.9z"/>
			</g>
			<g>
				<path d="M32.3,72.9H32c-0.2,0-0.4,0.2-0.4,0.4c0,0.2,0.2,0.4,0.4,0.4h0.3c0.2,0,0.4-0.2,0.4-0.4C32.6,73.1,32.5,72.9,32.3,72.9z
					"/>
			</g>
			<g>
				<path d="M35.4,72.9h-2.1c-0.2,0-0.4,0.2-0.4,0.4c0,0.2,0.2,0.4,0.4,0.4h2.1c0.2,0,0.4-0.2,0.4-0.4
					C35.8,73.1,35.6,72.9,35.4,72.9z"/>
			</g>
			<g>
				<path d="M36.7,72.9h-0.3c-0.2,0-0.4,0.2-0.4,0.4c0,0.2,0.2,0.4,0.4,0.4h0.3c0.2,0,0.4-0.2,0.4-0.4
					C37.1,73.1,36.9,72.9,36.7,72.9z"/>
			</g>
			<g>
				<path d="M39.8,72.9h-2.1c-0.2,0-0.4,0.2-0.4,0.4c0,0.2,0.2,0.4,0.4,0.4h2.1c0.2,0,0.4-0.2,0.4-0.4C40.2,73.1,40,72.9,39.8,72.9z
					"/>
			</g>
			<g>
				<path d="M41.2,72.9h-0.3c-0.2,0-0.4,0.2-0.4,0.4c0,0.2,0.2,0.4,0.4,0.4h0.3c0.2,0,0.4-0.2,0.4-0.4
					C41.5,73.1,41.4,72.9,41.2,72.9z"/>
			</g>
			<g>
				<path d="M44.3,72.9h-2.1c-0.2,0-0.4,0.2-0.4,0.4c0,0.2,0.2,0.4,0.4,0.4h2.1c0.2,0,0.4-0.2,0.4-0.4
					C44.6,73.1,44.5,72.9,44.3,72.9z"/>
			</g>
			<g>
				<path d="M45.6,72.9h-0.3c-0.2,0-0.4,0.2-0.4,0.4c0,0.2,0.2,0.4,0.4,0.4h0.3c0.2,0,0.4-0.2,0.4-0.4C46,73.1,45.8,72.9,45.6,72.9z
					"/>
			</g>
			<g>
				<path d="M48.7,72.9h-2.1c-0.2,0-0.4,0.2-0.4,0.4c0,0.2,0.2,0.4,0.4,0.4h2.1c0.2,0,0.4-0.2,0.4-0.4
					C49.1,73.1,48.9,72.9,48.7,72.9z"/>
			</g>
			<g>
				<path d="M50.1,72.9h-0.3c-0.2,0-0.4,0.2-0.4,0.4c0,0.2,0.2,0.4,0.4,0.4h0.3c0.2,0,0.4-0.2,0.4-0.4
					C50.4,73.1,50.3,72.9,50.1,72.9z"/>
			</g>
			<g>
				<path d="M53.2,72.9h-2.1c-0.2,0-0.4,0.2-0.4,0.4c0,0.2,0.2,0.4,0.4,0.4h2.1c0.2,0,0.4-0.2,0.4-0.4
					C53.5,73.1,53.4,72.9,53.2,72.9z"/>
			</g>
			<g>
				<path d="M54.5,72.9h-0.3c-0.2,0-0.4,0.2-0.4,0.4c0,0.2,0.2,0.4,0.4,0.4h0.3c0.2,0,0.4-0.2,0.4-0.4
					C54.9,73.1,54.7,72.9,54.5,72.9z"/>
			</g>
			<g>
				<path d="M57.6,72.9h-2.1c-0.2,0-0.4,0.2-0.4,0.4c0,0.2,0.2,0.4,0.4,0.4h2.1c0.2,0,0.4-0.2,0.4-0.4C58,73.1,57.8,72.9,57.6,72.9z
					"/>
			</g>
			<g>
				<path d="M58.9,72.9h-0.3c-0.2,0-0.4,0.2-0.4,0.4c0,0.2,0.2,0.4,0.4,0.4h0.3c0.2,0,0.4-0.2,0.4-0.4
					C59.3,73.1,59.1,72.9,58.9,72.9z"/>
			</g>
			<g>
				<path d="M62.1,72.9H60c-0.2,0-0.4,0.2-0.4,0.4c0,0.2,0.2,0.4,0.4,0.4h2.1c0.2,0,0.4-0.2,0.4-0.4C62.4,73.1,62.3,72.9,62.1,72.9z
					"/>
			</g>
			<g>
				<path d="M63.4,72.9h-0.3c-0.2,0-0.4,0.2-0.4,0.4c0,0.2,0.2,0.4,0.4,0.4h0.3c0.2,0,0.4-0.2,0.4-0.4
					C63.8,73.1,63.6,72.9,63.4,72.9z"/>
			</g>
			<g>
				<path d="M66.5,72.9h-2.1c-0.2,0-0.4,0.2-0.4,0.4c0,0.2,0.2,0.4,0.4,0.4h2.1c0.2,0,0.4-0.2,0.4-0.4
					C66.9,73.1,66.7,72.9,66.5,72.9z"/>
			</g>
			<g>
				<path d="M67.8,72.9h-0.3c-0.2,0-0.4,0.2-0.4,0.4c0,0.2,0.2,0.4,0.4,0.4h0.3c0.2,0,0.4-0.2,0.4-0.4C68.2,73.1,68,72.9,67.8,72.9z
					"/>
			</g>
			<g>
				<path d="M70.9,72.9h-2.1c-0.2,0-0.4,0.2-0.4,0.4c0,0.2,0.2,0.4,0.4,0.4h2.1c0.2,0,0.4-0.2,0.4-0.4
					C71.3,73.1,71.2,72.9,70.9,72.9z"/>
			</g>
			<g>
				<path d="M72.3,72.9H72c-0.2,0-0.4,0.2-0.4,0.4c0,0.2,0.2,0.4,0.4,0.4h0.3c0.2,0,0.4-0.2,0.4-0.4C72.7,73.1,72.5,72.9,72.3,72.9z
					"/>
			</g>
			<g>
				<path d="M75.4,72.9h-2.1c-0.2,0-0.4,0.2-0.4,0.4c0,0.2,0.2,0.4,0.4,0.4h2.1c0.2,0,0.4-0.2,0.4-0.4
					C75.8,73.1,75.6,72.9,75.4,72.9z"/>
			</g>
			<g>
				<path d="M76.7,72.9h-0.3c-0.2,0-0.4,0.2-0.4,0.4c0,0.2,0.2,0.4,0.4,0.4h0.3c0.2,0,0.4-0.2,0.4-0.4
					C77.1,73.1,76.9,72.9,76.7,72.9z"/>
			</g>
			<g>
				<path d="M79.8,72.9h-2.1c-0.2,0-0.4,0.2-0.4,0.4c0,0.2,0.2,0.4,0.4,0.4h2.1c0.2,0,0.4-0.2,0.4-0.4C80.2,73.1,80,72.9,79.8,72.9z
					"/>
			</g>
			<g>
				<path d="M81.2,72.9h-0.3c-0.2,0-0.4,0.2-0.4,0.4c0,0.2,0.2,0.4,0.4,0.4h0.3c0.2,0,0.4-0.2,0.4-0.4
					C81.5,73.1,81.4,72.9,81.2,72.9z"/>
			</g>
			<g>
				<path d="M84.3,72.9h-2.1c-0.2,0-0.4,0.2-0.4,0.4c0,0.2,0.2,0.4,0.4,0.4h2.1c0.2,0,0.4-0.2,0.4-0.4
					C84.7,73.1,84.5,72.9,84.3,72.9z"/>
			</g>
			<g>
				<path d="M85.6,72.9h-0.3c-0.2,0-0.4,0.2-0.4,0.4c0,0.2,0.2,0.4,0.4,0.4h0.3c0.2,0,0.4-0.2,0.4-0.4C86,73.1,85.8,72.9,85.6,72.9z
					"/>
			</g>
			<g>
				<path d="M88.7,72.9h-2.1c-0.2,0-0.4,0.2-0.4,0.4c0,0.2,0.2,0.4,0.4,0.4h2.1c0.2,0,0.4-0.2,0.4-0.4
					C89.1,73.1,88.9,72.9,88.7,72.9z"/>
			</g>
			<g>
				<path d="M90.1,72.9h-0.3c-0.2,0-0.4,0.2-0.4,0.4c0,0.2,0.2,0.4,0.4,0.4h0.3c0.2,0,0.4-0.2,0.4-0.4
					C90.4,73.1,90.3,72.9,90.1,72.9z"/>
			</g>
			<g>
				<path d="M93.2,72.9h-2.1c-0.2,0-0.4,0.2-0.4,0.4c0,0.2,0.2,0.4,0.4,0.4h2.1c0.2,0,0.4-0.2,0.4-0.4
					C93.5,73.1,93.4,72.9,93.2,72.9z"/>
			</g>
			<g>
				<path d="M94.5,72.9h-0.3c-0.2,0-0.4,0.2-0.4,0.4c0,0.2,0.2,0.4,0.4,0.4h0.3c0.2,0,0.4-0.2,0.4-0.4
					C94.9,73.1,94.7,72.9,94.5,72.9z"/>
			</g>
		</g>
	</g>
	<g>
		<path class="st4" d="M66.9,67.3H54.1v-3.4h12.7V67.3z M55,66.4h11v-1.6H55V66.4z"/>
	</g>
	<g>
		<path class="st2" d="M12.3,75.1H8c-0.5,0-0.9-0.4-0.9-0.9V56.7c0-0.5,0.4-0.9,0.9-0.9h4.3V75.1z"/>
		<path d="M12.3,75.1H8c-0.5,0-1-0.4-1-1V56.7c0-0.5,0.4-1,1-1h4.4V75.1z M8,55.9c-0.4,0-0.8,0.4-0.8,0.8v17.5C7.1,74.6,7.5,75,8,75
			h4.2V55.9H8z"/>
	</g>
	<g>
		<path class="st2" d="M108.7,75.1h4.3c0.5,0,0.9-0.4,0.9-0.9V56.7c0-0.5-0.4-0.9-0.9-0.9h-4.3V75.1z"/>
		<path d="M113,75.1h-4.4V55.7h4.4c0.5,0,1,0.4,1,1v17.5C114,74.7,113.6,75.1,113,75.1z M108.8,75h4.2c0.4,0,0.8-0.4,0.8-0.8V56.7
			c0-0.4-0.4-0.8-0.8-0.8h-4.2V75z"/>
	</g>
	<g>
		<path d="M108.7,55.8l-1.3,2.4c0,0-0.1,0-0.1,1.3c0,1.3,0,7.7,0,7.7v4.7c0,0,0,0.6,0.2,0.9c0.2,0.3,1,1.5,1,1.5h0.2V55.8z"/>
		<path d="M108.8,74.4h-0.3l-1-1.5c-0.2-0.3-0.2-0.9-0.2-0.9l0-12.5c0-1.1,0.1-1.3,0.2-1.4l1.5-2.6V74.4z M108.5,74.2h0.1V56.1
			l-1.2,2.2h0c0,0.1-0.1,0.3-0.1,1.3v12.4c0,0,0,0.6,0.2,0.8L108.5,74.2z"/>
	</g>
	<g>
		<path class="st5" d="M20.7,71.6L20.7,71.6l-0.1-12.4h0.1c0.2,0,0.4,0.2,0.4,0.4v11.7C21.1,71.4,20.9,71.6,20.7,71.6z"/>
	</g>
	<g>
		<path class="st5" d="M100.2,71.6L100.2,71.6l0.1-12.4h-0.1c-0.2,0-0.4,0.2-0.4,0.4v11.7C99.8,71.4,99.9,71.6,100.2,71.6z"/>
	</g>
</g>
</svg>
