<?xml version="1.0" encoding="utf-8"?>
<!-- Generator: Adobe Illustrator 22.1.0, SVG Export Plug-In . SVG Version: 6.00 Build 0)  -->
<svg version="1.1" id="Layer_1" xmlns="http://www.w3.org/2000/svg" xmlns:xlink="http://www.w3.org/1999/xlink" x="0px" y="0px"
	 viewBox="0 0 24 24" style="enable-background:new 0 0 24 24;" xml:space="preserve">
<title>search</title>
<desc>Created with Sketch.</desc>
<g id="search">
	<g>
		<path d="M19.3,20.7l-5.1-5.1C13,16.5,11.6,17,10,17c-3.9,0-7-3.1-7-7c0-3.9,3.1-7,7-7c3.9,0,7,3.1,7,7c0,1.6-0.5,3-1.4,4.2
			l5.1,5.1L19.3,20.7z M10,5c-2.8,0-5,2.2-5,5s2.2,5,5,5s5-2.2,5-5S12.8,5,10,5z"/>
	</g>
</g>
</svg>
