<?xml version="1.0" encoding="UTF-8"?>
<svg width="48px" height="48px" viewBox="0 0 48 48" version="1.1" xmlns="http://www.w3.org/2000/svg" xmlns:xlink="http://www.w3.org/1999/xlink">
    <!-- Generator: Sketch 52.4 (67378) - http://www.bohemiancoding.com/sketch -->
    <title>SEMC-Logo-large</title>
    <desc>Created with Sketch.</desc>
    <g id="SEMC-Logo-large" stroke="none" stroke-width="1" fill="none" fill-rule="evenodd">
        <g id="SEMC" transform="translate(2.000000, 2.000000)" fill="#01A982">
            <path d="M0,26.8822322 L0.0001107293,18.1766682 L7.85923353,13.4589463 L7.85923353,4.8152637 L15.8179573,0 L22.9145428,4.2955928 L30.0110729,0 L38.0029602,4.8152637 L38.0029602,13.4631417 L44.9668366,17.7367089 L45,27.3325695 L38.0029602,31.5935507 L38.0029602,40.2194031 L30.0442364,45 L22.8953313,40.7007639 L15.8179573,45 L7.85923353,40.2194031 L7.85923353,31.5935507 L0,26.8822322 Z M15.331697,18.5895636 L9.90522145,15.5 L9.90522145,24.1044487 L2,19.3905286 L2,25.8973359 L9.90522145,30.6187499 L9.90522145,39.2580593 L15.331697,42.5 L15.331697,33.8584701 L22.5,38.16755 L22.5,32.3953725 L15.331697,28.2109698 L15.331697,18.5895636 Z M16.5,42.5 L21,39.7466009 L16.5,37 L16.5,42.5 Z M36.4786733,15.5 L31.1211623,18.7281727 L31.1211623,28.2431583 L24,32.3984274 L24,38.1673106 L31.1211623,33.8206231 L31.1211623,42.5 L36.4786733,39.2586624 L36.4786733,30.6484428 L43.5,26.3258632 L43.5,19.8491871 L36.4786733,24.1297725 L36.4786733,15.5 Z M24.5,39.7393121 L29,42.5 L29,37 L24.5,39.7393121 Z M23.0086049,23.5 L17,27.0428199 L22.9927147,30.5 L29,27.0557253 L23.0086049,23.5 Z M16.5,18.655349 L16.5,25 L22,21.844651 L22,15.5 L16.5,18.655349 Z M29.5,18.6423235 L24,15.5 L24,21.8576765 L29.5,25 L29.5,18.6423235 Z M3.5,18.2499719 L8,15.5 L8,21 L3.5,18.2499719 Z M38,21 L42.5,18.2655364 L38,15.5 L38,21 Z M35.4697676,5.22257614 L30.1174192,2 L23.0071004,6.27844102 L15.8967263,2 L10.5,5.24929715 L17.657692,9.52180017 L10.5796026,13.7864958 L15.9148657,17 L22.2376452,13.2245848 L23.0403283,12.7306309 L30.1779948,16.9926875 L35.5,13.8002412 L28.5225373,9.52180017 L35.4697676,5.22257614 Z M9.50220843,7 L9.5,12.5 L14,9.73578295 L9.50220843,7 Z M32,9.77958967 L36.5,12.5 L36.5,7 L32,9.77958967 Z" id="Shape"></path>
        </g>
    </g>
</svg>