<?xml version="1.0" encoding="utf-8"?>
<!-- Generator: Adobe Illustrator 22.1.0, SVG Export Plug-In . SVG Version: 6.00 Build 0)  -->
<svg version="1.1" id="Layer_1" xmlns="http://www.w3.org/2000/svg" xmlns:xlink="http://www.w3.org/1999/xlink" x="0px" y="0px"
	 viewBox="0 0 22 22" style="enable-background:new 0 0 22 22;" xml:space="preserve">
<title>settings</title>
<desc>Created with Sketch.</desc>
<g id="settings">
	<g id="Wrench">
		<path d="M3.6,22c-1,0-1.9-0.4-2.6-1.1c-1.2-1.2-1.6-3.5,0.2-5.4c1.5-1.5,3.7-3.7,5.5-5.5c0-0.7,0-1.8,0-2.5C6.8,3.3,10,0,14.3,0
			c1.3,0,2.1,0.4,2.4,1.1C16.9,1.5,17,2.5,16,3.5c-0.6,0.6-1.5,1.5-2.2,2.2l2.5,2.5c0.7-0.7,1.6-1.6,2.2-2.2
			c0.7-0.7,1.5-1.5,2.5-1.1c1,0.4,1.1,1.5,1.1,2.8c0,4.3-3.3,7.6-7.7,7.7l0,0c-0.7,0-1.8,0-2.4,0C10.2,17,8,19.2,6.5,20.8
			C5.5,21.6,4.5,22,3.6,22z M14.3,1.9c-3.3,0-5.7,2.4-5.7,5.7c0,0.9,0,2.8,0,2.9v0.4l-0.3,0.3c-1.8,1.8-4.1,4.2-5.7,5.7
			c-1,1-0.8,2-0.2,2.7c0.6,0.6,1.7,0.8,2.7-0.2c1.5-1.6,3.9-3.9,5.7-5.7l0.3-0.3h0.4c0.1,0,1.9,0,2.9,0c3.3-0.1,5.7-2.5,5.7-5.7
			c0-0.2,0-0.4,0-0.6c-0.1,0.1-0.2,0.2-0.3,0.3c-1,1-2.9,2.9-2.9,2.9l-0.7,0.7l-5.2-5.2l0.7-0.7c0,0,1.9-1.9,2.9-2.9
			c0.1-0.1,0.2-0.2,0.2-0.3C14.7,1.9,14.5,1.9,14.3,1.9z"/>
	</g>
</g>
</svg>
