<?xml version="1.0" encoding="UTF-8"?>
<svg width="24px" height="24px" viewBox="0 0 24 24" version="1.1" xmlns="http://www.w3.org/2000/svg" xmlns:xlink="http://www.w3.org/1999/xlink">
    <!-- Generator: Sketch 52.4 (67378) - http://www.bohemiancoding.com/sketch -->
    <title>table-add</title>
    <desc>Created with Sketch.</desc>
    <g id="table-add" stroke="none" stroke-width="1" fill="none" fill-rule="evenodd">
        <path d="M8,5 L8,23 M16,5 L16,11 M1,11 L17,11 M1,5 L23,5 M1,17 L11,17 M17,23 L1,23 L1,1 L23,1 L23,17 M17,23 C20.3137085,23 23,20.3137085 23,17 C23,13.6862915 20.3137085,11 17,11 C13.6862915,11 11,13.6862915 11,17 C11,20.3137085 13.6862915,23 17,23 Z M17,14 L17,20 M17,14 L17,20 M14,17 L20,17" id="Group" stroke="#000000" stroke-width="2"></path>
    </g>
</svg>