<?xml version="1.0" encoding="utf-8"?>
<!-- Generator: Adobe Illustrator 22.1.0, SVG Export Plug-In . SVG Version: 6.00 Build 0)  -->
<svg version="1.1" id="Layer_1" xmlns="http://www.w3.org/2000/svg" xmlns:xlink="http://www.w3.org/1999/xlink" x="0px" y="0px"
	 viewBox="0 0 22 22" style="enable-background:new 0 0 22 22;" xml:space="preserve">
<title>user</title>
<desc>Created with Sketch.</desc>
<g id="user">
	<g id="User">
		<path d="M20.5,22h-1.9v-2.9c0-4.9-4.8-5.7-7.6-5.7s-7.6,0.8-7.6,5.7V22H1.5v-2.9c0-3.5,2-6.1,5.5-7C5.4,10.9,4.3,9,4.3,6.8
			c0-3.7,2.9-6.7,6.7-6.7s6.6,2.9,6.6,6.7c0,2.2-1,4.1-2.7,5.3c3.5,1,5.5,3.5,5.5,7V22z M11,2C8.3,2,6.2,4.1,6.2,6.8
			s2.1,4.8,4.8,4.8s4.8-2.1,4.8-4.8S13.7,2,11,2z"/>
	</g>
</g>
</svg>
