<?xml version="1.0" encoding="utf-8"?>
<!-- Generator: Adobe Illustrator 22.1.0, SVG Export Plug-In . SVG Version: 6.00 Build 0)  -->
<svg version="1.1" id="Layer_1" xmlns="http://www.w3.org/2000/svg" xmlns:xlink="http://www.w3.org/1999/xlink" x="0px" y="0px"
	 viewBox="0 0 22 22" style="enable-background:new 0 0 22 22;" xml:space="preserve">
<title>volume</title>
<desc>Created with Sketch.</desc>
<g id="volume">
	<g id="storage">
		<path d="M11,22c-8.7,0-10.7-3.2-10.9-3.6L0,18.2V3.8l0.1-0.2C0.3,3.2,2.3,0,11,0c8.7,0,10.7,3.2,10.9,3.6L22,3.8v14.4l-0.1,0.2
			C21.7,18.8,19.7,22,11,22z M2,17.6c0.5,0.5,2.6,2.4,9,2.4c6.3,0,8.5-1.8,9-2.4v-3.7c-1.7,0.9-4.7,2.1-9,2.1c-4.3,0-7.3-1.2-9-2.1
			V17.6z M2,11.5c1,0.7,4,2.5,9,2.5c5,0,8-1.8,9-2.5V7.9c-1.7,0.9-4.7,2.1-9,2.1c-4.3,0-7.3-1.2-9-2.1V11.5z M2,5.5C3,6.2,6,8,11,8
			c5,0,8-1.8,9-2.5V4.4C19.5,3.9,17.4,2,11,2C4.7,2,2.5,3.8,2,4.4V5.5z"/>
	</g>
</g>
</svg>
