<?xml version="1.0" encoding="UTF-8"?>
<svg width="24px" height="24px" viewBox="0 0 24 24" version="1.1" xmlns="http://www.w3.org/2000/svg" xmlns:xlink="http://www.w3.org/1999/xlink">
    <!-- Generator: Sketch 52.4 (67378) - http://www.bohemiancoding.com/sketch -->
    <title>wheelchair</title>
    <desc>Created with Sketch.</desc>
    <g id="wheelchair" stroke="none" stroke-width="1" fill="none" fill-rule="evenodd" stroke-linecap="round" stroke-linejoin="round">
        <path d="M10,3 L10,12 L17,12 L19,18 L21,18 M15,9 L9,9 C5.6862915,9 3,11.6862915 3,15 C3,18.3137085 5.6862915,21 9,21 C12.3137085,21 15,18.3137085 15,15 M11,4 C11.5522847,4 12,3.55228475 12,3 C12,2.44771525 11.5522847,2 11,2 C10.4477153,2 10,2.44771525 10,3 C10,3.55228475 10.4477153,4 11,4 Z" id="Shape" stroke="#000000" stroke-width="2"></path>
    </g>
</svg>