<?xml version="1.0" encoding="UTF-8"?>
<svg width="24px" height="24px" viewBox="0 0 24 24" version="1.1" xmlns="http://www.w3.org/2000/svg" xmlns:xlink="http://www.w3.org/1999/xlink">
    <!-- Generator: Sketch 52.4 (67378) - http://www.bohemiancoding.com/sketch -->
    <title>workshop</title>
    <desc>Created with Sketch.</desc>
    <g id="workshop" stroke="none" stroke-width="1" fill="none" fill-rule="evenodd">
        <path d="M19,7 C19,7 14,14 6.5,14 C4.5,14 1,15 1,19 L1,23 L12,23 L12,19 C12,16.5 15,18 19,11 L17.5,9.5 M3,5 L3,2 L23,2 L23,16 L20,16 M11,1 L15,1 L15,3 L11,3 L11,1 Z M6.5,14 C8.43299662,14 10,12.4329966 10,10.5 C10,8.56700338 8.43299662,7 6.5,7 C4.56700338,7 3,8.56700338 3,10.5 C3,12.4329966 4.56700338,14 6.5,14 Z" id="Group" stroke="#000000" stroke-width="2"></path>
    </g>
</svg>