<?xml version="1.0" encoding="utf-8"?>
<!-- Generator: Adobe Illustrator 22.1.0, SVG Export Plug-In . SVG Version: 6.00 Build 0)  -->
<svg version="1.1" id="Layer_1" xmlns="http://www.w3.org/2000/svg" xmlns:xlink="http://www.w3.org/1999/xlink" x="0px" y="0px"
	 viewBox="0 0 22 28" style="enable-background:new 0 0 22 28;" xml:space="preserve">
<style type="text/css">
	.st0{fill:#425563;}
</style>
<title>storage</title>
<desc>Created with Sketch.</desc>
<g id="SEMC-Example">
	<g id="G2-Dashboard-Copy" transform="translate(-465.000000, -398.000000)">
		<g id="Group-12-Copy-2" transform="translate(432.000000, 100.000000)">
			<g id="Group-5" transform="translate(31.000000, 298.000000)">
				<g id="drives" transform="translate(0.000000, 1.000000)">
					<g id="Group-2" transform="translate(3.058824, 0.787879)">
						<g id="Rectangle">
							<path class="st0" d="M20.9,25.4H-1V-1h21.9V25.4z M1,23.4h17.9V1H1V23.4z"/>
						</g>
						<g id="Path">
							<path class="st0" d="M9.9,20.7c-4.3,0-7.9-3.6-7.9-8.1s3.5-8.1,7.9-8.1c4.3,0,7.9,3.6,7.9,8.1S14.3,20.7,9.9,20.7z M9.9,6.5
								c-3.2,0-5.9,2.7-5.9,6.1c0,3.4,2.6,6.1,5.9,6.1c3.2,0,5.9-2.7,5.9-6.1C15.8,9.2,13.2,6.5,9.9,6.5z"/>
						</g>
						<g id="Path_1_">
							<ellipse class="st0" cx="9.9" cy="12.6" rx="1.5" ry="1.6"/>
						</g>
						<g id="Group" transform="translate(3.058824, 3.151515)">
							<g id="Path_2_">
								<ellipse class="st0" cx="0.9" cy="0.9" rx="1" ry="1"/>
							</g>
							<g id="Path_3_">
								<ellipse class="st0" cx="13.4" cy="0.9" rx="1" ry="1"/>
							</g>
						</g>
						<g id="Group_1_" transform="translate(3.058824, 19.696970)">
							<g id="Path_4_">
								<ellipse class="st0" cx="0.9" cy="0.9" rx="1" ry="1"/>
							</g>
							<g id="Path_5_">
								<ellipse class="st0" cx="13.4" cy="0.9" rx="1" ry="1"/>
							</g>
						</g>
					</g>
				</g>
			</g>
		</g>
	</g>
</g>
</svg>
