<?xml version="1.0" encoding="UTF-8"?>
<svg width="234px" height="375px" viewBox="0 0 234 375" version="1.1" xmlns="http://www.w3.org/2000/svg" xmlns:xlink="http://www.w3.org/1999/xlink">
    <!-- Generator: Sketch 52.4 (67378) - http://www.bohemiancoding.com/sketch -->
    <title>health-chart</title>
    <desc>Created with Sketch.</desc>
    <g id="SEMC-Example" stroke="none" stroke-width="1" fill="none" fill-rule="evenodd">
        <g id="G2-Dashboard" transform="translate(-481.000000, -468.000000)">
            <g id="Group-4" transform="translate(437.000000, 269.000000)">
                <g id="health-chart" transform="translate(45.000000, 207.000000)">
                    <g id="Group-21">
                        <g id="Group-8" transform="translate(1.000000, 0.000000)">
                            <g id="Lines" transform="translate(115.000000, 84.000000) scale(1, -1) translate(-115.000000, -84.000000) translate(31.000000, 0.000000)">
                                <g id="Baseline" stroke="#333333" stroke-opacity="0.1" stroke-width="8">
                                    <circle id="1" cx="84" cy="84" r="84"></circle>
                                </g>
                                <g id="Normal" stroke="#01A982" stroke-linecap="round" stroke-width="15">
                                    <path d="M84,168 C130.391919,168 168,130.391919 168,84 C168,64.0480248 161.04386,45.720743 149.480168,31.3311368" id="4" stroke-linejoin="round"></path>
                                    <path d="M149.480168,31.3311368 C137.642238,16.6002752 120.975624,5.99607107 102,2" id="3"></path>
                                    <path d="M102,2 C95.8819454,0.632177093 90.0147991,0 84,0" id="2"></path>
                                    <path d="M84,0 C37.608081,0 0,37.608081 0,84 C0,130.391919 37.608081,168 84,168 L84,168" id="1"></path>
                                </g>
                            </g>
                            <g id="Group-2" transform="translate(0.000000, 70.000000)" fill-rule="nonzero">
                                <path d="M78.084,13.336 L83.172,13.336 L83.172,16 L72.804,16 L72.804,15.904 L77.1,10.288 C78.492,8.512 79.452,7.312 79.452,5.776 C79.452,4.624 78.732,3.856 77.34,3.856 C75.708,3.856 74.196,4.864 73.188,5.776 L73.188,2.776 C74.244,1.792 75.972,1.024 77.892,1.024 C80.724,1.024 82.548,2.728 82.548,5.392 C82.548,7.336 81.3,9.088 79.884,10.984 L78.084,13.336 Z M90.804,16.24 C87.348,16.24 85.164,13.12 85.164,8.632 C85.164,4.144 87.348,1.024 90.804,1.024 C94.26,1.024 96.444,4.144 96.444,8.632 C96.444,13.12 94.26,16.24 90.804,16.24 Z M90.804,3.76 C88.884,3.76 88.14,5.896 88.14,8.632 C88.14,11.368 88.884,13.504 90.804,13.504 C92.7,13.504 93.444,11.368 93.444,8.632 C93.444,5.896 92.7,3.76 90.804,3.76 Z M98.484,3.952 L98.484,1.264 L108.084,1.264 L108.084,1.336 L104.796,7.144 C106.836,7.72 108.156,9.28 108.156,11.368 C108.156,14.416 105.66,16.264 102.756,16.264 C100.692,16.264 99.396,15.736 98.364,15.016 L98.364,12.04 C99.516,13.072 100.98,13.672 102.492,13.672 C104.148,13.672 105.324,12.928 105.324,11.392 C105.324,9.616 103.38,8.824 101.076,8.872 L101.076,8.8 L103.812,3.952 L98.484,3.952 Z M109.644,18.016 L115.596,0.4 L118.356,0.4 L112.404,18.016 L109.644,18.016 Z M124.476,13.336 L129.564,13.336 L129.564,16 L119.196,16 L119.196,15.904 L123.492,10.288 C124.884,8.512 125.844,7.312 125.844,5.776 C125.844,4.624 125.124,3.856 123.732,3.856 C122.1,3.856 120.588,4.864 119.58,5.776 L119.58,2.776 C120.636,1.792 122.364,1.024 124.284,1.024 C127.116,1.024 128.94,2.728 128.94,5.392 C128.94,7.336 127.692,9.088 126.276,10.984 L124.476,13.336 Z M137.196,16.24 C133.74,16.24 131.556,13.12 131.556,8.632 C131.556,4.144 133.74,1.024 137.196,1.024 C140.652,1.024 142.836,4.144 142.836,8.632 C142.836,13.12 140.652,16.24 137.196,16.24 Z M137.196,3.76 C135.276,3.76 134.532,5.896 134.532,8.632 C134.532,11.368 135.276,13.504 137.196,13.504 C139.092,13.504 139.836,11.368 139.836,8.632 C139.836,5.896 139.092,3.76 137.196,3.76 Z M144.876,3.952 L144.876,1.264 L154.476,1.264 L154.476,1.336 L151.188,7.144 C153.228,7.72 154.548,9.28 154.548,11.368 C154.548,14.416 152.052,16.264 149.148,16.264 C147.084,16.264 145.788,15.736 144.756,15.016 L144.756,12.04 C145.908,13.072 147.372,13.672 148.884,13.672 C150.54,13.672 151.716,12.928 151.716,11.392 C151.716,9.616 149.772,8.824 147.468,8.872 L147.468,8.8 L150.204,3.952 L144.876,3.952 Z" id="Combined-Shape" fill="#52697A"></path>
                                <path d="M64.363,29.404 L65.469,29.404 L65.469,38 L64.363,38 L64.363,34.08 L59.505,34.08 L59.505,38 L58.399,38 L58.399,29.404 L59.505,29.404 L59.505,33.086 L64.363,33.086 L64.363,29.404 Z M72.301,35.074 L68.017,35.074 C68.059,36.516 68.969,37.202 70.103,37.202 C70.803,37.202 71.307,37.034 71.867,36.614 L71.867,37.58 C71.363,37.972 70.719,38.126 69.977,38.126 C68.185,38.126 66.981,36.908 66.981,34.948 C66.981,33.016 68.101,31.658 69.753,31.658 C71.433,31.658 72.301,32.876 72.301,34.696 L72.301,35.074 Z M69.767,32.554 C68.941,32.554 68.269,33.1 68.073,34.248 L71.279,34.248 C71.237,33.338 70.775,32.554 69.767,32.554 Z M77.187,34.682 L77.187,33.87 C77.187,33.1 76.613,32.624 75.703,32.624 C75.017,32.624 74.457,32.834 73.939,33.17 L73.939,32.176 C74.359,31.882 75.101,31.658 75.871,31.658 C77.341,31.658 78.209,32.47 78.209,33.786 L78.209,38 L77.187,38 L77.187,37.538 C76.949,37.79 76.305,38.112 75.577,38.112 C74.303,38.112 73.267,37.356 73.267,36.124 C73.267,34.962 74.303,34.178 75.633,34.178 C76.277,34.178 76.921,34.444 77.187,34.682 Z M77.187,36.46 L77.187,35.816 C77.019,35.354 76.403,35.046 75.745,35.046 C74.989,35.046 74.261,35.382 74.261,36.124 C74.261,36.88 74.989,37.23 75.745,37.23 C76.403,37.23 77.019,36.922 77.187,36.46 Z M81.051,28.9 L81.051,38 L80.001,38 L80.001,28.9 L81.051,28.9 Z M84.663,32.68 L84.663,38 L83.613,38 L83.613,32.68 L82.311,32.68 L82.311,31.784 L83.613,31.784 L83.613,30.146 L84.663,30.146 L84.663,31.784 L86.105,31.784 L86.105,32.68 L84.663,32.68 Z M87.379,38 L87.379,28.9 L88.429,28.9 L88.429,32.568 C88.793,32.078 89.465,31.658 90.263,31.658 C91.677,31.658 92.447,32.568 92.447,33.926 L92.447,38 L91.383,38 L91.383,34.094 C91.383,33.226 90.949,32.624 90.011,32.624 C89.283,32.624 88.653,33.114 88.429,33.786 L88.429,38 L87.379,38 Z M95.989,40.38 L94.953,40.38 L95.891,38.042 L93.469,31.784 L94.603,31.784 L96.437,36.684 L98.243,31.784 L99.335,31.784 L95.989,40.38 Z M103.199,33.702 C103.199,31.014 104.935,29.278 107.231,29.278 C108.225,29.278 108.981,29.558 109.541,30.02 L109.541,31.182 C108.841,30.538 108.127,30.272 107.245,30.272 C105.509,30.272 104.305,31.63 104.305,33.702 C104.305,35.774 105.509,37.132 107.245,37.132 C108.127,37.132 108.841,36.852 109.541,36.222 L109.541,37.384 C108.981,37.846 108.225,38.126 107.231,38.126 C104.935,38.126 103.199,36.39 103.199,33.702 Z M116.443,34.892 C116.443,36.796 115.281,38.126 113.587,38.126 C111.879,38.126 110.731,36.796 110.731,34.892 C110.731,32.988 111.879,31.658 113.587,31.658 C115.281,31.658 116.443,32.988 116.443,34.892 Z M115.379,34.892 C115.379,33.534 114.707,32.582 113.587,32.582 C112.467,32.582 111.795,33.534 111.795,34.892 C111.795,36.25 112.467,37.202 113.587,37.202 C114.707,37.202 115.379,36.25 115.379,34.892 Z M122.281,32.652 C122.673,32.092 123.303,31.658 124.171,31.658 C125.431,31.658 126.131,32.54 126.131,33.884 L126.131,38 L125.067,38 L125.067,34.052 C125.067,33.184 124.689,32.61 123.891,32.61 C123.261,32.61 122.715,33.044 122.519,33.716 L122.519,38 L121.469,38 L121.469,34.052 C121.469,33.184 121.091,32.61 120.293,32.61 C119.663,32.61 119.117,33.044 118.921,33.716 L118.921,38 L117.871,38 L117.871,31.784 L118.921,31.784 L118.921,32.512 C119.229,32.022 119.831,31.658 120.601,31.658 C121.385,31.658 121.987,32.064 122.281,32.652 Z M128.959,37.272 L128.959,40.38 L127.909,40.38 L127.909,31.784 L128.959,31.784 L128.959,32.512 C129.281,32.064 129.939,31.658 130.709,31.658 C132.543,31.658 133.509,33.17 133.509,34.892 C133.509,36.614 132.543,38.126 130.709,38.126 C129.939,38.126 129.281,37.72 128.959,37.272 Z M128.959,33.632 L128.959,36.152 C129.281,36.796 129.897,37.174 130.555,37.174 C131.745,37.174 132.445,36.208 132.445,34.892 C132.445,33.576 131.745,32.61 130.555,32.61 C129.897,32.61 129.281,32.988 128.959,33.632 Z M140.229,34.892 C140.229,36.796 139.067,38.126 137.373,38.126 C135.665,38.126 134.517,36.796 134.517,34.892 C134.517,32.988 135.665,31.658 137.373,31.658 C139.067,31.658 140.229,32.988 140.229,34.892 Z M139.165,34.892 C139.165,33.534 138.493,32.582 137.373,32.582 C136.253,32.582 135.581,33.534 135.581,34.892 C135.581,36.25 136.253,37.202 137.373,37.202 C138.493,37.202 139.165,36.25 139.165,34.892 Z M141.657,38 L141.657,31.784 L142.707,31.784 L142.707,32.568 C143.071,32.078 143.743,31.658 144.541,31.658 C145.955,31.658 146.725,32.568 146.725,33.926 L146.725,38 L145.661,38 L145.661,34.094 C145.661,33.226 145.227,32.624 144.289,32.624 C143.561,32.624 142.931,33.114 142.707,33.786 L142.707,38 L141.657,38 Z M153.375,35.074 L149.091,35.074 C149.133,36.516 150.043,37.202 151.177,37.202 C151.877,37.202 152.381,37.034 152.941,36.614 L152.941,37.58 C152.437,37.972 151.793,38.126 151.051,38.126 C149.259,38.126 148.055,36.908 148.055,34.948 C148.055,33.016 149.175,31.658 150.827,31.658 C152.507,31.658 153.375,32.876 153.375,34.696 L153.375,35.074 Z M150.841,32.554 C150.015,32.554 149.343,33.1 149.147,34.248 L152.353,34.248 C152.311,33.338 151.849,32.554 150.841,32.554 Z M154.803,38 L154.803,31.784 L155.853,31.784 L155.853,32.568 C156.217,32.078 156.889,31.658 157.687,31.658 C159.101,31.658 159.871,32.568 159.871,33.926 L159.871,38 L158.807,38 L158.807,34.094 C158.807,33.226 158.373,32.624 157.435,32.624 C156.707,32.624 156.077,33.114 155.853,33.786 L155.853,38 L154.803,38 Z M163.385,32.68 L163.385,38 L162.335,38 L162.335,32.68 L161.033,32.68 L161.033,31.784 L162.335,31.784 L162.335,30.146 L163.385,30.146 L163.385,31.784 L164.827,31.784 L164.827,32.68 L163.385,32.68 Z M165.695,37.51 L165.695,36.39 C166.269,36.922 166.983,37.23 167.739,37.23 C168.425,37.23 169.027,36.978 169.027,36.362 C169.027,35.9 168.677,35.648 168.131,35.466 L167.277,35.172 C166.339,34.864 165.709,34.416 165.709,33.408 C165.709,32.316 166.675,31.658 167.907,31.658 C168.607,31.658 169.251,31.854 169.755,32.204 L169.755,33.296 C169.237,32.862 168.663,32.554 167.907,32.554 C167.263,32.554 166.731,32.834 166.731,33.366 C166.731,33.87 167.067,34.038 167.655,34.248 L168.607,34.57 C169.545,34.892 170.063,35.438 170.063,36.32 C170.063,37.468 169.041,38.126 167.739,38.126 C166.927,38.126 166.157,37.874 165.695,37.51 Z M5.986,145.404 L7.092,145.404 L7.092,154 L5.986,154 L5.986,150.08 L1.128,150.08 L1.128,154 L0.022,154 L0.022,145.404 L1.128,145.404 L1.128,149.086 L5.986,149.086 L5.986,145.404 Z M13.924,151.074 L9.64,151.074 C9.682,152.516 10.592,153.202 11.726,153.202 C12.426,153.202 12.93,153.034 13.49,152.614 L13.49,153.58 C12.986,153.972 12.342,154.126 11.6,154.126 C9.808,154.126 8.604,152.908 8.604,150.948 C8.604,149.016 9.724,147.658 11.376,147.658 C13.056,147.658 13.924,148.876 13.924,150.696 L13.924,151.074 Z M11.39,148.554 C10.564,148.554 9.892,149.1 9.696,150.248 L12.902,150.248 C12.86,149.338 12.398,148.554 11.39,148.554 Z M18.81,150.682 L18.81,149.87 C18.81,149.1 18.236,148.624 17.326,148.624 C16.64,148.624 16.08,148.834 15.562,149.17 L15.562,148.176 C15.982,147.882 16.724,147.658 17.494,147.658 C18.964,147.658 19.832,148.47 19.832,149.786 L19.832,154 L18.81,154 L18.81,153.538 C18.572,153.79 17.928,154.112 17.2,154.112 C15.926,154.112 14.89,153.356 14.89,152.124 C14.89,150.962 15.926,150.178 17.256,150.178 C17.9,150.178 18.544,150.444 18.81,150.682 Z M18.81,152.46 L18.81,151.816 C18.642,151.354 18.026,151.046 17.368,151.046 C16.612,151.046 15.884,151.382 15.884,152.124 C15.884,152.88 16.612,153.23 17.368,153.23 C18.026,153.23 18.642,152.922 18.81,152.46 Z M22.674,144.9 L22.674,154 L21.624,154 L21.624,144.9 L22.674,144.9 Z M26.286,148.68 L26.286,154 L25.236,154 L25.236,148.68 L23.934,148.68 L23.934,147.784 L25.236,147.784 L25.236,146.146 L26.286,146.146 L26.286,147.784 L27.728,147.784 L27.728,148.68 L26.286,148.68 Z M29.002,154 L29.002,144.9 L30.052,144.9 L30.052,148.568 C30.416,148.078 31.088,147.658 31.886,147.658 C33.3,147.658 34.07,148.568 34.07,149.926 L34.07,154 L33.006,154 L33.006,150.094 C33.006,149.226 32.572,148.624 31.634,148.624 C30.906,148.624 30.276,149.114 30.052,149.786 L30.052,154 L29.002,154 Z M37.612,156.38 L36.576,156.38 L37.514,154.042 L35.092,147.784 L36.226,147.784 L38.06,152.684 L39.866,147.784 L40.958,147.784 L37.612,156.38 Z M46.432,154 L45.326,154 L45.326,145.404 L50.576,145.404 L50.576,146.384 L46.432,146.384 L46.432,149.282 L50.324,149.282 L50.324,150.262 L46.432,150.262 L46.432,154 Z M53.082,147.784 L53.082,154 L52.032,154 L52.032,147.784 L53.082,147.784 Z M53.236,145.908 C53.236,146.272 52.928,146.58 52.55,146.58 C52.186,146.58 51.878,146.272 51.878,145.908 C51.878,145.53 52.186,145.236 52.55,145.236 C52.928,145.236 53.236,145.53 53.236,145.908 Z M56.008,144.9 L56.008,154 L54.958,154 L54.958,144.9 L56.008,144.9 Z M62.756,151.074 L58.472,151.074 C58.514,152.516 59.424,153.202 60.558,153.202 C61.258,153.202 61.762,153.034 62.322,152.614 L62.322,153.58 C61.818,153.972 61.174,154.126 60.432,154.126 C58.64,154.126 57.436,152.908 57.436,150.948 C57.436,149.016 58.556,147.658 60.208,147.658 C61.888,147.658 62.756,148.876 62.756,150.696 L62.756,151.074 Z M60.222,148.554 C59.396,148.554 58.724,149.1 58.528,150.248 L61.734,150.248 C61.692,149.338 61.23,148.554 60.222,148.554 Z M66.914,153.328 L66.914,152.138 C67.712,152.824 68.608,153.146 69.616,153.146 C70.722,153.146 71.45,152.67 71.45,151.788 C71.45,151.032 70.988,150.724 70.078,150.346 L68.818,149.856 C67.81,149.464 66.886,148.89 66.886,147.532 C66.886,146.048 68.16,145.278 69.644,145.278 C70.582,145.278 71.464,145.53 72.108,145.978 L72.108,147.14 C71.422,146.594 70.652,146.244 69.658,146.244 C68.706,146.244 67.964,146.664 67.964,147.518 C67.964,148.246 68.454,148.554 69.252,148.862 L70.61,149.394 C71.926,149.898 72.514,150.584 72.514,151.774 C72.514,153.244 71.282,154.126 69.616,154.126 C68.454,154.126 67.502,153.79 66.914,153.328 Z M74.012,154 L74.012,144.9 L75.062,144.9 L75.062,148.568 C75.426,148.078 76.098,147.658 76.896,147.658 C78.31,147.658 79.08,148.568 79.08,149.926 L79.08,154 L78.016,154 L78.016,150.094 C78.016,149.226 77.582,148.624 76.644,148.624 C75.916,148.624 75.286,149.114 75.062,149.786 L75.062,154 L74.012,154 Z M84.316,150.682 L84.316,149.87 C84.316,149.1 83.742,148.624 82.832,148.624 C82.146,148.624 81.586,148.834 81.068,149.17 L81.068,148.176 C81.488,147.882 82.23,147.658 83,147.658 C84.47,147.658 85.338,148.47 85.338,149.786 L85.338,154 L84.316,154 L84.316,153.538 C84.078,153.79 83.434,154.112 82.706,154.112 C81.432,154.112 80.396,153.356 80.396,152.124 C80.396,150.962 81.432,150.178 82.762,150.178 C83.406,150.178 84.05,150.444 84.316,150.682 Z M84.316,152.46 L84.316,151.816 C84.148,151.354 83.532,151.046 82.874,151.046 C82.118,151.046 81.39,151.382 81.39,152.124 C81.39,152.88 82.118,153.23 82.874,153.23 C83.532,153.23 84.148,152.922 84.316,152.46 Z M90.322,147.756 L90.322,148.834 C90.154,148.722 89.888,148.666 89.622,148.666 C88.964,148.666 88.39,149.1 88.18,149.828 L88.18,154 L87.13,154 L87.13,147.784 L88.18,147.784 L88.18,148.596 C88.446,148.064 89.034,147.658 89.72,147.658 C89.986,147.658 90.21,147.7 90.322,147.756 Z M96.314,151.074 L92.03,151.074 C92.072,152.516 92.982,153.202 94.116,153.202 C94.816,153.202 95.32,153.034 95.88,152.614 L95.88,153.58 C95.376,153.972 94.732,154.126 93.99,154.126 C92.198,154.126 90.994,152.908 90.994,150.948 C90.994,149.016 92.114,147.658 93.766,147.658 C95.446,147.658 96.314,148.876 96.314,150.696 L96.314,151.074 Z M93.78,148.554 C92.954,148.554 92.282,149.1 92.086,150.248 L95.292,150.248 C95.25,149.338 94.788,148.554 93.78,148.554 Z M97.434,153.51 L97.434,152.39 C98.008,152.922 98.722,153.23 99.478,153.23 C100.164,153.23 100.766,152.978 100.766,152.362 C100.766,151.9 100.416,151.648 99.87,151.466 L99.016,151.172 C98.078,150.864 97.448,150.416 97.448,149.408 C97.448,148.316 98.414,147.658 99.646,147.658 C100.346,147.658 100.99,147.854 101.494,148.204 L101.494,149.296 C100.976,148.862 100.402,148.554 99.646,148.554 C99.002,148.554 98.47,148.834 98.47,149.366 C98.47,149.87 98.806,150.038 99.394,150.248 L100.346,150.57 C101.284,150.892 101.802,151.438 101.802,152.32 C101.802,153.468 100.78,154.126 99.478,154.126 C98.666,154.126 97.896,153.874 97.434,153.51 Z M175.422,154 L175.422,153.02 L177.872,153.02 L177.872,146.72 L175.464,147.952 L175.464,146.832 L178.292,145.39 L178.95,145.39 L178.95,153.02 L181.106,153.02 L181.106,154 L175.422,154 Z M186.272,145.404 L183.654,151.13 L186.202,151.13 L186.202,149.058 L187.224,149.058 L187.224,151.13 L188.652,151.13 L188.652,152.054 L187.224,152.054 L187.224,154 L186.202,154 L186.202,152.054 L182.156,152.054 L182.156,151.998 L185.18,145.404 L186.272,145.404 Z M193.552,145.404 L190.934,151.13 L193.482,151.13 L193.482,149.058 L194.504,149.058 L194.504,151.13 L195.932,151.13 L195.932,152.054 L194.504,152.054 L194.504,154 L193.482,154 L193.482,152.054 L189.436,152.054 L189.436,151.998 L192.46,145.404 L193.552,145.404 Z M199.474,155.176 L202.946,144.9 L203.996,144.9 L200.524,155.176 L199.474,155.176 Z M208.112,154 L208.112,153.02 L210.562,153.02 L210.562,146.72 L208.154,147.952 L208.154,146.832 L210.982,145.39 L211.64,145.39 L211.64,153.02 L213.796,153.02 L213.796,154 L208.112,154 Z M218.962,145.404 L216.344,151.13 L218.892,151.13 L218.892,149.058 L219.914,149.058 L219.914,151.13 L221.342,151.13 L221.342,152.054 L219.914,152.054 L219.914,154 L218.892,154 L218.892,152.054 L214.846,152.054 L214.846,151.998 L217.87,145.404 L218.962,145.404 Z M226.242,145.404 L223.624,151.13 L226.172,151.13 L226.172,149.058 L227.194,149.058 L227.194,151.13 L228.622,151.13 L228.622,152.054 L227.194,152.054 L227.194,154 L226.172,154 L226.172,152.054 L222.126,152.054 L222.126,151.998 L225.15,145.404 L226.242,145.404 Z M5.986,205.404 L7.092,205.404 L7.092,214 L5.986,214 L5.986,210.08 L1.128,210.08 L1.128,214 L0.022,214 L0.022,205.404 L1.128,205.404 L1.128,209.086 L5.986,209.086 L5.986,205.404 Z M13.924,211.074 L9.64,211.074 C9.682,212.516 10.592,213.202 11.726,213.202 C12.426,213.202 12.93,213.034 13.49,212.614 L13.49,213.58 C12.986,213.972 12.342,214.126 11.6,214.126 C9.808,214.126 8.604,212.908 8.604,210.948 C8.604,209.016 9.724,207.658 11.376,207.658 C13.056,207.658 13.924,208.876 13.924,210.696 L13.924,211.074 Z M11.39,208.554 C10.564,208.554 9.892,209.1 9.696,210.248 L12.902,210.248 C12.86,209.338 12.398,208.554 11.39,208.554 Z M18.81,210.682 L18.81,209.87 C18.81,209.1 18.236,208.624 17.326,208.624 C16.64,208.624 16.08,208.834 15.562,209.17 L15.562,208.176 C15.982,207.882 16.724,207.658 17.494,207.658 C18.964,207.658 19.832,208.47 19.832,209.786 L19.832,214 L18.81,214 L18.81,213.538 C18.572,213.79 17.928,214.112 17.2,214.112 C15.926,214.112 14.89,213.356 14.89,212.124 C14.89,210.962 15.926,210.178 17.256,210.178 C17.9,210.178 18.544,210.444 18.81,210.682 Z M18.81,212.46 L18.81,211.816 C18.642,211.354 18.026,211.046 17.368,211.046 C16.612,211.046 15.884,211.382 15.884,212.124 C15.884,212.88 16.612,213.23 17.368,213.23 C18.026,213.23 18.642,212.922 18.81,212.46 Z M22.674,204.9 L22.674,214 L21.624,214 L21.624,204.9 L22.674,204.9 Z M26.286,208.68 L26.286,214 L25.236,214 L25.236,208.68 L23.934,208.68 L23.934,207.784 L25.236,207.784 L25.236,206.146 L26.286,206.146 L26.286,207.784 L27.728,207.784 L27.728,208.68 L26.286,208.68 Z M29.002,214 L29.002,204.9 L30.052,204.9 L30.052,208.568 C30.416,208.078 31.088,207.658 31.886,207.658 C33.3,207.658 34.07,208.568 34.07,209.926 L34.07,214 L33.006,214 L33.006,210.094 C33.006,209.226 32.572,208.624 31.634,208.624 C30.906,208.624 30.276,209.114 30.052,209.786 L30.052,214 L29.002,214 Z M37.612,216.38 L36.576,216.38 L37.514,214.042 L35.092,207.784 L36.226,207.784 L38.06,212.684 L39.866,207.784 L40.958,207.784 L37.612,216.38 Z M48.952,214 L47.916,214 L44.598,205.404 L45.76,205.404 L48.448,212.544 L51.15,205.404 L52.27,205.404 L48.952,214 Z M58.136,210.892 C58.136,212.796 56.974,214.126 55.28,214.126 C53.572,214.126 52.424,212.796 52.424,210.892 C52.424,208.988 53.572,207.658 55.28,207.658 C56.974,207.658 58.136,208.988 58.136,210.892 Z M57.072,210.892 C57.072,209.534 56.4,208.582 55.28,208.582 C54.16,208.582 53.488,209.534 53.488,210.892 C53.488,212.25 54.16,213.202 55.28,213.202 C56.4,213.202 57.072,212.25 57.072,210.892 Z M60.614,204.9 L60.614,214 L59.564,214 L59.564,204.9 L60.614,204.9 Z M67.446,207.784 L67.446,214 L66.382,214 L66.382,213.216 C66.032,213.706 65.374,214.126 64.576,214.126 C63.162,214.126 62.406,213.216 62.406,211.858 L62.406,207.784 L63.47,207.784 L63.47,211.69 C63.47,212.558 63.89,213.16 64.828,213.16 C65.556,213.16 66.158,212.67 66.382,211.998 L66.382,207.784 L67.446,207.784 Z M73.718,208.652 C74.11,208.092 74.74,207.658 75.608,207.658 C76.868,207.658 77.568,208.54 77.568,209.884 L77.568,214 L76.504,214 L76.504,210.052 C76.504,209.184 76.126,208.61 75.328,208.61 C74.698,208.61 74.152,209.044 73.956,209.716 L73.956,214 L72.906,214 L72.906,210.052 C72.906,209.184 72.528,208.61 71.73,208.61 C71.1,208.61 70.554,209.044 70.358,209.716 L70.358,214 L69.308,214 L69.308,207.784 L70.358,207.784 L70.358,208.512 C70.666,208.022 71.268,207.658 72.038,207.658 C72.822,207.658 73.424,208.064 73.718,208.652 Z M84.218,211.074 L79.934,211.074 C79.976,212.516 80.886,213.202 82.02,213.202 C82.72,213.202 83.224,213.034 83.784,212.614 L83.784,213.58 C83.28,213.972 82.636,214.126 81.894,214.126 C80.102,214.126 78.898,212.908 78.898,210.948 C78.898,209.016 80.018,207.658 81.67,207.658 C83.35,207.658 84.218,208.876 84.218,210.696 L84.218,211.074 Z M81.684,208.554 C80.858,208.554 80.186,209.1 79.99,210.248 L83.196,210.248 C83.154,209.338 82.692,208.554 81.684,208.554 Z M85.338,213.51 L85.338,212.39 C85.912,212.922 86.626,213.23 87.382,213.23 C88.068,213.23 88.67,212.978 88.67,212.362 C88.67,211.9 88.32,211.648 87.774,211.466 L86.92,211.172 C85.982,210.864 85.352,210.416 85.352,209.408 C85.352,208.316 86.318,207.658 87.55,207.658 C88.25,207.658 88.894,207.854 89.398,208.204 L89.398,209.296 C88.88,208.862 88.306,208.554 87.55,208.554 C86.906,208.554 86.374,208.834 86.374,209.366 C86.374,209.87 86.71,210.038 87.298,210.248 L88.25,210.57 C89.188,210.892 89.706,211.438 89.706,212.32 C89.706,213.468 88.684,214.126 87.382,214.126 C86.57,214.126 85.8,213.874 85.338,213.51 Z M189.94,206.384 L189.94,205.404 L195.26,205.404 L195.26,205.446 L192.964,208.862 C194.308,209.044 195.316,209.996 195.316,211.396 C195.316,213.076 193.944,214.14 192.32,214.14 C191.186,214.14 190.458,213.846 189.884,213.426 L189.884,212.25 C190.528,212.866 191.368,213.174 192.264,213.174 C193.426,213.174 194.322,212.544 194.322,211.396 C194.322,210.136 193.076,209.478 191.494,209.534 L191.494,209.492 L193.58,206.384 L189.94,206.384 Z M198.872,213.02 L202.61,213.02 L202.61,214 L196.926,214 L196.926,213.944 L199.558,210.71 C200.44,209.646 201.154,208.82 201.154,207.742 C201.154,206.874 200.622,206.258 199.572,206.258 C198.578,206.258 197.724,206.832 197.122,207.448 L197.122,206.328 C197.71,205.726 198.634,205.278 199.656,205.278 C201.238,205.278 202.232,206.216 202.232,207.7 C202.232,208.932 201.406,209.954 200.454,211.13 L198.872,213.02 Z M206.754,215.176 L210.226,204.9 L211.276,204.9 L207.804,215.176 L206.754,215.176 Z M215.35,206.384 L215.35,205.404 L220.67,205.404 L220.67,205.446 L218.374,208.862 C219.718,209.044 220.726,209.996 220.726,211.396 C220.726,213.076 219.354,214.14 217.73,214.14 C216.596,214.14 215.868,213.846 215.294,213.426 L215.294,212.25 C215.938,212.866 216.778,213.174 217.674,213.174 C218.836,213.174 219.732,212.544 219.732,211.396 C219.732,210.136 218.486,209.478 216.904,209.534 L216.904,209.492 L218.99,206.384 L215.35,206.384 Z M224.282,213.02 L228.02,213.02 L228.02,214 L222.336,214 L222.336,213.944 L224.968,210.71 C225.85,209.646 226.564,208.82 226.564,207.742 C226.564,206.874 226.032,206.258 224.982,206.258 C223.988,206.258 223.134,206.832 222.532,207.448 L222.532,206.328 C223.12,205.726 224.044,205.278 225.066,205.278 C226.648,205.278 227.642,206.216 227.642,207.7 C227.642,208.932 226.816,209.954 225.864,211.13 L224.282,213.02 Z M5.986,265.404 L7.092,265.404 L7.092,274 L5.986,274 L5.986,270.08 L1.128,270.08 L1.128,274 L0.022,274 L0.022,265.404 L1.128,265.404 L1.128,269.086 L5.986,269.086 L5.986,265.404 Z M13.924,271.074 L9.64,271.074 C9.682,272.516 10.592,273.202 11.726,273.202 C12.426,273.202 12.93,273.034 13.49,272.614 L13.49,273.58 C12.986,273.972 12.342,274.126 11.6,274.126 C9.808,274.126 8.604,272.908 8.604,270.948 C8.604,269.016 9.724,267.658 11.376,267.658 C13.056,267.658 13.924,268.876 13.924,270.696 L13.924,271.074 Z M11.39,268.554 C10.564,268.554 9.892,269.1 9.696,270.248 L12.902,270.248 C12.86,269.338 12.398,268.554 11.39,268.554 Z M18.81,270.682 L18.81,269.87 C18.81,269.1 18.236,268.624 17.326,268.624 C16.64,268.624 16.08,268.834 15.562,269.17 L15.562,268.176 C15.982,267.882 16.724,267.658 17.494,267.658 C18.964,267.658 19.832,268.47 19.832,269.786 L19.832,274 L18.81,274 L18.81,273.538 C18.572,273.79 17.928,274.112 17.2,274.112 C15.926,274.112 14.89,273.356 14.89,272.124 C14.89,270.962 15.926,270.178 17.256,270.178 C17.9,270.178 18.544,270.444 18.81,270.682 Z M18.81,272.46 L18.81,271.816 C18.642,271.354 18.026,271.046 17.368,271.046 C16.612,271.046 15.884,271.382 15.884,272.124 C15.884,272.88 16.612,273.23 17.368,273.23 C18.026,273.23 18.642,272.922 18.81,272.46 Z M22.674,264.9 L22.674,274 L21.624,274 L21.624,264.9 L22.674,264.9 Z M26.286,268.68 L26.286,274 L25.236,274 L25.236,268.68 L23.934,268.68 L23.934,267.784 L25.236,267.784 L25.236,266.146 L26.286,266.146 L26.286,267.784 L27.728,267.784 L27.728,268.68 L26.286,268.68 Z M29.002,274 L29.002,264.9 L30.052,264.9 L30.052,268.568 C30.416,268.078 31.088,267.658 31.886,267.658 C33.3,267.658 34.07,268.568 34.07,269.926 L34.07,274 L33.006,274 L33.006,270.094 C33.006,269.226 32.572,268.624 31.634,268.624 C30.906,268.624 30.276,269.114 30.052,269.786 L30.052,274 L29.002,274 Z M37.612,276.38 L36.576,276.38 L37.514,274.042 L35.092,267.784 L36.226,267.784 L38.06,272.684 L39.866,267.784 L40.958,267.784 L37.612,276.38 Z M48.504,270.556 L46.432,270.556 L46.432,274 L45.326,274 L45.326,265.404 L48.504,265.404 C50.24,265.404 51.374,266.286 51.374,267.98 C51.374,269.66 50.24,270.556 48.504,270.556 Z M50.282,267.98 C50.282,267 49.652,266.37 48.49,266.37 L46.432,266.37 L46.432,269.576 L48.49,269.576 C49.652,269.576 50.282,268.946 50.282,267.98 Z M52.76,274 L52.76,264.9 L53.81,264.9 L53.81,268.568 C54.174,268.078 54.846,267.658 55.644,267.658 C57.058,267.658 57.828,268.568 57.828,269.926 L57.828,274 L56.764,274 L56.764,270.094 C56.764,269.226 56.33,268.624 55.392,268.624 C54.664,268.624 54.034,269.114 53.81,269.786 L53.81,274 L52.76,274 Z M61.37,276.38 L60.334,276.38 L61.272,274.042 L58.85,267.784 L59.984,267.784 L61.818,272.684 L63.624,267.784 L64.716,267.784 L61.37,276.38 Z M65.5,273.51 L65.5,272.39 C66.074,272.922 66.788,273.23 67.544,273.23 C68.23,273.23 68.832,272.978 68.832,272.362 C68.832,271.9 68.482,271.648 67.936,271.466 L67.082,271.172 C66.144,270.864 65.514,270.416 65.514,269.408 C65.514,268.316 66.48,267.658 67.712,267.658 C68.412,267.658 69.056,267.854 69.56,268.204 L69.56,269.296 C69.042,268.862 68.468,268.554 67.712,268.554 C67.068,268.554 66.536,268.834 66.536,269.366 C66.536,269.87 66.872,270.038 67.46,270.248 L68.412,270.57 C69.35,270.892 69.868,271.438 69.868,272.32 C69.868,273.468 68.846,274.126 67.544,274.126 C66.732,274.126 65.962,273.874 65.5,273.51 Z M72.416,267.784 L72.416,274 L71.366,274 L71.366,267.784 L72.416,267.784 Z M72.57,265.908 C72.57,266.272 72.262,266.58 71.884,266.58 C71.52,266.58 71.212,266.272 71.212,265.908 C71.212,265.53 71.52,265.236 71.884,265.236 C72.262,265.236 72.57,265.53 72.57,265.908 Z M73.844,270.892 C73.844,268.904 75.16,267.658 76.84,267.658 C77.442,267.658 78.072,267.798 78.506,268.176 L78.506,269.24 C78.058,268.792 77.512,268.596 76.91,268.596 C75.804,268.596 74.908,269.464 74.908,270.892 C74.908,272.32 75.804,273.188 76.91,273.188 C77.512,273.188 78.058,272.992 78.506,272.544 L78.506,273.608 C78.072,273.986 77.442,274.126 76.84,274.126 C75.16,274.126 73.844,272.88 73.844,270.892 Z M83.448,270.682 L83.448,269.87 C83.448,269.1 82.874,268.624 81.964,268.624 C81.278,268.624 80.718,268.834 80.2,269.17 L80.2,268.176 C80.62,267.882 81.362,267.658 82.132,267.658 C83.602,267.658 84.47,268.47 84.47,269.786 L84.47,274 L83.448,274 L83.448,273.538 C83.21,273.79 82.566,274.112 81.838,274.112 C80.564,274.112 79.528,273.356 79.528,272.124 C79.528,270.962 80.564,270.178 81.894,270.178 C82.538,270.178 83.182,270.444 83.448,270.682 Z M83.448,272.46 L83.448,271.816 C83.28,271.354 82.664,271.046 82.006,271.046 C81.25,271.046 80.522,271.382 80.522,272.124 C80.522,272.88 81.25,273.23 82.006,273.23 C82.664,273.23 83.28,272.922 83.448,272.46 Z M87.312,264.9 L87.312,274 L86.262,274 L86.262,264.9 L87.312,264.9 Z M93.472,273.006 L95.11,273.006 C97.056,273.006 98.204,271.718 98.204,269.702 C98.204,267.686 97.056,266.384 95.11,266.384 L93.472,266.384 L93.472,273.006 Z M92.366,274 L92.366,265.404 L95.124,265.404 C97.644,265.404 99.296,267.084 99.296,269.702 C99.296,272.32 97.644,274 95.124,274 L92.366,274 Z M103.944,267.756 L103.944,268.834 C103.776,268.722 103.51,268.666 103.244,268.666 C102.586,268.666 102.012,269.1 101.802,269.828 L101.802,274 L100.752,274 L100.752,267.784 L101.802,267.784 L101.802,268.596 C102.068,268.064 102.656,267.658 103.342,267.658 C103.608,267.658 103.832,267.7 103.944,267.756 Z M106.296,267.784 L106.296,274 L105.246,274 L105.246,267.784 L106.296,267.784 Z M106.45,265.908 C106.45,266.272 106.142,266.58 105.764,266.58 C105.4,266.58 105.092,266.272 105.092,265.908 C105.092,265.53 105.4,265.236 105.764,265.236 C106.142,265.236 106.45,265.53 106.45,265.908 Z M110.93,274 L109.894,274 L107.486,267.784 L108.62,267.784 L110.44,272.67 L112.246,267.784 L113.352,267.784 L110.93,274 Z M119.302,271.074 L115.018,271.074 C115.06,272.516 115.97,273.202 117.104,273.202 C117.804,273.202 118.308,273.034 118.868,272.614 L118.868,273.58 C118.364,273.972 117.72,274.126 116.978,274.126 C115.186,274.126 113.982,272.908 113.982,270.948 C113.982,269.016 115.102,267.658 116.754,267.658 C118.434,267.658 119.302,268.876 119.302,270.696 L119.302,271.074 Z M116.768,268.554 C115.942,268.554 115.27,269.1 115.074,270.248 L118.28,270.248 C118.238,269.338 117.776,268.554 116.768,268.554 Z M120.422,273.51 L120.422,272.39 C120.996,272.922 121.71,273.23 122.466,273.23 C123.152,273.23 123.754,272.978 123.754,272.362 C123.754,271.9 123.404,271.648 122.858,271.466 L122.004,271.172 C121.066,270.864 120.436,270.416 120.436,269.408 C120.436,268.316 121.402,267.658 122.634,267.658 C123.334,267.658 123.978,267.854 124.482,268.204 L124.482,269.296 C123.964,268.862 123.39,268.554 122.634,268.554 C121.99,268.554 121.458,268.834 121.458,269.366 C121.458,269.87 121.794,270.038 122.382,270.248 L123.334,270.57 C124.272,270.892 124.79,271.438 124.79,272.32 C124.79,273.468 123.768,274.126 122.466,274.126 C121.654,274.126 120.884,273.874 120.422,273.51 Z M177.032,273.02 L180.77,273.02 L180.77,274 L175.086,274 L175.086,273.944 L177.718,270.71 C178.6,269.646 179.314,268.82 179.314,267.742 C179.314,266.874 178.782,266.258 177.732,266.258 C176.738,266.258 175.884,266.832 175.282,267.448 L175.282,266.328 C175.87,265.726 176.794,265.278 177.816,265.278 C179.398,265.278 180.392,266.216 180.392,267.7 C180.392,268.932 179.566,269.954 178.614,271.13 L177.032,273.02 Z M185.39,274.126 C183.472,274.126 182.198,272.32 182.198,269.702 C182.198,267.084 183.472,265.278 185.39,265.278 C187.308,265.278 188.582,267.084 188.582,269.702 C188.582,272.32 187.308,274.126 185.39,274.126 Z M185.39,266.272 C183.99,266.272 183.262,267.7 183.262,269.702 C183.262,271.704 183.99,273.132 185.39,273.132 C186.776,273.132 187.504,271.704 187.504,269.702 C187.504,267.7 186.776,266.272 185.39,266.272 Z M189.94,266.384 L189.94,265.404 L195.26,265.404 L195.26,265.446 L192.964,268.862 C194.308,269.044 195.316,269.996 195.316,271.396 C195.316,273.076 193.944,274.14 192.32,274.14 C191.186,274.14 190.458,273.846 189.884,273.426 L189.884,272.25 C190.528,272.866 191.368,273.174 192.264,273.174 C193.426,273.174 194.322,272.544 194.322,271.396 C194.322,270.136 193.076,269.478 191.494,269.534 L191.494,269.492 L193.58,266.384 L189.94,266.384 Z M199.474,275.176 L202.946,264.9 L203.996,264.9 L200.524,275.176 L199.474,275.176 Z M209.722,273.02 L213.46,273.02 L213.46,274 L207.776,274 L207.776,273.944 L210.408,270.71 C211.29,269.646 212.004,268.82 212.004,267.742 C212.004,266.874 211.472,266.258 210.422,266.258 C209.428,266.258 208.574,266.832 207.972,267.448 L207.972,266.328 C208.56,265.726 209.484,265.278 210.506,265.278 C212.088,265.278 213.082,266.216 213.082,267.7 C213.082,268.932 212.256,269.954 211.304,271.13 L209.722,273.02 Z M218.08,274.126 C216.162,274.126 214.888,272.32 214.888,269.702 C214.888,267.084 216.162,265.278 218.08,265.278 C219.998,265.278 221.272,267.084 221.272,269.702 C221.272,272.32 219.998,274.126 218.08,274.126 Z M218.08,266.272 C216.68,266.272 215.952,267.7 215.952,269.702 C215.952,271.704 216.68,273.132 218.08,273.132 C219.466,273.132 220.194,271.704 220.194,269.702 C220.194,267.7 219.466,266.272 218.08,266.272 Z M222.63,266.384 L222.63,265.404 L227.95,265.404 L227.95,265.446 L225.654,268.862 C226.998,269.044 228.006,269.996 228.006,271.396 C228.006,273.076 226.634,274.14 225.01,274.14 C223.876,274.14 223.148,273.846 222.574,273.426 L222.574,272.25 C223.218,272.866 224.058,273.174 224.954,273.174 C226.116,273.174 227.012,272.544 227.012,271.396 C227.012,270.136 225.766,269.478 224.184,269.534 L224.184,269.492 L226.27,266.384 L222.63,266.384 Z" id="Combined-Shape" fill="#666666"></path>
                            </g>
                        </g>
                        <g id="Group-9" transform="translate(0.000000, 215.000000)" stroke-linecap="round" stroke-width="15">
                            <g id="Bar" transform="translate(7.000000, 22.000000)">
                                <g id="Baseline" transform="translate(0.000000, 1.000000)" stroke="#333333" stroke-opacity="0.1">
                                    <path d="M0,1 L217.898699,1" id="1"></path>
                                </g>
                                <g id="Normal" transform="translate(0.000000, 1.000000)" stroke="#01A982">
                                    <path d="M0,1 L217.753301,1" id="1"></path>
                                </g>
                            </g>
                        </g>
                        <g id="Group-9" transform="translate(0.000000, 275.000000)" stroke-linecap="round" stroke-width="15">
                            <g id="Bar" transform="translate(7.000000, 22.000000)">
                                <g id="Baseline" transform="translate(0.000000, 1.000000)" stroke="#333333" stroke-opacity="0.1">
                                    <path d="M0,1 L217.898699,1" id="1"></path>
                                </g>
                                <g id="Normal" transform="translate(0.000000, 1.000000)" stroke="#01A982">
                                    <path d="M0,1 L217.753301,1" id="1"></path>
                                </g>
                            </g>
                        </g>
                        <g id="Group-9" transform="translate(0.000000, 335.000000)" stroke-linecap="round" stroke-width="15">
                            <g id="Bar" transform="translate(7.000000, 22.000000)">
                                <g id="Baseline" transform="translate(0.000000, 1.000000)" stroke="#333333" stroke-opacity="0.1">
                                    <path d="M0,1 L217.898699,1" id="1"></path>
                                </g>
                                <g id="Normal" transform="translate(0.000000, 1.000000)" stroke="#01A982">
                                    <path d="M0,1 L217.753301,1" id="1"></path>
                                </g>
                            </g>
                        </g>
                    </g>
                </g>
            </g>
        </g>
    </g>
</svg>