<?xml version="1.0" encoding="UTF-8"?>
<svg width="243px" height="375px" viewBox="0 0 243 375" version="1.1" xmlns="http://www.w3.org/2000/svg" xmlns:xlink="http://www.w3.org/1999/xlink">
    <!-- Generator: Sketch 52.4 (67378) - http://www.bohemiancoding.com/sketch -->
    <title>performance-chart</title>
    <desc>Created with Sketch.</desc>
    <g id="SEMC-Example" stroke="none" stroke-width="1" fill="none" fill-rule="evenodd">
        <g id="G2-Dashboard" transform="translate(-1116.000000, -468.000000)">
            <g id="Group-16" transform="translate(1077.000000, 270.000000)">
                <g id="Group-13">
                    <g id="Group-4">
                        <g id="performance-chart" transform="translate(39.000000, 195.000000)">
                            <g id="Group-8">
                                <g id="legend" transform="translate(1.000000, 3.000000)">
                                    <g id="Bar" transform="translate(10.000000, 365.000000)" stroke-linecap="round" stroke-width="15">
                                        <g id="Baseline" transform="translate(0.000000, 1.000000)" stroke="#333333" stroke-opacity="0.1">
                                            <path d="M0,1 L217.898699,1" id="1"></path>
                                        </g>
                                        <g id="Normal" transform="translate(0.000000, 1.000000)" stroke="#01A982">
                                            <path d="M0,1 L157.786248,1" id="1"></path>
                                        </g>
                                    </g>
                                    <path d="M192.356094,352.126 C190.690094,352.126 189.444094,350.866 189.444094,349.2 C189.444094,348.5 189.640094,347.8 190.200094,346.82 L192.160094,343.404 L193.294094,343.404 L191.488094,346.54 C191.712094,346.4 192.090094,346.288 192.426094,346.288 C194.078094,346.288 195.268094,347.548 195.268094,349.2 C195.268094,350.866 194.022094,352.126 192.356094,352.126 Z M194.260094,349.2 C194.260094,348.094 193.448094,347.226 192.356094,347.226 C191.264094,347.226 190.452094,348.094 190.452094,349.2 C190.452094,350.32 191.264094,351.174 192.356094,351.174 C193.448094,351.174 194.260094,350.32 194.260094,349.2 Z M202.842094,343.446 L198.936094,352 L197.830094,352 L201.330094,344.384 L196.696094,344.384 L196.696094,343.404 L202.842094,343.404 L202.842094,343.446 Z M211.480094,350.082 L211.424094,350.082 L208.470094,345.392 L208.470094,352 L207.392094,352 L207.392094,343.404 L208.414094,343.404 L211.466094,348.346 L214.504094,343.404 L215.470094,343.404 L215.470094,352 L214.392094,352 L214.392094,345.392 L211.480094,350.082 Z M218.480094,345.784 L218.480094,352 L217.430094,352 L217.430094,345.784 L218.480094,345.784 Z M218.634094,343.908 C218.634094,344.272 218.326094,344.58 217.948094,344.58 C217.584094,344.58 217.276094,344.272 217.276094,343.908 C217.276094,343.53 217.584094,343.236 217.948094,343.236 C218.326094,343.236 218.634094,343.53 218.634094,343.908 Z M224.850094,347.548 C225.774094,347.786 226.404094,348.612 226.404094,349.578 C226.404094,351.146 225.312094,352 223.548094,352 L220.440094,352 L220.440094,343.404 L223.268094,343.404 C225.046094,343.404 226.110094,344.202 226.110094,345.686 C226.110094,346.708 225.522094,347.338 224.850094,347.548 Z M221.518094,347.142 L223.268094,347.142 C224.416094,347.142 225.046094,346.68 225.046094,345.742 C225.046094,344.804 224.416094,344.37 223.268094,344.37 L221.518094,344.37 L221.518094,347.142 Z M221.518094,348.066 L221.518094,351.034 L223.548094,351.034 C224.710094,351.034 225.326094,350.446 225.326094,349.55 C225.326094,348.64 224.710094,348.066 223.548094,348.066 L221.518094,348.066 Z M226.880094,353.176 L230.352094,342.9 L231.402094,342.9 L227.930094,353.176 L226.880094,353.176 Z M231.318094,351.51 L231.318094,350.39 C231.892094,350.922 232.606094,351.23 233.362094,351.23 C234.048094,351.23 234.650094,350.978 234.650094,350.362 C234.650094,349.9 234.300094,349.648 233.754094,349.466 L232.900094,349.172 C231.962094,348.864 231.332094,348.416 231.332094,347.408 C231.332094,346.316 232.298094,345.658 233.530094,345.658 C234.230094,345.658 234.874094,345.854 235.378094,346.204 L235.378094,347.296 C234.860094,346.862 234.286094,346.554 233.530094,346.554 C232.886094,346.554 232.354094,346.834 232.354094,347.366 C232.354094,347.87 232.690094,348.038 233.278094,348.248 L234.230094,348.57 C235.168094,348.892 235.686094,349.438 235.686094,350.32 C235.686094,351.468 234.664094,352.126 233.362094,352.126 C232.550094,352.126 231.780094,351.874 231.318094,351.51 Z M10.7,343.404 L10.7,352 L9.888,352 L5.086,345.168 L5.086,352 L4.022,352 L4.022,343.404 L5.072,343.404 L9.65,349.942 L9.65,343.404 L10.7,343.404 Z M12.744,343.404 L18.218,343.404 L18.218,344.384 L13.836,344.384 L13.836,347.1 L17.812,347.1 L17.812,348.08 L13.836,348.08 L13.836,351.006 L18.218,351.006 L18.218,352 L12.744,352 L12.744,343.404 Z M19.352,344.384 L19.352,343.404 L26.45,343.404 L26.45,344.384 L23.454,344.384 L23.454,352 L22.348,352 L22.348,344.384 L19.352,344.384 Z M31.812,343.404 L32.694,343.404 L34.514,350.236 L36.278,343.404 L37.342,343.404 L35.06,352 L34.052,352 L32.246,345.294 L30.412,352 L29.418,352 L27.136,343.404 L28.228,343.404 L29.992,350.236 L31.812,343.404 Z M45.854,347.702 C45.854,350.292 44.23,352.126 41.962,352.126 C39.708,352.126 38.084,350.292 38.084,347.702 C38.084,345.098 39.708,343.278 41.962,343.278 C44.23,343.278 45.854,345.098 45.854,347.702 Z M44.748,347.702 C44.748,345.686 43.628,344.272 41.962,344.272 C40.31,344.272 39.19,345.686 39.19,347.702 C39.19,349.718 40.31,351.132 41.962,351.132 C43.628,351.132 44.748,349.718 44.748,347.702 Z M50.026,348.36 L48.5,348.36 L48.5,352 L47.394,352 L47.394,343.404 L50.544,343.404 C52.28,343.404 53.4,344.272 53.4,345.896 C53.4,347.324 52.56,348.122 51.202,348.318 L53.75,352 L52.49,352 L50.026,348.36 Z M48.5,344.37 L48.5,347.422 L50.516,347.422 C51.65,347.422 52.308,346.848 52.308,345.896 C52.308,344.944 51.65,344.37 50.516,344.37 L48.5,344.37 Z M56.228,343.404 L56.228,347.226 L60.106,343.404 L61.492,343.404 L57.264,347.52 L61.618,352 L60.19,352 L56.228,347.954 L56.228,352 L55.122,352 L55.122,343.404 L56.228,343.404 Z M65.006,353.176 L68.478,342.9 L69.528,342.9 L66.056,353.176 L65.006,353.176 Z M74.82,343.404 L74.82,352 L73.714,352 L73.714,343.404 L74.82,343.404 Z M84.13,347.702 C84.13,350.292 82.506,352.126 80.238,352.126 C77.984,352.126 76.36,350.292 76.36,347.702 C76.36,345.098 77.984,343.278 80.238,343.278 C82.506,343.278 84.13,345.098 84.13,347.702 Z M83.024,347.702 C83.024,345.686 81.904,344.272 80.238,344.272 C78.586,344.272 77.466,345.686 77.466,347.702 C77.466,349.718 78.586,351.132 80.238,351.132 C81.904,351.132 83.024,349.718 83.024,347.702 Z M14.388,44.668 L11.04,52 L10.092,52 L13.092,45.472 L9.12,45.472 L9.12,44.632 L14.388,44.632 L14.388,44.668 Z M17.556,47.38 C19.068,47.38 20.256,48.244 20.256,49.732 C20.256,51.232 19.056,52.108 17.52,52.108 C16.656,52.108 16.032,51.88 15.54,51.52 L15.54,50.5 C16.092,51.016 16.74,51.292 17.484,51.292 C18.504,51.292 19.38,50.728 19.38,49.732 C19.38,48.76 18.504,48.184 17.472,48.184 C16.764,48.184 16.368,48.328 15.84,48.532 L15.84,44.632 L19.86,44.632 L19.86,45.472 L16.62,45.472 L16.62,47.512 C16.848,47.44 17.208,47.38 17.556,47.38 Z M11.316,92.38 C12.828,92.38 14.016,93.244 14.016,94.732 C14.016,96.232 12.816,97.108 11.28,97.108 C10.416,97.108 9.792,96.88 9.3,96.52 L9.3,95.5 C9.852,96.016 10.5,96.292 11.244,96.292 C12.264,96.292 13.14,95.728 13.14,94.732 C13.14,93.76 12.264,93.184 11.232,93.184 C10.524,93.184 10.128,93.328 9.6,93.532 L9.6,89.632 L13.62,89.632 L13.62,90.472 L10.38,90.472 L10.38,92.512 C10.608,92.44 10.968,92.38 11.316,92.38 Z M17.88,97.108 C16.236,97.108 15.144,95.56 15.144,93.316 C15.144,91.072 16.236,89.524 17.88,89.524 C19.524,89.524 20.616,91.072 20.616,93.316 C20.616,95.56 19.524,97.108 17.88,97.108 Z M17.88,90.376 C16.68,90.376 16.056,91.6 16.056,93.316 C16.056,95.032 16.68,96.256 17.88,96.256 C19.068,96.256 19.692,95.032 19.692,93.316 C19.692,91.6 19.068,90.376 17.88,90.376 Z M10.716,141.16 L13.92,141.16 L13.92,142 L9.048,142 L9.048,141.952 L11.304,139.18 C12.06,138.268 12.672,137.56 12.672,136.636 C12.672,135.892 12.216,135.364 11.316,135.364 C10.464,135.364 9.732,135.856 9.216,136.384 L9.216,135.424 C9.72,134.908 10.512,134.524 11.388,134.524 C12.744,134.524 13.596,135.328 13.596,136.6 C13.596,137.656 12.888,138.532 12.072,139.54 L10.716,141.16 Z M17.556,137.38 C19.068,137.38 20.256,138.244 20.256,139.732 C20.256,141.232 19.056,142.108 17.52,142.108 C16.656,142.108 16.032,141.88 15.54,141.52 L15.54,140.5 C16.092,141.016 16.74,141.292 17.484,141.292 C18.504,141.292 19.38,140.728 19.38,139.732 C19.38,138.76 18.504,138.184 17.472,138.184 C16.764,138.184 16.368,138.328 15.84,138.532 L15.84,134.632 L19.86,134.632 L19.86,135.472 L16.62,135.472 L16.62,137.512 C16.848,137.44 17.208,137.38 17.556,137.38 Z M17.88,186.108 C16.236,186.108 15.144,184.56 15.144,182.316 C15.144,180.072 16.236,178.524 17.88,178.524 C19.524,178.524 20.616,180.072 20.616,182.316 C20.616,184.56 19.524,186.108 17.88,186.108 Z M17.88,179.376 C16.68,179.376 16.056,180.6 16.056,182.316 C16.056,184.032 16.68,185.256 17.88,185.256 C19.068,185.256 19.692,184.032 19.692,182.316 C19.692,180.6 19.068,179.376 17.88,179.376 Z M3.096,8 L3.096,7.16 L5.196,7.16 L5.196,1.76 L3.132,2.816 L3.132,1.856 L5.556,0.62 L6.12,0.62 L6.12,7.16 L7.968,7.16 L7.968,8 L3.096,8 Z M11.64,8.108 C9.996,8.108 8.904,6.56 8.904,4.316 C8.904,2.072 9.996,0.524 11.64,0.524 C13.284,0.524 14.376,2.072 14.376,4.316 C14.376,6.56 13.284,8.108 11.64,8.108 Z M11.64,1.376 C10.44,1.376 9.816,2.6 9.816,4.316 C9.816,6.032 10.44,7.256 11.64,7.256 C12.828,7.256 13.452,6.032 13.452,4.316 C13.452,2.6 12.828,1.376 11.64,1.376 Z M17.88,8.108 C16.236,8.108 15.144,6.56 15.144,4.316 C15.144,2.072 16.236,0.524 17.88,0.524 C19.524,0.524 20.616,2.072 20.616,4.316 C20.616,6.56 19.524,8.108 17.88,8.108 Z M17.88,1.376 C16.68,1.376 16.056,2.6 16.056,4.316 C16.056,6.032 16.68,7.256 17.88,7.256 C19.068,7.256 19.692,6.032 19.692,4.316 C19.692,2.6 19.068,1.376 17.88,1.376 Z M3.31,20.63 L3.27,20.63 L1.16,17.28 L1.16,22 L0.39,22 L0.39,15.86 L1.12,15.86 L3.3,19.39 L5.47,15.86 L6.16,15.86 L6.16,22 L5.39,22 L5.39,17.28 L3.31,20.63 Z M8.31,17.56 L8.31,22 L7.56,22 L7.56,17.56 L8.31,17.56 Z M8.42,16.22 C8.42,16.48 8.2,16.7 7.93,16.7 C7.67,16.7 7.45,16.48 7.45,16.22 C7.45,15.95 7.67,15.74 7.93,15.74 C8.2,15.74 8.42,15.95 8.42,16.22 Z M12.86,18.82 C13.52,18.99 13.97,19.58 13.97,20.27 C13.97,21.39 13.19,22 11.93,22 L9.71,22 L9.71,15.86 L11.73,15.86 C13,15.86 13.76,16.43 13.76,17.49 C13.76,18.22 13.34,18.67 12.86,18.82 Z M10.48,18.53 L11.73,18.53 C12.55,18.53 13,18.2 13,17.53 C13,16.86 12.55,16.55 11.73,16.55 L10.48,16.55 L10.48,18.53 Z M10.48,19.19 L10.48,21.31 L11.93,21.31 C12.76,21.31 13.2,20.89 13.2,20.25 C13.2,19.6 12.76,19.19 11.93,19.19 L10.48,19.19 Z M14.31,22.84 L16.79,15.5 L17.54,15.5 L15.06,22.84 L14.31,22.84 Z M17.48,21.65 L17.48,20.85 C17.89,21.23 18.4,21.45 18.94,21.45 C19.43,21.45 19.86,21.27 19.86,20.83 C19.86,20.5 19.61,20.32 19.22,20.19 L18.61,19.98 C17.94,19.76 17.49,19.44 17.49,18.72 C17.49,17.94 18.18,17.47 19.06,17.47 C19.56,17.47 20.02,17.61 20.38,17.86 L20.38,18.64 C20.01,18.33 19.6,18.11 19.06,18.11 C18.6,18.11 18.22,18.31 18.22,18.69 C18.22,19.05 18.46,19.17 18.88,19.32 L19.56,19.55 C20.23,19.78 20.6,20.17 20.6,20.8 C20.6,21.62 19.87,22.09 18.94,22.09 C18.36,22.09 17.81,21.91 17.48,21.65 Z M190.238094,240.404 L187.620094,246.13 L190.168094,246.13 L190.168094,244.058 L191.190094,244.058 L191.190094,246.13 L192.618094,246.13 L192.618094,247.054 L191.190094,247.054 L191.190094,249 L190.168094,249 L190.168094,247.054 L186.122094,247.054 L186.122094,246.998 L189.146094,240.404 L190.238094,240.404 Z M196.636094,249.126 C194.718094,249.126 193.444094,247.32 193.444094,244.702 C193.444094,242.084 194.718094,240.278 196.636094,240.278 C198.554094,240.278 199.828094,242.084 199.828094,244.702 C199.828094,247.32 198.554094,249.126 196.636094,249.126 Z M196.636094,241.272 C195.236094,241.272 194.508094,242.7 194.508094,244.702 C194.508094,246.704 195.236094,248.132 196.636094,248.132 C198.022094,248.132 198.750094,246.704 198.750094,244.702 C198.750094,242.7 198.022094,241.272 196.636094,241.272 Z M208.480094,247.082 L208.424094,247.082 L205.470094,242.392 L205.470094,249 L204.392094,249 L204.392094,240.404 L205.414094,240.404 L208.466094,245.346 L211.504094,240.404 L212.470094,240.404 L212.470094,249 L211.392094,249 L211.392094,242.392 L208.480094,247.082 Z M215.480094,242.784 L215.480094,249 L214.430094,249 L214.430094,242.784 L215.480094,242.784 Z M215.634094,240.908 C215.634094,241.272 215.326094,241.58 214.948094,241.58 C214.584094,241.58 214.276094,241.272 214.276094,240.908 C214.276094,240.53 214.584094,240.236 214.948094,240.236 C215.326094,240.236 215.634094,240.53 215.634094,240.908 Z M221.850094,244.548 C222.774094,244.786 223.404094,245.612 223.404094,246.578 C223.404094,248.146 222.312094,249 220.548094,249 L217.440094,249 L217.440094,240.404 L220.268094,240.404 C222.046094,240.404 223.110094,241.202 223.110094,242.686 C223.110094,243.708 222.522094,244.338 221.850094,244.548 Z M218.518094,244.142 L220.268094,244.142 C221.416094,244.142 222.046094,243.68 222.046094,242.742 C222.046094,241.804 221.416094,241.37 220.268094,241.37 L218.518094,241.37 L218.518094,244.142 Z M218.518094,245.066 L218.518094,248.034 L220.548094,248.034 C221.710094,248.034 222.326094,247.446 222.326094,246.55 C222.326094,245.64 221.710094,245.066 220.548094,245.066 L218.518094,245.066 Z M223.880094,250.176 L227.352094,239.9 L228.402094,239.9 L224.930094,250.176 L223.880094,250.176 Z M228.318094,248.51 L228.318094,247.39 C228.892094,247.922 229.606094,248.23 230.362094,248.23 C231.048094,248.23 231.650094,247.978 231.650094,247.362 C231.650094,246.9 231.300094,246.648 230.754094,246.466 L229.900094,246.172 C228.962094,245.864 228.332094,245.416 228.332094,244.408 C228.332094,243.316 229.298094,242.658 230.530094,242.658 C231.230094,242.658 231.874094,242.854 232.378094,243.204 L232.378094,244.296 C231.860094,243.862 231.286094,243.554 230.530094,243.554 C229.886094,243.554 229.354094,243.834 229.354094,244.366 C229.354094,244.87 229.690094,245.038 230.278094,245.248 L231.230094,245.57 C232.168094,245.892 232.686094,246.438 232.686094,247.32 C232.686094,248.468 231.664094,249.126 230.362094,249.126 C229.550094,249.126 228.780094,248.874 228.318094,248.51 Z M44.942,242.404 L45.824,242.404 L47.644,249.236 L49.408,242.404 L50.472,242.404 L48.19,251 L47.182,251 L45.376,244.294 L43.542,251 L42.548,251 L40.266,242.404 L41.358,242.404 L43.122,249.236 L44.942,242.404 Z M54.392,247.36 L52.866,247.36 L52.866,251 L51.76,251 L51.76,242.404 L54.91,242.404 C56.646,242.404 57.766,243.272 57.766,244.896 C57.766,246.324 56.926,247.122 55.568,247.318 L58.116,251 L56.856,251 L54.392,247.36 Z M52.866,243.37 L52.866,246.422 L54.882,246.422 C56.016,246.422 56.674,245.848 56.674,244.896 C56.674,243.944 56.016,243.37 54.882,243.37 L52.866,243.37 Z M60.594,242.404 L60.594,251 L59.488,251 L59.488,242.404 L60.594,242.404 Z M62.036,243.384 L62.036,242.404 L69.134,242.404 L69.134,243.384 L66.138,243.384 L66.138,251 L65.032,251 L65.032,243.384 L62.036,243.384 Z M70.576,242.404 L76.05,242.404 L76.05,243.384 L71.668,243.384 L71.668,246.1 L75.644,246.1 L75.644,247.08 L71.668,247.08 L71.668,250.006 L76.05,250.006 L76.05,251 L70.576,251 L70.576,242.404 Z M80.432,250.328 L80.432,249.138 C81.23,249.824 82.126,250.146 83.134,250.146 C84.24,250.146 84.968,249.67 84.968,248.788 C84.968,248.032 84.506,247.724 83.596,247.346 L82.336,246.856 C81.328,246.464 80.404,245.89 80.404,244.532 C80.404,243.048 81.678,242.278 83.162,242.278 C84.1,242.278 84.982,242.53 85.626,242.978 L85.626,244.14 C84.94,243.594 84.17,243.244 83.176,243.244 C82.224,243.244 81.482,243.664 81.482,244.518 C81.482,245.246 81.972,245.554 82.77,245.862 L84.128,246.394 C85.444,246.898 86.032,247.584 86.032,248.774 C86.032,250.244 84.8,251.126 83.134,251.126 C81.972,251.126 81.02,250.79 80.432,250.328 Z M90.792,247.556 L88.72,247.556 L88.72,251 L87.614,251 L87.614,242.404 L90.792,242.404 C92.528,242.404 93.662,243.286 93.662,244.98 C93.662,246.66 92.528,247.556 90.792,247.556 Z M92.57,244.98 C92.57,244 91.94,243.37 90.778,243.37 L88.72,243.37 L88.72,246.576 L90.778,246.576 C91.94,246.576 92.57,245.946 92.57,244.98 Z M95.132,242.404 L100.606,242.404 L100.606,243.384 L96.224,243.384 L96.224,246.1 L100.2,246.1 L100.2,247.08 L96.224,247.08 L96.224,250.006 L100.606,250.006 L100.606,251 L95.132,251 L95.132,242.404 Z M102.342,242.404 L107.816,242.404 L107.816,243.384 L103.434,243.384 L103.434,246.1 L107.41,246.1 L107.41,247.08 L103.434,247.08 L103.434,250.006 L107.816,250.006 L107.816,251 L102.342,251 L102.342,242.404 Z M110.658,250.006 L112.296,250.006 C114.242,250.006 115.39,248.718 115.39,246.702 C115.39,244.686 114.242,243.384 112.296,243.384 L110.658,243.384 L110.658,250.006 Z M109.552,251 L109.552,242.404 L112.31,242.404 C114.83,242.404 116.482,244.084 116.482,246.702 C116.482,249.32 114.83,251 112.31,251 L109.552,251 Z M188.278094,306.02 L192.016094,306.02 L192.016094,307 L186.332094,307 L186.332094,306.944 L188.964094,303.71 C189.846094,302.646 190.560094,301.82 190.560094,300.742 C190.560094,299.874 190.028094,299.258 188.978094,299.258 C187.984094,299.258 187.130094,299.832 186.528094,300.448 L186.528094,299.328 C187.116094,298.726 188.040094,298.278 189.062094,298.278 C190.644094,298.278 191.638094,299.216 191.638094,300.7 C191.638094,301.932 190.812094,302.954 189.860094,304.13 L188.278094,306.02 Z M199.842094,298.446 L195.936094,307 L194.830094,307 L198.330094,299.384 L193.696094,299.384 L193.696094,298.404 L199.842094,298.404 L199.842094,298.446 Z M208.480094,305.082 L208.424094,305.082 L205.470094,300.392 L205.470094,307 L204.392094,307 L204.392094,298.404 L205.414094,298.404 L208.466094,303.346 L211.504094,298.404 L212.470094,298.404 L212.470094,307 L211.392094,307 L211.392094,300.392 L208.480094,305.082 Z M215.480094,300.784 L215.480094,307 L214.430094,307 L214.430094,300.784 L215.480094,300.784 Z M215.634094,298.908 C215.634094,299.272 215.326094,299.58 214.948094,299.58 C214.584094,299.58 214.276094,299.272 214.276094,298.908 C214.276094,298.53 214.584094,298.236 214.948094,298.236 C215.326094,298.236 215.634094,298.53 215.634094,298.908 Z M221.850094,302.548 C222.774094,302.786 223.404094,303.612 223.404094,304.578 C223.404094,306.146 222.312094,307 220.548094,307 L217.440094,307 L217.440094,298.404 L220.268094,298.404 C222.046094,298.404 223.110094,299.202 223.110094,300.686 C223.110094,301.708 222.522094,302.338 221.850094,302.548 Z M218.518094,302.142 L220.268094,302.142 C221.416094,302.142 222.046094,301.68 222.046094,300.742 C222.046094,299.804 221.416094,299.37 220.268094,299.37 L218.518094,299.37 L218.518094,302.142 Z M218.518094,303.066 L218.518094,306.034 L220.548094,306.034 C221.710094,306.034 222.326094,305.446 222.326094,304.55 C222.326094,303.64 221.710094,303.066 220.548094,303.066 L218.518094,303.066 Z M223.880094,308.176 L227.352094,297.9 L228.402094,297.9 L224.930094,308.176 L223.880094,308.176 Z M228.318094,306.51 L228.318094,305.39 C228.892094,305.922 229.606094,306.23 230.362094,306.23 C231.048094,306.23 231.650094,305.978 231.650094,305.362 C231.650094,304.9 231.300094,304.648 230.754094,304.466 L229.900094,304.172 C228.962094,303.864 228.332094,303.416 228.332094,302.408 C228.332094,301.316 229.298094,300.658 230.530094,300.658 C231.230094,300.658 231.874094,300.854 232.378094,301.204 L232.378094,302.296 C231.860094,301.862 231.286094,301.554 230.530094,301.554 C229.886094,301.554 229.354094,301.834 229.354094,302.366 C229.354094,302.87 229.690094,303.038 230.278094,303.248 L231.230094,303.57 C232.168094,303.892 232.686094,304.438 232.686094,305.32 C232.686094,306.468 231.664094,307.126 230.362094,307.126 C229.550094,307.126 228.780094,306.874 228.318094,306.51 Z M43.654,305.36 L42.128,305.36 L42.128,309 L41.022,309 L41.022,300.404 L44.172,300.404 C45.908,300.404 47.028,301.272 47.028,302.896 C47.028,304.324 46.188,305.122 44.83,305.318 L47.378,309 L46.118,309 L43.654,305.36 Z M42.128,301.37 L42.128,304.422 L44.144,304.422 C45.278,304.422 45.936,303.848 45.936,302.896 C45.936,301.944 45.278,301.37 44.144,301.37 L42.128,301.37 Z M48.75,300.404 L54.224,300.404 L54.224,301.384 L49.842,301.384 L49.842,304.1 L53.818,304.1 L53.818,305.08 L49.842,305.08 L49.842,308.006 L54.224,308.006 L54.224,309 L48.75,309 L48.75,300.404 Z M58.592,300.404 L59.628,300.404 L62.988,309 L61.868,309 L60.874,306.41 L57.332,306.41 L56.352,309 L55.232,309 L58.592,300.404 Z M59.096,301.776 L57.696,305.444 L60.496,305.444 L59.096,301.776 Z M65.41,308.006 L67.048,308.006 C68.994,308.006 70.142,306.718 70.142,304.702 C70.142,302.686 68.994,301.384 67.048,301.384 L65.41,301.384 L65.41,308.006 Z M64.304,309 L64.304,300.404 L67.062,300.404 C69.582,300.404 71.234,302.084 71.234,304.702 C71.234,307.32 69.582,309 67.062,309 L64.304,309 Z M75.42,308.328 L75.42,307.138 C76.218,307.824 77.114,308.146 78.122,308.146 C79.228,308.146 79.956,307.67 79.956,306.788 C79.956,306.032 79.494,305.724 78.584,305.346 L77.324,304.856 C76.316,304.464 75.392,303.89 75.392,302.532 C75.392,301.048 76.666,300.278 78.15,300.278 C79.088,300.278 79.97,300.53 80.614,300.978 L80.614,302.14 C79.928,301.594 79.158,301.244 78.164,301.244 C77.212,301.244 76.47,301.664 76.47,302.518 C76.47,303.246 76.96,303.554 77.758,303.862 L79.116,304.394 C80.432,304.898 81.02,305.584 81.02,306.774 C81.02,308.244 79.788,309.126 78.122,309.126 C76.96,309.126 76.008,308.79 75.42,308.328 Z M85.78,305.556 L83.708,305.556 L83.708,309 L82.602,309 L82.602,300.404 L85.78,300.404 C87.516,300.404 88.65,301.286 88.65,302.98 C88.65,304.66 87.516,305.556 85.78,305.556 Z M87.558,302.98 C87.558,302 86.928,301.37 85.766,301.37 L83.708,301.37 L83.708,304.576 L85.766,304.576 C86.928,304.576 87.558,303.946 87.558,302.98 Z M90.12,300.404 L95.594,300.404 L95.594,301.384 L91.212,301.384 L91.212,304.1 L95.188,304.1 L95.188,305.08 L91.212,305.08 L91.212,308.006 L95.594,308.006 L95.594,309 L90.12,309 L90.12,300.404 Z M97.33,300.404 L102.804,300.404 L102.804,301.384 L98.422,301.384 L98.422,304.1 L102.398,304.1 L102.398,305.08 L98.422,305.08 L98.422,308.006 L102.804,308.006 L102.804,309 L97.33,309 L97.33,300.404 Z M105.646,308.006 L107.284,308.006 C109.23,308.006 110.378,306.718 110.378,304.702 C110.378,302.686 109.23,301.384 107.284,301.384 L105.646,301.384 L105.646,308.006 Z M104.54,309 L104.54,300.404 L107.298,300.404 C109.818,300.404 111.47,302.084 111.47,304.702 C111.47,307.32 109.818,309 107.298,309 L104.54,309 Z" id="Combined-Shape" fill="#666666" fill-rule="nonzero"></path>
                                </g>
                                <g id="Group-18">
                                    <g id="Group-17" transform="translate(9.000000, 41.000000)"></g>
                                    <g id="Group-17" transform="translate(9.000000, 86.000000)"></g>
                                    <g id="Group-17" transform="translate(9.000000, 131.000000)"></g>
                                    <g id="Group-17" transform="translate(15.000000, 175.000000)"></g>
                                    <g id="Group-17"></g>
                                    <g id="Group-3" transform="translate(21.000000, 4.000000)">
                                        <path d="M3.47807018,44.5 L220.52193,44.5" id="Line-4" stroke="#EAEAEA" stroke-linecap="square"></path>
                                        <path d="M3.47807018,0.5 L220.52193,0.5" id="Line-4" stroke="#EAEAEA" stroke-linecap="square"></path>
                                        <path d="M3.47807018,89.5 L220.52193,89.5" id="Line-4" stroke="#EAEAEA" stroke-linecap="square"></path>
                                        <path d="M3.47807018,134.5 L220.52193,134.5" id="Line-4" stroke="#EAEAEA" stroke-linecap="square"></path>
                                        <path d="M3.47807018,179.5 L220.52193,179.5" id="Line-4" stroke="#EAEAEA" stroke-linecap="square"></path>
                                        <polyline id="Path-5" stroke="#2AD2C9" stroke-width="3" stroke-linecap="round" points="2.43359375 105.958984 25.4570312 128.833984 54.7441406 117.396484 86.125 135.810547 118.169922 128.833984 156.429687 99.2773438 182.296875 135.810547 220.291016 123.927734"></polyline>
                                        <polyline id="Path-6" stroke="#FD9A69" stroke-width="3" stroke-linecap="round" points="5.61523438 132.162109 33.4726563 146.890625 50.5625 129.162109 84.1230469 166.792969 104.083984 161.789062 141.375 177.216797 165.988281 161.789062 188.550781 166.792969 219.441406 150.548828"></polyline>
                                        <path d="M5.5,1.5 L5.5,195.502577" id="Line-2" stroke="#666666" opacity="0.362723214" stroke-linecap="square"></path>
                                        <circle id="Oval-5" stroke="#FFFFFF" fill="#2AD2C9" cx="5.5" cy="107.5" r="5.5"></circle>
                                        <circle id="Oval-5" stroke="#FFFFFF" fill="#FD9A69" cx="5.5" cy="130.5" r="5.5"></circle>
                                    </g>
                                </g>
                                <g id="legend" transform="translate(8.000000, 243.000000)" stroke="#2AD2C9" stroke-linecap="round" stroke-width="15">
                                    <g id="Bar" transform="translate(0.000000, 6.000000)">
                                        <g id="Normal">
                                            <path d="M0,1 L18.8281704,1" id="1"></path>
                                        </g>
                                    </g>
                                </g>
                                <g id="legend" transform="translate(8.000000, 301.000000)" stroke="#FD9A69" stroke-linecap="round" stroke-width="15">
                                    <g id="Bar" transform="translate(0.000000, 6.000000)">
                                        <g id="Normal">
                                            <path d="M0,1 L18.8281704,1" id="1"></path>
                                        </g>
                                    </g>
                                </g>
                            </g>
                        </g>
                    </g>
                </g>
            </g>
        </g>
    </g>
</svg>