<?xml version="1.0" encoding="utf-8"?>
<!-- Generator: Adobe Illustrator 22.1.0, SVG Export Plug-In . SVG Version: 6.00 Build 0)  -->
<svg version="1.1" id="Layer_1" xmlns="http://www.w3.org/2000/svg" xmlns:xlink="http://www.w3.org/1999/xlink" x="0px" y="0px"
	 viewBox="0 0 28 28" style="enable-background:new 0 0 28 28;" xml:space="preserve">
<style type="text/css">
	.st0{fill:#425563;}
</style>
<title>storage</title>
<desc>Created with Sketch.</desc>
<g id="SEMC-Example">
	<g id="G2-Dashboard-Copy" transform="translate(-462.000000, -334.000000)">
		<g id="Group-12-Copy-2" transform="translate(432.000000, 100.000000)">
			<g id="Group-5" transform="translate(31.000000, 235.000000)">
				<g id="storage">
					<g>
						<path class="st0" d="M13,27C1.9,27-0.6,22.9-0.9,22.5L-1,22.3V3.7l0.1-0.2C-0.6,3.1,1.9-1,13-1c11.1,0,13.6,4.1,13.9,4.5
							L27,3.7v18.5l-0.1,0.2C26.6,22.9,24.1,27,13,27z M1,21.7C1.6,22.4,4.3,25,13,25c8.6,0,11.4-2.6,12-3.3v-4.8
							c-2.1,1.2-6.1,3-12,3c-5.9,0-9.9-1.8-12-3V21.7z M1,14.5c1.1,0.8,5.2,3.4,12,3.4c6.8,0,10.9-2.6,12-3.4V8.2
							c-2.1,1.2-6.1,3-12,3c-5.9,0-9.9-1.8-12-3V14.5z M1,5.8c1.1,0.8,5.2,3.4,12,3.4c6.8,0,10.9-2.6,12-3.4V4.3
							C24.4,3.6,21.7,1,13,1C4.4,1,1.6,3.6,1,4.3V5.8z"/>
					</g>
				</g>
			</g>
		</g>
	</g>
</g>
</svg>
