<?xml version="1.0" encoding="UTF-8"?>
<svg width="234px" height="375px" viewBox="0 0 234 375" version="1.1" xmlns="http://www.w3.org/2000/svg" xmlns:xlink="http://www.w3.org/1999/xlink">
    <!-- Generator: Sketch 52.4 (67378) - http://www.bohemiancoding.com/sketch -->
    <title>utilization-chart</title>
    <desc>Created with Sketch.</desc>
    <g id="SEMC-Example" stroke="none" stroke-width="1" fill="none" fill-rule="evenodd">
        <g id="G2-Dashboard" transform="translate(-799.000000, -468.000000)">
            <g id="Group-4" transform="translate(757.000000, 270.000000)">
                <g id="utilization-chart" transform="translate(43.000000, 206.000000)">
                    <g id="Group-22">
                        <g id="legend" transform="translate(0.000000, 98.000000)">
                            <g id="Bar" transform="translate(7.000000, 139.000000)" stroke-linecap="round" stroke-width="15">
                                <g id="Baseline" transform="translate(0.000000, 1.000000)" stroke="#333333" stroke-opacity="0.1">
                                    <path d="M0,1 L217.898699,1" id="1"></path>
                                </g>
                                <g id="Normal" transform="translate(0.000000, 1.000000)" stroke="#9060EB">
                                    <path d="M0,1 L91.5,1" id="1"></path>
                                </g>
                            </g>
                            <path d="M175.944094,126 L175.944094,125.02 L178.394094,125.02 L178.394094,118.72 L175.986094,119.952 L175.986094,118.832 L178.814094,117.39 L179.472094,117.39 L179.472094,125.02 L181.628094,125.02 L181.628094,126 L175.944094,126 Z M186.794094,117.404 L184.176094,123.13 L186.724094,123.13 L186.724094,121.058 L187.746094,121.058 L187.746094,123.13 L189.174094,123.13 L189.174094,124.054 L187.746094,124.054 L187.746094,126 L186.724094,126 L186.724094,124.054 L182.678094,124.054 L182.678094,123.998 L185.702094,117.404 L186.794094,117.404 Z M192.814094,120.61 C194.578094,120.61 195.964094,121.618 195.964094,123.354 C195.964094,125.104 194.564094,126.126 192.772094,126.126 C191.764094,126.126 191.036094,125.86 190.462094,125.44 L190.462094,124.25 C191.106094,124.852 191.862094,125.174 192.730094,125.174 C193.920094,125.174 194.942094,124.516 194.942094,123.354 C194.942094,122.22 193.920094,121.548 192.716094,121.548 C191.890094,121.548 191.428094,121.716 190.812094,121.954 L190.812094,117.404 L195.502094,117.404 L195.502094,118.384 L191.722094,118.384 L191.722094,120.764 C191.988094,120.68 192.408094,120.61 192.814094,120.61 Z M197.742094,118.384 L197.742094,117.404 L203.062094,117.404 L203.062094,117.446 L200.766094,120.862 C202.110094,121.044 203.118094,121.996 203.118094,123.396 C203.118094,125.076 201.746094,126.14 200.122094,126.14 C198.988094,126.14 198.260094,125.846 197.686094,125.426 L197.686094,124.25 C198.330094,124.866 199.170094,125.174 200.066094,125.174 C201.228094,125.174 202.124094,124.544 202.124094,123.396 C202.124094,122.136 200.878094,121.478 199.296094,121.534 L199.296094,121.492 L201.382094,118.384 L197.742094,118.384 Z M206.674094,125.02 L210.412094,125.02 L210.412094,126 L204.728094,126 L204.728094,125.944 L207.360094,122.71 C208.242094,121.646 208.956094,120.82 208.956094,119.742 C208.956094,118.874 208.424094,118.258 207.374094,118.258 C206.380094,118.258 205.526094,118.832 204.924094,119.448 L204.924094,118.328 C205.512094,117.726 206.436094,117.278 207.458094,117.278 C209.040094,117.278 210.034094,118.216 210.034094,119.7 C210.034094,120.932 209.208094,121.954 208.256094,123.13 L206.674094,125.02 Z M219.050094,125.146 C219.834094,125.146 220.464094,124.95 221.024094,124.488 L221.024094,122.458 L219.134094,122.458 L219.134094,121.534 L222.046094,121.534 L222.046094,124.894 C221.220094,125.804 220.086094,126.126 219.022094,126.126 C216.628094,126.126 215.004094,124.362 215.004094,121.702 C215.004094,119.028 216.782094,117.278 219.148094,117.278 C220.156094,117.278 221.024094,117.572 221.626094,118.048 L221.626094,119.224 C220.898094,118.566 220.086094,118.272 219.148094,118.272 C217.356094,118.272 216.110094,119.63 216.110094,121.702 C216.110094,123.774 217.258094,125.146 219.050094,125.146 Z M224.776094,119.784 L224.776094,126 L223.726094,126 L223.726094,119.784 L224.776094,119.784 Z M224.930094,117.908 C224.930094,118.272 224.622094,118.58 224.244094,118.58 C223.880094,118.58 223.572094,118.272 223.572094,117.908 C223.572094,117.53 223.880094,117.236 224.244094,117.236 C224.622094,117.236 224.930094,117.53 224.930094,117.908 Z M231.146094,121.548 C232.070094,121.786 232.700094,122.612 232.700094,123.578 C232.700094,125.146 231.608094,126 229.844094,126 L226.736094,126 L226.736094,117.404 L229.564094,117.404 C231.342094,117.404 232.406094,118.202 232.406094,119.686 C232.406094,120.708 231.818094,121.338 231.146094,121.548 Z M227.814094,121.142 L229.564094,121.142 C230.712094,121.142 231.342094,120.68 231.342094,119.742 C231.342094,118.804 230.712094,118.37 229.564094,118.37 L227.814094,118.37 L227.814094,121.142 Z M227.814094,122.066 L227.814094,125.034 L229.844094,125.034 C231.006094,125.034 231.622094,124.446 231.622094,123.55 C231.622094,122.64 231.006094,122.066 229.844094,122.066 L227.814094,122.066 Z M2.128,117.404 L2.128,126 L1.022,126 L1.022,117.404 L2.128,117.404 Z M10.85,117.404 L10.85,126 L10.038,126 L5.236,119.168 L5.236,126 L4.172,126 L4.172,117.404 L5.222,117.404 L9.8,123.942 L9.8,117.404 L10.85,117.404 Z M19.208,126.126 C17.262,126.126 15.848,124.95 15.848,122.584 L15.848,117.404 L16.94,117.404 L16.94,122.458 C16.94,124.292 17.822,125.146 19.208,125.146 C20.594,125.146 21.476,124.292 21.476,122.458 L21.476,117.404 L22.582,117.404 L22.582,122.598 C22.582,124.95 21.168,126.126 19.208,126.126 Z M24.038,125.328 L24.038,124.138 C24.836,124.824 25.732,125.146 26.74,125.146 C27.846,125.146 28.574,124.67 28.574,123.788 C28.574,123.032 28.112,122.724 27.202,122.346 L25.942,121.856 C24.934,121.464 24.01,120.89 24.01,119.532 C24.01,118.048 25.284,117.278 26.768,117.278 C27.706,117.278 28.588,117.53 29.232,117.978 L29.232,119.14 C28.546,118.594 27.776,118.244 26.782,118.244 C25.83,118.244 25.088,118.664 25.088,119.518 C25.088,120.246 25.578,120.554 26.376,120.862 L27.734,121.394 C29.05,121.898 29.638,122.584 29.638,123.774 C29.638,125.244 28.406,126.126 26.74,126.126 C25.578,126.126 24.626,125.79 24.038,125.328 Z M31.22,117.404 L36.694,117.404 L36.694,118.384 L32.312,118.384 L32.312,121.1 L36.288,121.1 L36.288,122.08 L32.312,122.08 L32.312,125.006 L36.694,125.006 L36.694,126 L31.22,126 L31.22,117.404 Z M172.850094,186 L172.850094,185.02 L175.300094,185.02 L175.300094,178.72 L172.892094,179.952 L172.892094,178.832 L175.720094,177.39 L176.378094,177.39 L176.378094,185.02 L178.534094,185.02 L178.534094,186 L172.850094,186 Z M182.818094,186.126 C181.152094,186.126 179.906094,184.866 179.906094,183.2 C179.906094,182.5 180.102094,181.8 180.662094,180.82 L182.622094,177.404 L183.756094,177.404 L181.950094,180.54 C182.174094,180.4 182.552094,180.288 182.888094,180.288 C184.540094,180.288 185.730094,181.548 185.730094,183.2 C185.730094,184.866 184.484094,186.126 182.818094,186.126 Z M184.722094,183.2 C184.722094,182.094 183.910094,181.226 182.818094,181.226 C181.726094,181.226 180.914094,182.094 180.914094,183.2 C180.914094,184.32 181.726094,185.174 182.818094,185.174 C183.910094,185.174 184.722094,184.32 184.722094,183.2 Z M189.720094,180.61 C191.484094,180.61 192.870094,181.618 192.870094,183.354 C192.870094,185.104 191.470094,186.126 189.678094,186.126 C188.670094,186.126 187.942094,185.86 187.368094,185.44 L187.368094,184.25 C188.012094,184.852 188.768094,185.174 189.636094,185.174 C190.826094,185.174 191.848094,184.516 191.848094,183.354 C191.848094,182.22 190.826094,181.548 189.622094,181.548 C188.796094,181.548 188.334094,181.716 187.718094,181.954 L187.718094,177.404 L192.408094,177.404 L192.408094,178.384 L188.628094,178.384 L188.628094,180.764 C188.894094,180.68 189.314094,180.61 189.720094,180.61 Z M197.392094,185.23 C198.498094,185.23 199.324094,184.558 199.324094,183.578 C199.324094,182.612 198.498094,181.94 197.392094,181.94 C196.300094,181.94 195.474094,182.612 195.474094,183.578 C195.474094,184.558 196.300094,185.23 197.392094,185.23 Z M197.392094,181.016 C198.302094,181.016 199.016094,180.442 199.016094,179.602 C199.016094,178.748 198.302094,178.174 197.392094,178.174 C196.496094,178.174 195.782094,178.748 195.782094,179.602 C195.782094,180.442 196.496094,181.016 197.392094,181.016 Z M197.392094,186.126 C195.712094,186.126 194.424094,185.146 194.424094,183.662 C194.424094,182.542 195.166094,181.73 196.118094,181.478 C195.320094,181.198 194.732094,180.484 194.732094,179.546 C194.732094,178.16 195.922094,177.278 197.392094,177.278 C198.890094,177.278 200.066094,178.16 200.066094,179.546 C200.066094,180.484 199.478094,181.198 198.680094,181.478 C199.632094,181.73 200.374094,182.542 200.374094,183.662 C200.374094,185.146 199.086094,186.126 197.392094,186.126 Z M205.540094,177.404 L202.922094,183.13 L205.470094,183.13 L205.470094,181.058 L206.492094,181.058 L206.492094,183.13 L207.920094,183.13 L207.920094,184.054 L206.492094,184.054 L206.492094,186 L205.470094,186 L205.470094,184.054 L201.424094,184.054 L201.424094,183.998 L204.448094,177.404 L205.540094,177.404 Z M219.050094,185.146 C219.834094,185.146 220.464094,184.95 221.024094,184.488 L221.024094,182.458 L219.134094,182.458 L219.134094,181.534 L222.046094,181.534 L222.046094,184.894 C221.220094,185.804 220.086094,186.126 219.022094,186.126 C216.628094,186.126 215.004094,184.362 215.004094,181.702 C215.004094,179.028 216.782094,177.278 219.148094,177.278 C220.156094,177.278 221.024094,177.572 221.626094,178.048 L221.626094,179.224 C220.898094,178.566 220.086094,178.272 219.148094,178.272 C217.356094,178.272 216.110094,179.63 216.110094,181.702 C216.110094,183.774 217.258094,185.146 219.050094,185.146 Z M224.776094,179.784 L224.776094,186 L223.726094,186 L223.726094,179.784 L224.776094,179.784 Z M224.930094,177.908 C224.930094,178.272 224.622094,178.58 224.244094,178.58 C223.880094,178.58 223.572094,178.272 223.572094,177.908 C223.572094,177.53 223.880094,177.236 224.244094,177.236 C224.622094,177.236 224.930094,177.53 224.930094,177.908 Z M231.146094,181.548 C232.070094,181.786 232.700094,182.612 232.700094,183.578 C232.700094,185.146 231.608094,186 229.844094,186 L226.736094,186 L226.736094,177.404 L229.564094,177.404 C231.342094,177.404 232.406094,178.202 232.406094,179.686 C232.406094,180.708 231.818094,181.338 231.146094,181.548 Z M227.814094,181.142 L229.564094,181.142 C230.712094,181.142 231.342094,180.68 231.342094,179.742 C231.342094,178.804 230.712094,178.37 229.564094,178.37 L227.814094,178.37 L227.814094,181.142 Z M227.814094,182.066 L227.814094,185.034 L229.844094,185.034 C231.006094,185.034 231.622094,184.446 231.622094,183.55 C231.622094,182.64 231.006094,182.066 229.844094,182.066 L227.814094,182.066 Z M3.654,177.404 L4.69,177.404 L8.05,186 L6.93,186 L5.936,183.41 L2.394,183.41 L1.414,186 L0.294,186 L3.654,177.404 Z M4.158,178.776 L2.758,182.444 L5.558,182.444 L4.158,178.776 Z M12.32,186 L11.284,186 L7.966,177.404 L9.128,177.404 L11.816,184.544 L14.518,177.404 L15.638,177.404 L12.32,186 Z M18.914,177.404 L19.95,177.404 L23.31,186 L22.19,186 L21.196,183.41 L17.654,183.41 L16.674,186 L15.554,186 L18.914,177.404 Z M19.418,178.776 L18.018,182.444 L20.818,182.444 L19.418,178.776 Z M25.732,177.404 L25.732,186 L24.626,186 L24.626,177.404 L25.732,177.404 Z M27.776,186 L27.776,177.404 L28.882,177.404 L28.882,185.006 L33.264,185.006 L33.264,186 L27.776,186 Z M37.464,177.404 L38.5,177.404 L41.86,186 L40.74,186 L39.746,183.41 L36.204,183.41 L35.224,186 L34.104,186 L37.464,177.404 Z M37.968,178.776 L36.568,182.444 L39.368,182.444 L37.968,178.776 Z M47.586,181.548 C48.51,181.786 49.14,182.612 49.14,183.578 C49.14,185.146 48.048,186 46.284,186 L43.176,186 L43.176,177.404 L46.004,177.404 C47.782,177.404 48.846,178.202 48.846,179.686 C48.846,180.708 48.258,181.338 47.586,181.548 Z M44.254,181.142 L46.004,181.142 C47.152,181.142 47.782,180.68 47.782,179.742 C47.782,178.804 47.152,178.37 46.004,178.37 L44.254,178.37 L44.254,181.142 Z M44.254,182.066 L44.254,185.034 L46.284,185.034 C47.446,185.034 48.062,184.446 48.062,183.55 C48.062,182.64 47.446,182.066 46.284,182.066 L44.254,182.066 Z M50.708,186 L50.708,177.404 L51.814,177.404 L51.814,185.006 L56.196,185.006 L56.196,186 L50.708,186 Z M57.764,177.404 L63.238,177.404 L63.238,178.384 L58.856,178.384 L58.856,181.1 L62.832,181.1 L62.832,182.08 L58.856,182.08 L58.856,185.006 L63.238,185.006 L63.238,186 L57.764,186 L57.764,177.404 Z M185.534094,240.61 C187.298094,240.61 188.684094,241.618 188.684094,243.354 C188.684094,245.104 187.284094,246.126 185.492094,246.126 C184.484094,246.126 183.756094,245.86 183.182094,245.44 L183.182094,244.25 C183.826094,244.852 184.582094,245.174 185.450094,245.174 C186.640094,245.174 187.662094,244.516 187.662094,243.354 C187.662094,242.22 186.640094,241.548 185.436094,241.548 C184.610094,241.548 184.148094,241.716 183.532094,241.954 L183.532094,237.404 L188.222094,237.404 L188.222094,238.384 L184.442094,238.384 L184.442094,240.764 C184.708094,240.68 185.128094,240.61 185.534094,240.61 Z M190.462094,238.384 L190.462094,237.404 L195.782094,237.404 L195.782094,237.446 L193.486094,240.862 C194.830094,241.044 195.838094,241.996 195.838094,243.396 C195.838094,245.076 194.466094,246.14 192.842094,246.14 C191.708094,246.14 190.980094,245.846 190.406094,245.426 L190.406094,244.25 C191.050094,244.866 191.890094,245.174 192.786094,245.174 C193.948094,245.174 194.844094,244.544 194.844094,243.396 C194.844094,242.136 193.598094,241.478 192.016094,241.534 L192.016094,241.492 L194.102094,238.384 L190.462094,238.384 Z M200.094094,240.61 C201.858094,240.61 203.244094,241.618 203.244094,243.354 C203.244094,245.104 201.844094,246.126 200.052094,246.126 C199.044094,246.126 198.316094,245.86 197.742094,245.44 L197.742094,244.25 C198.386094,244.852 199.142094,245.174 200.010094,245.174 C201.200094,245.174 202.222094,244.516 202.222094,243.354 C202.222094,242.22 201.200094,241.548 199.996094,241.548 C199.170094,241.548 198.708094,241.716 198.092094,241.954 L198.092094,237.404 L202.782094,237.404 L202.782094,238.384 L199.002094,238.384 L199.002094,240.764 C199.268094,240.68 199.688094,240.61 200.094094,240.61 Z M207.752094,246.126 C205.834094,246.126 204.560094,244.32 204.560094,241.702 C204.560094,239.084 205.834094,237.278 207.752094,237.278 C209.670094,237.278 210.944094,239.084 210.944094,241.702 C210.944094,244.32 209.670094,246.126 207.752094,246.126 Z M207.752094,238.272 C206.352094,238.272 205.624094,239.7 205.624094,241.702 C205.624094,243.704 206.352094,245.132 207.752094,245.132 C209.138094,245.132 209.866094,243.704 209.866094,241.702 C209.866094,239.7 209.138094,238.272 207.752094,238.272 Z M219.050094,245.146 C219.834094,245.146 220.464094,244.95 221.024094,244.488 L221.024094,242.458 L219.134094,242.458 L219.134094,241.534 L222.046094,241.534 L222.046094,244.894 C221.220094,245.804 220.086094,246.126 219.022094,246.126 C216.628094,246.126 215.004094,244.362 215.004094,241.702 C215.004094,239.028 216.782094,237.278 219.148094,237.278 C220.156094,237.278 221.024094,237.572 221.626094,238.048 L221.626094,239.224 C220.898094,238.566 220.086094,238.272 219.148094,238.272 C217.356094,238.272 216.110094,239.63 216.110094,241.702 C216.110094,243.774 217.258094,245.146 219.050094,245.146 Z M224.776094,239.784 L224.776094,246 L223.726094,246 L223.726094,239.784 L224.776094,239.784 Z M224.930094,237.908 C224.930094,238.272 224.622094,238.58 224.244094,238.58 C223.880094,238.58 223.572094,238.272 223.572094,237.908 C223.572094,237.53 223.880094,237.236 224.244094,237.236 C224.622094,237.236 224.930094,237.53 224.930094,237.908 Z M231.146094,241.548 C232.070094,241.786 232.700094,242.612 232.700094,243.578 C232.700094,245.146 231.608094,246 229.844094,246 L226.736094,246 L226.736094,237.404 L229.564094,237.404 C231.342094,237.404 232.406094,238.202 232.406094,239.686 C232.406094,240.708 231.818094,241.338 231.146094,241.548 Z M227.814094,241.142 L229.564094,241.142 C230.712094,241.142 231.342094,240.68 231.342094,239.742 C231.342094,238.804 230.712094,238.37 229.564094,238.37 L227.814094,238.37 L227.814094,241.142 Z M227.814094,242.066 L227.814094,245.034 L229.844094,245.034 C231.006094,245.034 231.622094,244.446 231.622094,243.55 C231.622094,242.64 231.006094,242.066 229.844094,242.066 L227.814094,242.066 Z M8.288,241.702 C8.288,244.292 6.664,246.126 4.396,246.126 C2.142,246.126 0.518,244.292 0.518,241.702 C0.518,239.098 2.142,237.278 4.396,237.278 C6.664,237.278 8.288,239.098 8.288,241.702 Z M7.182,241.702 C7.182,239.686 6.062,238.272 4.396,238.272 C2.744,238.272 1.624,239.686 1.624,241.702 C1.624,243.718 2.744,245.132 4.396,245.132 C6.062,245.132 7.182,243.718 7.182,241.702 Z M8.778,238.384 L8.778,237.404 L15.876,237.404 L15.876,238.384 L12.88,238.384 L12.88,246 L11.774,246 L11.774,238.384 L8.778,238.384 Z M23.282,237.404 L24.388,237.404 L24.388,246 L23.282,246 L23.282,242.08 L18.424,242.08 L18.424,246 L17.318,246 L17.318,237.404 L18.424,237.404 L18.424,241.086 L23.282,241.086 L23.282,237.404 Z M26.432,237.404 L31.906,237.404 L31.906,238.384 L27.524,238.384 L27.524,241.1 L31.5,241.1 L31.5,242.08 L27.524,242.08 L27.524,245.006 L31.906,245.006 L31.906,246 L26.432,246 L26.432,237.404 Z M36.274,242.36 L34.748,242.36 L34.748,246 L33.642,246 L33.642,237.404 L36.792,237.404 C38.528,237.404 39.648,238.272 39.648,239.896 C39.648,241.324 38.808,242.122 37.45,242.318 L39.998,246 L38.738,246 L36.274,242.36 Z M34.748,238.37 L34.748,241.422 L36.764,241.422 C37.898,241.422 38.556,240.848 38.556,239.896 C38.556,238.944 37.898,238.37 36.764,238.37 L34.748,238.37 Z M103.868,2.384 L103.868,1.404 L110.966,1.404 L110.966,2.384 L107.97,2.384 L107.97,10 L106.864,10 L106.864,2.384 L103.868,2.384 Z M116.65,6.892 C116.65,8.796 115.488,10.126 113.794,10.126 C112.086,10.126 110.938,8.796 110.938,6.892 C110.938,4.988 112.086,3.658 113.794,3.658 C115.488,3.658 116.65,4.988 116.65,6.892 Z M115.586,6.892 C115.586,5.534 114.914,4.582 113.794,4.582 C112.674,4.582 112.002,5.534 112.002,6.892 C112.002,8.25 112.674,9.202 113.794,9.202 C114.914,9.202 115.586,8.25 115.586,6.892 Z M119.716,4.68 L119.716,10 L118.666,10 L118.666,4.68 L117.364,4.68 L117.364,3.784 L118.666,3.784 L118.666,2.146 L119.716,2.146 L119.716,3.784 L121.158,3.784 L121.158,4.68 L119.716,4.68 Z M125.75,6.682 L125.75,5.87 C125.75,5.1 125.176,4.624 124.266,4.624 C123.58,4.624 123.02,4.834 122.502,5.17 L122.502,4.176 C122.922,3.882 123.664,3.658 124.434,3.658 C125.904,3.658 126.772,4.47 126.772,5.786 L126.772,10 L125.75,10 L125.75,9.538 C125.512,9.79 124.868,10.112 124.14,10.112 C122.866,10.112 121.83,9.356 121.83,8.124 C121.83,6.962 122.866,6.178 124.196,6.178 C124.84,6.178 125.484,6.444 125.75,6.682 Z M125.75,8.46 L125.75,7.816 C125.582,7.354 124.966,7.046 124.308,7.046 C123.552,7.046 122.824,7.382 122.824,8.124 C122.824,8.88 123.552,9.23 124.308,9.23 C124.966,9.23 125.582,8.922 125.75,8.46 Z M129.614,0.9 L129.614,10 L128.564,10 L128.564,0.9 L129.614,0.9 Z" id="Combined-Shape" fill="#666666" fill-rule="nonzero"></path>
                        </g>
                        <g id="legend" transform="translate(0.000000, 275.000000)" stroke-linecap="round" stroke-width="15">
                            <g id="Bar" transform="translate(7.000000, 22.000000)">
                                <g id="Baseline" transform="translate(0.000000, 1.000000)" stroke="#EAEAEA">
                                    <path d="M0,1 L217.898699,1" id="1"></path>
                                </g>
                                <g id="Normal" transform="translate(0.000000, 1.000000)" stroke="#DADADA">
                                    <path d="M0,1 L127.5,1" id="1"></path>
                                </g>
                            </g>
                        </g>
                        <g id="legend" transform="translate(0.000000, 335.000000)" stroke-linecap="round" stroke-width="15">
                            <g id="Bar" transform="translate(7.000000, 22.000000)">
                                <g id="Baseline" transform="translate(0.000000, 1.000000)" stroke="#333333" stroke-opacity="0.1">
                                    <path d="M0,1 L217.898699,1" id="1"></path>
                                </g>
                                <g id="Normal" transform="translate(0.000000, 1.000000)" stroke="#FD9A69">
                                    <path d="M0,1 L47.5,1" id="1"></path>
                                </g>
                            </g>
                        </g>
                        <g id="Group-8" transform="translate(34.000000, 0.000000)">
                            <g id="Lines" transform="translate(84.000000, 84.000000) scale(1, -1) translate(-84.000000, -84.000000) ">
                                <g id="Baseline" stroke="#333333" stroke-opacity="0.1" stroke-width="8">
                                    <circle id="1" cx="84" cy="84" r="84"></circle>
                                </g>
                                <g id="Normal" stroke-linecap="round" stroke-width="15">
                                    <path d="M84,0 C37.608081,0 0,37.608081 0,84 C0,130.391919 37.608081,168 84,168 L84,168" id="1" stroke="#DADADA"></path>
                                    <path d="M84,168 C130.391919,168 168,130.391919 168,84 C168,64.0480248 161.04386,45.720743 149.480168,31.3311368" id="4" stroke="#9060EB" stroke-linejoin="round"></path>
                                    <path d="M149.480168,31.3311368 C137.642238,16.6002752 120.975624,5.99607107 102,2" id="3" stroke="#FD9A69"></path>
                                    <path d="M102,2 C95.8819454,0.632177093 90.0147991,0 84,0" id="2" stroke="#FD9A69"></path>
                                </g>
                            </g>
                            <g id="Group-2" transform="translate(43.000000, 70.000000)" fill="#52697A" fill-rule="nonzero">
                                <path d="M5.296,13.336 L10.384,13.336 L10.384,16 L0.016,16 L0.016,15.904 L4.312,10.288 C5.704,8.512 6.664,7.312 6.664,5.776 C6.664,4.624 5.944,3.856 4.552,3.856 C2.92,3.856 1.408,4.864 0.4,5.776 L0.4,2.776 C1.456,1.792 3.184,1.024 5.104,1.024 C7.936,1.024 9.76,2.728 9.76,5.392 C9.76,7.336 8.512,9.088 7.096,10.984 L5.296,13.336 Z M18.016,16.24 C14.944,16.24 12.712,13.984 12.712,10.984 C12.712,9.688 13.096,8.416 14.176,6.568 L17.248,1.264 L20.464,1.264 L17.728,6.04 C17.896,5.968 18.232,5.92 18.496,5.92 C21.376,6.016 23.32,8.2 23.32,10.984 C23.32,13.984 21.112,16.24 18.016,16.24 Z M20.56,10.984 C20.56,9.544 19.504,8.392 18.016,8.392 C16.552,8.392 15.496,9.544 15.496,10.984 C15.496,12.448 16.552,13.576 18.016,13.576 C19.504,13.576 20.56,12.448 20.56,10.984 Z M25.48,14.248 C25.48,13.168 26.32,12.352 27.376,12.352 C28.432,12.352 29.248,13.168 29.248,14.248 C29.248,15.328 28.432,16.168 27.376,16.168 C26.32,16.168 25.48,15.328 25.48,14.248 Z M31.936,3.952 L31.936,1.264 L41.536,1.264 L41.536,1.336 L38.248,7.144 C40.288,7.72 41.608,9.28 41.608,11.368 C41.608,14.416 39.112,16.264 36.208,16.264 C34.144,16.264 32.848,15.736 31.816,15.016 L31.816,12.04 C32.968,13.072 34.432,13.672 35.944,13.672 C37.6,13.672 38.776,12.928 38.776,11.392 C38.776,9.616 36.832,8.824 34.528,8.872 L34.528,8.8 L37.264,3.952 L31.936,3.952 Z M48.688,3.952 L48.688,1.264 L61.264,1.264 L61.264,3.952 L56.512,3.952 L56.512,16 L53.416,16 L53.416,3.952 L48.688,3.952 Z M66.136,5.272 L66.136,16 L63.16,16 L63.16,5.272 L66.136,5.272 Z M66.4,2.176 C66.4,3.184 65.584,3.88 64.648,3.88 C63.688,3.88 62.872,3.184 62.872,2.176 C62.872,1.192 63.688,0.472 64.648,0.472 C65.584,0.472 66.4,1.192 66.4,2.176 Z M77.512,8.392 C78.904,8.848 79.912,10.216 79.912,11.824 C79.912,14.536 78.04,16 74.968,16 L68.848,16 L68.848,1.264 L74.488,1.264 C77.56,1.264 79.456,2.632 79.456,5.272 C79.456,6.856 78.592,8.008 77.512,8.392 Z M71.8,7.312 L74.296,7.312 C75.76,7.312 76.528,6.736 76.528,5.56 C76.528,4.384 75.76,3.856 74.296,3.856 L71.8,3.856 L71.8,7.312 Z M71.8,9.712 L71.8,13.408 L74.704,13.408 C76.144,13.408 76.912,12.688 76.912,11.56 C76.912,10.408 76.144,9.712 74.704,9.712 L71.8,9.712 Z" id="Combined-Shape"></path>
                            </g>
                        </g>
                    </g>
                </g>
            </g>
        </g>
    </g>
</svg>