<?xml version="1.0" encoding="UTF-8"?>
<svg width="223px" height="67px" viewBox="0 0 223 67" version="1.1" xmlns="http://www.w3.org/2000/svg" xmlns:xlink="http://www.w3.org/1999/xlink">
    <!-- Generator: Sketch 52.4 (67378) - http://www.bohemiancoding.com/sketch -->
    <title>Group 7</title>
    <desc>Created with Sketch.</desc>
    <g id="SEMC-Example" stroke="none" stroke-width="1" fill="none" fill-rule="evenodd">
        <g id="G2-Dashboard" transform="translate(-459.000000, -123.000000)">
            <g id="Group-15" transform="translate(432.000000, 91.000000)">
                <g id="Group-7" transform="translate(25.000000, 30.000000)">
                    <g id="Group-6">
                        <g id="Group-20">
                            <path d="M95.744,9.176 L96.416,9.176 L98.72,17.624 L100.992,9.176 L101.792,9.176 L99.12,19 L98.384,19 L96.064,10.632 L93.76,19 L93.04,19 L90.352,9.176 L91.168,9.176 L93.44,17.624 L95.744,9.176 Z M103.152,15.512 C103.152,17.432 104.272,18.44 105.744,18.44 C106.544,18.44 107.136,18.248 107.744,17.736 L107.744,18.52 C107.216,18.952 106.512,19.144 105.68,19.144 C103.696,19.144 102.368,17.736 102.368,15.512 C102.368,13.32 103.552,11.752 105.44,11.752 C107.296,11.752 108.256,13.16 108.256,15.224 L108.256,15.512 L103.152,15.512 Z M105.44,12.456 C104.272,12.456 103.376,13.32 103.184,14.856 L107.488,14.856 C107.44,13.608 106.848,12.456 105.44,12.456 Z M110.784,8.6 L110.784,19 L109.984,19 L109.984,8.6 L110.784,8.6 Z M112.544,15.448 C112.544,13.208 113.952,11.752 115.856,11.752 C116.544,11.752 117.248,11.944 117.744,12.376 L117.744,13.192 C117.184,12.68 116.592,12.472 115.888,12.472 C114.48,12.472 113.344,13.576 113.344,15.448 C113.344,17.32 114.48,18.424 115.888,18.424 C116.592,18.424 117.184,18.216 117.744,17.704 L117.744,18.52 C117.248,18.952 116.544,19.144 115.856,19.144 C113.952,19.144 112.544,17.688 112.544,15.448 Z M125.264,15.448 C125.264,17.64 124,19.144 122.112,19.144 C120.24,19.144 118.976,17.64 118.976,15.448 C118.976,13.256 120.24,11.752 122.112,11.752 C124,11.752 125.264,13.256 125.264,15.448 Z M124.464,15.448 C124.464,13.656 123.536,12.456 122.112,12.456 C120.704,12.456 119.776,13.656 119.776,15.448 C119.776,17.24 120.704,18.44 122.112,18.44 C123.536,18.44 124.464,17.24 124.464,15.448 Z M131.856,13.112 C132.256,12.408 133.056,11.752 134.064,11.752 C135.504,11.752 136.224,12.776 136.224,14.2 L136.224,19 L135.44,19 L135.44,14.312 C135.44,13.224 134.96,12.488 133.92,12.488 C133.04,12.488 132.32,13.128 132.032,13.976 L132.032,19 L131.232,19 L131.232,14.312 C131.232,13.224 130.752,12.488 129.712,12.488 C128.832,12.488 128.112,13.128 127.824,13.976 L127.824,19 L127.024,19 L127.024,11.896 L127.824,11.896 L127.824,12.984 C128.176,12.312 128.912,11.752 129.872,11.752 C130.896,11.752 131.568,12.312 131.856,13.112 Z M138.704,15.512 C138.704,17.432 139.824,18.44 141.296,18.44 C142.096,18.44 142.688,18.248 143.296,17.736 L143.296,18.52 C142.768,18.952 142.064,19.144 141.232,19.144 C139.248,19.144 137.92,17.736 137.92,15.512 C137.92,13.32 139.104,11.752 140.992,11.752 C142.848,11.752 143.808,13.16 143.808,15.224 L143.808,15.512 L138.704,15.512 Z M140.992,12.456 C139.824,12.456 138.928,13.32 138.736,14.856 L143.04,14.856 C142.992,13.608 142.4,12.456 140.992,12.456 Z M150.592,12.584 L150.592,19 L149.792,19 L149.792,12.584 L148.272,12.584 L148.272,11.896 L149.792,11.896 L149.792,10.072 L150.592,10.072 L150.592,11.896 L152.272,11.896 L152.272,12.584 L150.592,12.584 Z M159.424,15.448 C159.424,17.64 158.16,19.144 156.272,19.144 C154.4,19.144 153.136,17.64 153.136,15.448 C153.136,13.256 154.4,11.752 156.272,11.752 C158.16,11.752 159.424,13.256 159.424,15.448 Z M158.624,15.448 C158.624,13.656 157.696,12.456 156.272,12.456 C154.864,12.456 153.936,13.656 153.936,15.448 C153.936,17.24 154.864,18.44 156.272,18.44 C157.696,18.44 158.624,17.24 158.624,15.448 Z M90.912,43.992 L90.912,40.968 C92.232,41.952 93.912,42.6 95.616,42.6 C97.104,42.6 98.232,42.144 98.232,40.992 C98.232,40.032 97.608,39.672 96.504,39.264 L94.344,38.544 C92.16,37.824 90.72,36.696 90.72,34.248 C90.72,31.512 93.072,30.024 95.952,30.024 C97.752,30.024 99.216,30.456 100.416,31.176 L100.416,34.176 C99.144,33.24 97.752,32.64 96.048,32.64 C94.728,32.64 93.72,33.096 93.72,34.104 C93.72,35.016 94.32,35.376 95.352,35.712 L97.656,36.504 C100.128,37.344 101.256,38.688 101.256,40.872 C101.256,43.776 98.784,45.24 95.664,45.24 C93.696,45.24 91.968,44.664 90.912,43.992 Z M107.4,36.672 L107.4,45 L104.424,45 L104.424,36.672 L102.384,36.672 L102.384,34.272 L104.424,34.272 L104.424,31.368 L107.4,31.368 L107.4,34.272 L109.68,34.272 L109.68,36.672 L107.4,36.672 Z M121.152,39.648 C121.152,42.936 119.016,45.24 115.896,45.24 C112.776,45.24 110.64,42.936 110.64,39.648 C110.64,36.336 112.776,34.032 115.896,34.032 C119.016,34.032 121.152,36.336 121.152,39.648 Z M118.2,39.648 C118.2,37.848 117.384,36.552 115.896,36.552 C114.408,36.552 113.592,37.848 113.592,39.648 C113.592,41.424 114.408,42.72 115.896,42.72 C117.384,42.72 118.2,41.424 118.2,39.648 Z M129.552,34.224 L129.552,37.2 C129.144,36.96 128.616,36.84 128.064,36.84 C127.056,36.84 126.24,37.368 126.024,38.352 L126.024,45 L123.048,45 L123.048,34.272 L126.024,34.272 L126.024,35.328 C126.48,34.56 127.368,34.032 128.424,34.032 C128.928,34.032 129.384,34.128 129.552,34.224 Z M140.304,40.32 L133.392,40.32 C133.632,42.072 134.904,42.792 136.488,42.792 C137.664,42.792 138.504,42.528 139.56,41.856 L139.56,44.304 C138.672,44.952 137.472,45.24 136.032,45.24 C132.768,45.24 130.536,43.128 130.536,39.72 C130.536,36.36 132.648,34.032 135.576,34.032 C138.696,34.032 140.304,36.192 140.304,39.36 L140.304,40.32 Z M135.648,36.408 C134.664,36.408 133.824,37.032 133.488,38.376 L137.544,38.376 C137.472,37.224 136.824,36.408 135.648,36.408 Z M142.368,30.264 L152.376,30.264 L152.376,32.952 L145.392,32.952 L145.392,36.168 L151.728,36.168 L151.728,38.784 L145.392,38.784 L145.392,42.288 L152.376,42.288 L152.376,45 L142.368,45 L142.368,30.264 Z M160.44,38.904 L160.44,38.304 C160.44,37.272 159.552,36.624 158.04,36.624 C156.96,36.624 155.952,36.936 155.112,37.488 L155.112,34.92 C155.88,34.44 157.272,34.032 158.688,34.032 C161.64,34.032 163.296,35.544 163.296,38.16 L163.296,45 L160.44,45 L160.44,44.424 C160.08,44.784 159.024,45.192 157.848,45.192 C155.688,45.192 153.888,43.944 153.888,41.712 C153.888,39.672 155.688,38.28 158.04,38.28 C158.976,38.28 160.008,38.592 160.44,38.904 Z M160.44,42.072 L160.44,41.304 C160.176,40.728 159.384,40.368 158.544,40.368 C157.608,40.368 156.648,40.776 156.648,41.688 C156.648,42.624 157.608,43.008 158.544,43.008 C159.384,43.008 160.176,42.648 160.44,42.072 Z M165.312,44.16 L165.312,41.4 C166.344,42.336 167.832,42.888 169.008,42.888 C169.896,42.888 170.592,42.624 170.592,41.976 C170.592,41.376 170.112,41.16 169.368,40.92 L168.336,40.632 C166.464,40.128 165.288,39.24 165.288,37.392 C165.288,35.304 167.088,34.032 169.488,34.032 C170.856,34.032 171.96,34.368 172.92,34.992 L172.92,37.704 C171.96,36.936 170.856,36.384 169.632,36.384 C168.816,36.384 168.192,36.696 168.192,37.296 C168.192,37.872 168.6,38.064 169.344,38.304 L170.544,38.664 C172.584,39.24 173.52,40.2 173.52,41.928 C173.52,44.088 171.624,45.24 169.104,45.24 C167.688,45.24 166.224,44.856 165.312,44.16 Z M179.856,48.96 L176.928,48.96 L178.488,45.048 L174.384,34.272 L177.528,34.272 L180,41.4 L182.448,34.272 L185.448,34.272 L179.856,48.96 Z M96.576,56.6 C97.04,56.088 97.728,55.688 98.736,55.688 C100.208,55.688 101.088,56.712 101.088,58.328 L101.088,63 L99.104,63 L99.104,58.744 C99.104,57.976 98.768,57.464 98.08,57.464 C97.568,57.464 97.104,57.784 96.976,58.392 L96.976,63 L94.976,63 L94.976,58.744 C94.976,57.976 94.656,57.464 93.968,57.464 C93.456,57.464 92.976,57.784 92.848,58.392 L92.848,63 L90.864,63 L90.864,55.848 L92.848,55.848 L92.848,56.44 C93.2,55.992 93.856,55.688 94.656,55.688 C95.504,55.688 96.176,56.072 96.576,56.6 Z M106.672,58.936 L106.672,58.536 C106.672,57.848 106.08,57.416 105.072,57.416 C104.352,57.416 103.68,57.624 103.12,57.992 L103.12,56.28 C103.632,55.96 104.56,55.688 105.504,55.688 C107.472,55.688 108.576,56.696 108.576,58.44 L108.576,63 L106.672,63 L106.672,62.616 C106.432,62.856 105.728,63.128 104.944,63.128 C103.504,63.128 102.304,62.296 102.304,60.808 C102.304,59.448 103.504,58.52 105.072,58.52 C105.696,58.52 106.384,58.728 106.672,58.936 Z M106.672,61.048 L106.672,60.536 C106.496,60.152 105.968,59.912 105.408,59.912 C104.784,59.912 104.144,60.184 104.144,60.792 C104.144,61.416 104.784,61.672 105.408,61.672 C105.968,61.672 106.496,61.432 106.672,61.048 Z M110.224,63 L110.224,55.848 L112.208,55.848 L112.208,56.504 C112.592,56.056 113.296,55.688 114.128,55.688 C115.744,55.688 116.656,56.744 116.656,58.328 L116.656,63 L114.672,63 L114.672,58.744 C114.672,57.992 114.288,57.48 113.504,57.48 C112.896,57.48 112.368,57.848 112.208,58.472 L112.208,63 L110.224,63 Z M122.24,58.936 L122.24,58.536 C122.24,57.848 121.648,57.416 120.64,57.416 C119.92,57.416 119.248,57.624 118.688,57.992 L118.688,56.28 C119.2,55.96 120.128,55.688 121.072,55.688 C123.04,55.688 124.144,56.696 124.144,58.44 L124.144,63 L122.24,63 L122.24,62.616 C122,62.856 121.296,63.128 120.512,63.128 C119.072,63.128 117.872,62.296 117.872,60.808 C117.872,59.448 119.072,58.52 120.64,58.52 C121.264,58.52 121.952,58.728 122.24,58.936 Z M122.24,61.048 L122.24,60.536 C122.064,60.152 121.536,59.912 120.976,59.912 C120.352,59.912 119.712,60.184 119.712,60.792 C119.712,61.416 120.352,61.672 120.976,61.672 C121.536,61.672 122.064,61.432 122.24,61.048 Z M130.32,62.408 L130.32,62.184 C130,62.552 129.376,62.904 128.576,62.904 C126.512,62.904 125.344,61.24 125.344,59.304 C125.344,57.352 126.512,55.688 128.576,55.688 C129.376,55.688 130,56.04 130.32,56.408 L130.32,55.848 L132.304,55.848 L132.304,62.216 C132.304,64.84 130.368,65.8 128.416,65.8 C127.44,65.8 126.528,65.56 125.952,65.192 L125.952,63.24 C126.688,63.88 127.456,64.12 128.384,64.12 C129.456,64.12 130.32,63.576 130.32,62.408 Z M130.32,60.504 L130.32,58.088 C130.096,57.688 129.584,57.352 128.992,57.352 C127.936,57.352 127.328,58.168 127.328,59.304 C127.328,60.424 127.936,61.24 128.992,61.24 C129.584,61.24 130.096,60.92 130.32,60.504 Z M140.096,59.88 L135.488,59.88 C135.648,61.048 136.496,61.528 137.552,61.528 C138.336,61.528 138.896,61.352 139.6,60.904 L139.6,62.536 C139.008,62.968 138.208,63.16 137.248,63.16 C135.072,63.16 133.584,61.752 133.584,59.48 C133.584,57.24 134.992,55.688 136.944,55.688 C139.024,55.688 140.096,57.128 140.096,59.24 L140.096,59.88 Z M136.992,57.272 C136.336,57.272 135.776,57.688 135.552,58.584 L138.256,58.584 C138.208,57.816 137.776,57.272 136.992,57.272 Z M147.104,56.6 C147.568,56.088 148.256,55.688 149.264,55.688 C150.736,55.688 151.616,56.712 151.616,58.328 L151.616,63 L149.632,63 L149.632,58.744 C149.632,57.976 149.296,57.464 148.608,57.464 C148.096,57.464 147.632,57.784 147.504,58.392 L147.504,63 L145.504,63 L145.504,58.744 C145.504,57.976 145.184,57.464 144.496,57.464 C143.984,57.464 143.504,57.784 143.376,58.392 L143.376,63 L141.392,63 L141.392,55.848 L143.376,55.848 L143.376,56.44 C143.728,55.992 144.384,55.688 145.184,55.688 C146.032,55.688 146.704,56.072 147.104,56.6 Z M159.328,59.88 L154.72,59.88 C154.88,61.048 155.728,61.528 156.784,61.528 C157.568,61.528 158.128,61.352 158.832,60.904 L158.832,62.536 C158.24,62.968 157.44,63.16 156.48,63.16 C154.304,63.16 152.816,61.752 152.816,59.48 C152.816,57.24 154.224,55.688 156.176,55.688 C158.256,55.688 159.328,57.128 159.328,59.24 L159.328,59.88 Z M156.224,57.272 C155.568,57.272 155.008,57.688 154.784,58.584 L157.488,58.584 C157.44,57.816 157.008,57.272 156.224,57.272 Z M160.624,63 L160.624,55.848 L162.608,55.848 L162.608,56.504 C162.992,56.056 163.696,55.688 164.528,55.688 C166.144,55.688 167.056,56.744 167.056,58.328 L167.056,63 L165.072,63 L165.072,58.744 C165.072,57.992 164.688,57.48 163.904,57.48 C163.296,57.48 162.768,57.848 162.608,58.472 L162.608,63 L160.624,63 Z M171.52,57.448 L171.52,63 L169.536,63 L169.536,57.448 L168.176,57.448 L168.176,55.848 L169.536,55.848 L169.536,53.912 L171.52,53.912 L171.52,55.848 L173.04,55.848 L173.04,57.448 L171.52,57.448 Z M177.184,59.432 C177.184,57.128 178.768,55.688 180.8,55.688 C181.52,55.688 182.224,55.848 182.736,56.248 L182.736,58.056 C182.256,57.624 181.68,57.416 181.04,57.416 C179.984,57.416 179.152,58.152 179.152,59.432 C179.152,60.696 179.984,61.448 181.04,61.448 C181.68,61.448 182.256,61.224 182.736,60.808 L182.736,62.6 C182.224,63 181.52,63.16 180.8,63.16 C178.768,63.16 177.184,61.72 177.184,59.432 Z M190.672,59.432 C190.672,61.624 189.248,63.16 187.168,63.16 C185.088,63.16 183.664,61.624 183.664,59.432 C183.664,57.224 185.088,55.688 187.168,55.688 C189.248,55.688 190.672,57.224 190.672,59.432 Z M188.704,59.432 C188.704,58.232 188.16,57.368 187.168,57.368 C186.176,57.368 185.632,58.232 185.632,59.432 C185.632,60.616 186.176,61.48 187.168,61.48 C188.16,61.48 188.704,60.616 188.704,59.432 Z M191.936,63 L191.936,55.848 L193.92,55.848 L193.92,56.504 C194.304,56.056 195.008,55.688 195.84,55.688 C197.456,55.688 198.368,56.744 198.368,58.328 L198.368,63 L196.384,63 L196.384,58.744 C196.384,57.992 196,57.48 195.216,57.48 C194.608,57.48 194.08,57.848 193.92,58.472 L193.92,63 L191.936,63 Z M199.712,62.44 L199.712,60.6 C200.4,61.224 201.392,61.592 202.176,61.592 C202.768,61.592 203.232,61.416 203.232,60.984 C203.232,60.584 202.912,60.44 202.416,60.28 L201.728,60.088 C200.48,59.752 199.696,59.16 199.696,57.928 C199.696,56.536 200.896,55.688 202.496,55.688 C203.408,55.688 204.144,55.912 204.784,56.328 L204.784,58.136 C204.144,57.624 203.408,57.256 202.592,57.256 C202.048,57.256 201.632,57.464 201.632,57.864 C201.632,58.248 201.904,58.376 202.4,58.536 L203.2,58.776 C204.56,59.16 205.184,59.8 205.184,60.952 C205.184,62.392 203.92,63.16 202.24,63.16 C201.296,63.16 200.32,62.904 199.712,62.44 Z M213.088,59.432 C213.088,61.624 211.664,63.16 209.584,63.16 C207.504,63.16 206.08,61.624 206.08,59.432 C206.08,57.224 207.504,55.688 209.584,55.688 C211.664,55.688 213.088,57.224 213.088,59.432 Z M211.12,59.432 C211.12,58.232 210.576,57.368 209.584,57.368 C208.592,57.368 208.048,58.232 208.048,59.432 C208.048,60.616 208.592,61.48 209.584,61.48 C210.576,61.48 211.12,60.616 211.12,59.432 Z M216.336,52.6 L216.336,63 L214.352,63 L214.352,52.6 L216.336,52.6 Z M224.128,59.88 L219.52,59.88 C219.68,61.048 220.528,61.528 221.584,61.528 C222.368,61.528 222.928,61.352 223.632,60.904 L223.632,62.536 C223.04,62.968 222.24,63.16 221.28,63.16 C219.104,63.16 217.616,61.752 217.616,59.48 C217.616,57.24 219.024,55.688 220.976,55.688 C223.056,55.688 224.128,57.128 224.128,59.24 L224.128,59.88 Z M221.024,57.272 C220.368,57.272 219.808,57.688 219.584,58.584 L222.288,58.584 C222.24,57.816 221.808,57.272 221.024,57.272 Z" id="Combined-Shape" fill="#425563" fill-rule="nonzero"></path>
                            <g id="SEMC-Logo-large" fill="#01A982">
                                <g id="SEMC" transform="translate(2.916667, 2.916667)">
                                    <path d="M0,39.2032553 L0.000161480229,26.5076412 L11.4613822,19.6276301 L11.4613822,7.02225956 L23.0678545,0 L33.4170416,6.26440617 L43.766148,0 L55.4209836,7.02225956 L55.4209836,19.6337483 L65.5766367,25.8660338 L65.625,39.8599972 L55.4209836,46.0739281 L55.4209836,58.6532962 L43.8145114,65.625 L33.3890248,59.3552806 L23.0678545,65.625 L11.4613822,58.6532962 L11.4613822,46.0739281 L0,39.2032553 Z M22.3587247,27.1097802 L14.4451146,22.6041667 L14.4451146,35.152321 L2.91666667,28.2778542 L2.91666667,37.7669482 L14.4451146,44.6523436 L14.4451146,57.2513365 L22.3587247,61.9791667 L22.3587247,49.3769356 L32.8125,55.6610105 L32.8125,47.2432515 L22.3587247,41.1409976 L22.3587247,27.1097802 Z M24.0625,61.9791667 L30.625,57.9637931 L24.0625,53.9583333 L24.0625,61.9791667 Z M53.1980652,22.6041667 L45.3850284,27.3119185 L45.3850284,41.1879392 L35,47.2477066 L35,55.6606613 L45.3850284,49.3217421 L45.3850284,61.9791667 L53.1980652,57.252216 L53.1980652,44.6956458 L63.4375,38.3918838 L63.4375,28.9467313 L53.1980652,35.1892516 L53.1980652,22.6041667 Z M35.7291667,57.9531635 L42.2916667,61.9791667 L42.2916667,53.9583333 L35.7291667,57.9531635 Z M33.5542154,34.2708333 L24.7916667,39.4374457 L33.5310423,44.4791667 L42.2916667,39.456266 L33.5542154,34.2708333 Z M24.0625,27.2057173 L24.0625,36.4583333 L32.0833333,31.8567827 L32.0833333,22.6041667 L24.0625,27.2057173 Z M43.0208333,27.1867218 L35,22.6041667 L35,31.8757782 L43.0208333,36.4583333 L43.0208333,27.1867218 Z M5.10416667,26.6145424 L11.6666667,22.6041667 L11.6666667,30.625 L5.10416667,26.6145424 Z M55.4166667,30.625 L61.9791667,26.6372406 L55.4166667,22.6041667 L55.4166667,30.625 Z M51.7267445,7.61625687 L43.9212363,2.91666667 L33.5520215,9.15605982 L23.1827258,2.91666667 L15.3125,7.65522501 L25.7508008,13.8859586 L15.4285872,20.1053064 L23.2091791,24.7916667 L32.4298993,19.2858528 L33.6004788,18.5655034 L44.0095758,24.7810025 L51.7708333,20.1253517 L41.5953668,13.8859586 L51.7267445,7.61625687 Z M13.8573873,10.2083333 L13.8541667,18.2291667 L20.4166667,14.1980168 L13.8573873,10.2083333 Z M46.6666667,14.2619016 L53.2291667,18.2291667 L53.2291667,10.2083333 L46.6666667,14.2619016 Z" id="Shape"></path>
                                </g>
                            </g>
                        </g>
                    </g>
                </g>
            </g>
        </g>
    </g>
</svg>